<svg width="600" height="600" viewBox="0 0 600 600" fill="none" xmlns="http://www.w3.org/2000/svg">
<path d="M565 221.2C565 317.96 486.461 396.4 389.578 396.4C292.695 396.4 214.156 317.96 214.156 221.2C214.156 124.44 292.695 46 389.578 46C486.461 46 565 124.44 565 221.2Z" fill="#3DBC4A"/>
<path fill-rule="evenodd" clip-rule="evenodd" d="M389.578 386.4C480.95 386.4 555 312.426 555 221.2C555 129.974 480.95 56 389.578 56C298.206 56 224.156 129.974 224.156 221.2C224.156 312.426 298.206 386.4 389.578 386.4ZM389.578 396.4C486.461 396.4 565 317.96 565 221.2C565 124.44 486.461 46 389.578 46C292.695 46 214.156 124.44 214.156 221.2C214.156 317.96 292.695 396.4 389.578 396.4Z" fill="#05060F"/>
<path d="M395.843 221.2C395.843 317.96 317.304 396.4 220.422 396.4C123.539 396.4 45 317.96 45 221.2C45 124.44 123.539 46 220.422 46C317.304 46 395.843 124.44 395.843 221.2Z" fill="#E93C3C"/>
<path fill-rule="evenodd" clip-rule="evenodd" d="M405.843 221.2C405.843 323.495 322.815 406.4 220.422 406.4C118.028 406.4 35 323.495 35 221.2C35 118.905 118.028 36 220.422 36C322.815 36 405.843 118.905 405.843 221.2ZM220.422 396.4C317.304 396.4 395.843 317.96 395.843 221.2C395.843 124.44 317.304 46 220.422 46C123.539 46 45 124.44 45 221.2C45 317.96 123.539 396.4 220.422 396.4Z" fill="#05060F"/>
<path d="M479.378 381.8C479.378 478.56 400.839 557 303.956 557C207.073 557 128.534 478.56 128.534 381.8C128.534 285.04 207.073 206.6 303.956 206.6C400.839 206.6 479.378 285.04 479.378 381.8Z" fill="#664EFF"/>
<path fill-rule="evenodd" clip-rule="evenodd" d="M489.378 381.8C489.378 484.095 406.349 567 303.956 567C201.562 567 118.534 484.095 118.534 381.8C118.534 279.505 201.562 196.6 303.956 196.6C406.349 196.6 489.378 279.505 489.378 381.8ZM303.956 557C400.839 557 479.378 478.56 479.378 381.8C479.378 285.04 400.839 206.6 303.956 206.6C207.073 206.6 128.534 285.04 128.534 381.8C128.534 478.56 207.073 557 303.956 557Z" fill="#05060F"/>
<path fill-rule="evenodd" clip-rule="evenodd" d="M305 374.771C359.156 344.948 395.843 287.374 395.843 221.242C395.843 155.11 359.156 97.5362 305 67.7136C250.843 97.5362 214.156 155.11 214.156 221.242C214.156 287.374 250.843 344.948 305 374.771Z" fill="#F8DB46"/>
<path fill-rule="evenodd" clip-rule="evenodd" d="M305 386.187L300.176 383.53C242.96 352.023 204.156 291.168 204.156 221.242C204.156 151.316 242.96 90.4616 300.176 58.954L305 56.2977L309.823 58.954C367.04 90.4616 405.843 151.316 405.843 221.242C405.843 291.168 367.04 352.023 309.823 383.53L305 386.187ZM305 374.771C250.843 344.948 214.156 287.374 214.156 221.242C214.156 155.11 250.843 97.5362 305 67.7136C359.156 97.5362 395.843 155.11 395.843 221.242C395.843 287.374 359.156 344.948 305 374.771Z" fill="#05060F"/>
<path fill-rule="evenodd" clip-rule="evenodd" d="M128.882 370.858C134.623 279.277 210.812 206.775 303.956 206.775C337.502 206.775 368.848 216.179 395.496 232.491C389.755 324.072 313.566 396.575 220.422 396.575C186.876 396.575 155.53 387.171 128.882 370.858Z" fill="#FF6AB2"/>
<path fill-rule="evenodd" clip-rule="evenodd" d="M118.524 376.243L118.901 370.233C124.972 273.405 205.509 196.775 303.956 196.775C339.395 196.775 372.541 206.715 400.717 223.962L405.853 227.106L405.476 233.117C399.406 329.945 318.868 406.575 220.422 406.575C184.982 406.575 151.836 396.634 123.661 379.387L118.524 376.243ZM303.956 206.775C210.812 206.775 134.623 279.277 128.882 370.858C155.53 387.171 186.876 396.575 220.422 396.575C313.566 396.575 389.755 324.072 395.496 232.491C368.848 216.179 337.501 206.775 303.956 206.775Z" fill="#05060F"/>
<path fill-rule="evenodd" clip-rule="evenodd" d="M214.156 231.265C240.425 215.6 271.138 206.6 303.956 206.6C397.515 206.6 473.968 279.751 479.103 371.91C452.834 387.574 422.121 396.575 389.303 396.575C295.744 396.575 219.291 323.424 214.156 231.265Z" fill="#20D9D2"/>
<path fill-rule="evenodd" clip-rule="evenodd" d="M203.835 225.776L209.035 222.676C236.809 206.113 269.286 196.6 303.956 196.6C402.841 196.6 483.658 273.915 489.087 371.354L489.424 377.398L484.224 380.499C456.45 397.061 423.973 406.575 389.303 406.575C290.418 406.575 209.601 329.26 204.172 231.821L203.835 225.776ZM303.956 206.6C271.138 206.6 240.425 215.6 214.156 231.265C219.291 323.424 295.744 396.575 389.303 396.575C422.121 396.575 452.834 387.574 479.103 371.91C473.968 279.751 397.515 206.6 303.956 206.6Z" fill="#05060F"/>
<path fill-rule="evenodd" clip-rule="evenodd" d="M395.3 232.475C391.449 293.903 355.903 346.748 304.804 374.887C253.369 346.563 217.691 293.206 214.236 231.259C240.444 215.696 271.057 206.759 303.76 206.759C337.306 206.759 368.652 216.163 395.3 232.475Z" fill="white"/>
<path fill-rule="evenodd" clip-rule="evenodd" d="M304.804 386.303L299.981 383.647C245.639 353.722 207.906 297.33 204.252 231.816L203.914 225.759L209.13 222.661C236.841 206.206 269.212 196.759 303.76 196.759C339.199 196.759 372.346 206.699 400.521 223.946L405.657 227.09L405.281 233.101C401.208 298.068 363.614 353.918 309.628 383.647L304.804 386.303ZM304.804 374.887C253.369 346.563 217.692 293.206 214.236 231.259C240.444 215.696 271.057 206.759 303.76 206.759C337.306 206.759 368.652 216.163 395.3 232.475C391.449 293.903 355.903 346.748 304.804 374.887Z" fill="#05060F"/>
</svg>
