<svg width="600" height="600" viewBox="0 0 600 600" fill="none" xmlns="http://www.w3.org/2000/svg">
<path d="M43 118.849C43 110.012 50.1634 102.849 59 102.849L421.688 102.849C430.524 102.849 437.688 110.012 437.688 118.849V481.536C437.688 490.373 430.524 497.536 421.688 497.536H59C50.1635 497.536 43 490.373 43 481.536L43 118.849Z" fill="url(#paint0_linear_5280_4276)"/>
<path fill-rule="evenodd" clip-rule="evenodd" d="M59 92.8488L421.688 92.8488C436.047 92.8488 447.688 104.489 447.688 118.849V481.536C447.688 495.896 436.047 507.536 421.688 507.536H59C44.6406 507.536 33 495.896 33 481.536L33 118.849C33 104.489 44.6406 92.8488 59 92.8488ZM59 102.849C50.1634 102.849 43 110.012 43 118.849L43 481.536C43 490.373 50.1635 497.536 59 497.536H421.688C430.524 497.536 437.688 490.373 437.688 481.536V118.849C437.688 110.012 430.524 102.849 421.688 102.849L59 102.849Z" fill="#05060F"/>
<path opacity="0.8" d="M43 118.849C43 110.012 50.1634 102.849 59 102.849L421.688 102.849C430.524 102.849 437.688 110.012 437.688 118.849V481.536C437.688 490.373 430.524 497.536 421.688 497.536H59C50.1635 497.536 43 490.373 43 481.536L43 118.849Z" fill="url(#paint1_radial_5280_4276)"/>
<g opacity="0.4">
<mask id="mask0_5280_4276" style="mask-type:alpha" maskUnits="userSpaceOnUse" x="495" y="89" width="72" height="421">
<path d="M495.852 354.895L495.852 332.737L519.394 332.737L519.394 354.895L495.852 354.895Z" fill="#462078"/>
<path d="M495.852 177.632L495.852 155.474L519.394 155.474L519.394 177.632L495.852 177.632Z" fill="#462078"/>
<path d="M542.938 354.895L542.937 332.737L566.48 332.737L566.48 354.895L542.938 354.895Z" fill="#462078"/>
<path d="M542.938 177.632L542.937 155.474L566.48 155.474L566.48 177.632L542.938 177.632Z" fill="#462078"/>
<path d="M495.852 399.211L495.852 377.053L519.394 377.053L519.394 399.211L495.852 399.211Z" fill="#462078"/>
<path d="M495.852 221.947L495.852 199.789L519.394 199.789L519.394 221.947L495.852 221.947Z" fill="#462078"/>
<path d="M542.938 399.211L542.937 377.053L566.48 377.053L566.48 399.211L542.938 399.211Z" fill="#462078"/>
<path d="M542.938 221.947L542.937 199.789L566.48 199.789L566.48 221.947L542.938 221.947Z" fill="#462078"/>
<path d="M495.852 487.842L495.852 465.684L519.394 465.684L519.394 487.842L495.852 487.842Z" fill="#462078"/>
<path d="M495.852 310.579L495.852 288.421L519.394 288.421L519.394 310.579L495.852 310.579Z" fill="#462078"/>
<path d="M495.852 133.316L495.852 111.158L519.394 111.158L519.394 133.316L495.852 133.316Z" fill="#462078"/>
<path d="M542.938 487.842L542.937 465.684L566.48 465.684L566.48 487.842L542.938 487.842Z" fill="#462078"/>
<path d="M542.938 310.579L542.937 288.421L566.48 288.421L566.48 310.579L542.938 310.579Z" fill="#462078"/>
<path d="M542.938 133.316L542.937 111.158L566.48 111.158L566.48 133.316L542.938 133.316Z" fill="#462078"/>
<path d="M495.852 443.526L495.852 421.368L519.394 421.368L519.394 443.526L495.852 443.526Z" fill="#462078"/>
<path d="M495.852 266.263L495.852 244.105L519.394 244.105L519.394 266.263L495.852 266.263Z" fill="#462078"/>
<path d="M542.938 443.526L542.937 421.368L566.48 421.368L566.48 443.526L542.938 443.526Z" fill="#462078"/>
<path d="M542.938 266.263L542.937 244.105L566.48 244.105L566.48 266.263L542.938 266.263Z" fill="#462078"/>
<path d="M519.395 421.368L519.395 399.211L542.937 399.211L542.937 421.368L519.395 421.368Z" fill="#462078"/>
<path d="M519.395 244.105L519.395 221.947L542.937 221.947L542.937 244.105L519.395 244.105Z" fill="#462078"/>
<path d="M519.395 465.684L519.395 443.526L542.937 443.526L542.937 465.684L519.395 465.684Z" fill="#462078"/>
<path d="M519.395 288.421L519.395 266.263L542.937 266.263L542.937 288.421L519.395 288.421Z" fill="#462078"/>
<path d="M519.395 111.158L519.395 89L542.937 89L542.937 111.158L519.395 111.158Z" fill="#462078"/>
<path d="M519.395 510L519.395 487.842L542.937 487.842L542.937 510L519.395 510Z" fill="#462078"/>
<path d="M519.395 332.737L519.395 310.579L542.937 310.579L542.937 332.737L519.395 332.737Z" fill="#462078"/>
<path d="M519.395 155.474L519.395 133.316L542.937 133.316L542.937 155.474L519.395 155.474Z" fill="#462078"/>
<path d="M519.395 377.053L519.395 354.895L542.937 354.895L542.937 377.053L519.395 377.053Z" fill="#462078"/>
<path d="M519.395 199.789L519.395 177.632L542.937 177.632L542.937 199.789L519.395 199.789Z" fill="#462078"/>
</mask>
<g mask="url(#mask0_5280_4276)">
<path d="M531.166 510C510.898 510 494.467 493.569 494.467 473.301L494.467 131.238C494.467 110.97 510.897 94.5395 531.166 94.5395C551.434 94.5395 567.865 110.97 567.865 131.238L567.865 473.301C567.865 493.569 551.434 510 531.166 510Z" fill="#664EFF"/>
</g>
</g>
<path d="M531.858 510C511.972 510 495.852 493.879 495.852 473.993L495.852 125.007C495.852 105.121 511.972 89 531.858 89C551.744 89 567.865 105.121 567.865 125.007L567.865 473.993C567.865 493.879 551.744 510 531.858 510Z" fill="url(#paint2_linear_5280_4276)"/>
<path d="M531 379C552.539 379 570 396.461 570 418C570 439.539 552.539 457 531 457C509.461 457 492 439.539 492 418C492 396.461 509.461 379 531 379Z" fill="#A99CFF"/>
<path fill-rule="evenodd" clip-rule="evenodd" d="M560 418C560 401.984 547.016 389 531 389C514.984 389 502 401.984 502 418C502 434.016 514.984 447 531 447C547.016 447 560 434.016 560 418ZM570 418C570 396.461 552.539 379 531 379C509.461 379 492 396.461 492 418C492 439.539 509.461 457 531 457C552.539 457 570 439.539 570 418Z" fill="white"/>
<path d="M146.5 154C169.972 154 189 173.028 189 196.5C189 219.972 169.972 239 146.5 239C123.028 239 104 219.972 104 196.5C104 173.028 123.028 154 146.5 154Z" fill="#A99CFF"/>
<path fill-rule="evenodd" clip-rule="evenodd" d="M179 196.5C179 178.551 164.449 164 146.5 164C128.551 164 114 178.551 114 196.5C114 214.449 128.551 229 146.5 229C164.449 229 179 214.449 179 196.5ZM189 196.5C189 173.028 169.972 154 146.5 154C123.028 154 104 173.028 104 196.5C104 219.972 123.028 239 146.5 239C169.972 239 189 219.972 189 196.5Z" fill="white"/>
<defs>
<linearGradient id="paint0_linear_5280_4276" x1="258.347" y1="102.849" x2="258.347" y2="714.961" gradientUnits="userSpaceOnUse">
<stop offset="0.368464" stop-color="#664EFF"/>
<stop offset="0.942083"/>
</linearGradient>
<radialGradient id="paint1_radial_5280_4276" cx="0" cy="0" r="1" gradientUnits="userSpaceOnUse" gradientTransform="translate(43 102.849) rotate(45) scale(233.061)">
<stop stop-color="white"/>
<stop offset="1" stop-color="white" stop-opacity="0"/>
</radialGradient>
<linearGradient id="paint2_linear_5280_4276" x1="498.423" y1="104.036" x2="498.423" y2="494.964" gradientUnits="userSpaceOnUse">
<stop stop-color="#664EFF"/>
<stop offset="1" stop-color="#664EFF" stop-opacity="0"/>
</linearGradient>
</defs>
</svg>
