<svg width="600" height="600" viewBox="0 0 600 600" fill="none" xmlns="http://www.w3.org/2000/svg">
<path d="M74 73H526V525H74V73Z" fill="white"/>
<path fill-rule="evenodd" clip-rule="evenodd" d="M74 68H526V531H74V68ZM84 78V521H516V78H84Z" fill="#05060F"/>
<path d="M485 55C485 50.5817 488.582 47 493 47H545C549.418 47 553 50.5817 553 55V107C553 111.418 549.418 115 545 115H493C488.582 115 485 111.418 485 107V55Z" fill="#F8DB46"/>
<path fill-rule="evenodd" clip-rule="evenodd" d="M493 37H545C554.941 37 563 45.0589 563 55V107C563 116.941 554.941 125 545 125H493C483.059 125 475 116.941 475 107V55C475 45.0589 483.059 37 493 37ZM493 47C488.582 47 485 50.5817 485 55V107C485 111.418 488.582 115 493 115H545C549.418 115 553 111.418 553 107V55C553 50.5817 549.418 47 545 47H493Z" fill="#05060F"/>
<path d="M485 493C485 488.582 488.582 485 493 485H545C549.418 485 553 488.582 553 493V545C553 549.418 549.418 553 545 553H493C488.582 553 485 549.418 485 545V493Z" fill="#F8DB46"/>
<path fill-rule="evenodd" clip-rule="evenodd" d="M493 475H545C554.941 475 563 483.059 563 493V545C563 554.941 554.941 563 545 563H493C483.059 563 475 554.941 475 545V493C475 483.059 483.059 475 493 475ZM493 485C488.582 485 485 488.582 485 493V545C485 549.418 488.582 553 493 553H545C549.418 553 553 549.418 553 545V493C553 488.582 549.418 485 545 485H493Z" fill="#05060F"/>
<path d="M47 55C47 50.5817 50.5817 47 55 47H107C111.418 47 115 50.5817 115 55V107C115 111.418 111.418 115 107 115H55C50.5817 115 47 111.418 47 107V55Z" fill="#F8DB46"/>
<path fill-rule="evenodd" clip-rule="evenodd" d="M55 37H107C116.941 37 125 45.0589 125 55V107C125 116.941 116.941 125 107 125H55C45.0589 125 37 116.941 37 107V55C37 45.0589 45.0589 37 55 37ZM55 47C50.5817 47 47 50.5817 47 55V107C47 111.418 50.5817 115 55 115H107C111.418 115 115 111.418 115 107V55C115 50.5817 111.418 47 107 47H55Z" fill="#05060F"/>
<path d="M47 493C47 488.582 50.5817 485 55 485H107C111.418 485 115 488.582 115 493V545C115 549.418 111.418 553 107 553H55C50.5817 553 47 549.418 47 545V493Z" fill="#F8DB46"/>
<path fill-rule="evenodd" clip-rule="evenodd" d="M55 475H107C116.941 475 125 483.059 125 493V545C125 554.941 116.941 563 107 563H55C45.0589 563 37 554.941 37 545V493C37 483.059 45.0589 475 55 475ZM55 485C50.5817 485 47 488.582 47 493V545C47 549.418 50.5817 553 55 553H107C111.418 553 115 549.418 115 545V493C115 488.582 111.418 485 107 485H55Z" fill="#05060F"/>
<path d="M233 231C233 243.334 223.001 253.333 210.667 253.333C198.333 253.333 188.334 243.334 188.334 231C188.334 218.666 198.333 208.667 210.667 208.667C223.001 208.667 233 218.666 233 231Z" fill="#E93C3C"/>
<path fill-rule="evenodd" clip-rule="evenodd" d="M352.794 253.075C344.176 238.302 322.83 238.301 314.212 253.075L282.376 307.651L268.8 285.435C260.092 271.185 239.395 271.185 230.687 285.435L189.181 353.354C180.086 368.236 190.797 387.333 208.238 387.333L277.667 387.333L392.228 387.333C409.465 387.333 420.204 368.635 411.519 353.747L352.794 253.075Z" fill="#E93C3C"/>
</svg>
