<svg width="600" height="600" viewBox="0 0 600 600" fill="none" xmlns="http://www.w3.org/2000/svg">
<path d="M19.0817 187.971C16.9439 179.397 22.1616 170.714 30.7357 168.576L436.181 67.487C444.755 65.3492 453.438 70.5669 455.576 79.141L530.573 379.937C532.711 388.512 527.493 397.195 518.919 399.333L113.474 500.422C104.9 502.559 96.2164 497.342 94.0787 488.768L19.0817 187.971Z" fill="#3DBC4A"/>
<path fill-rule="evenodd" clip-rule="evenodd" d="M16.2308 185.181C13.4249 173.927 20.2731 162.53 31.5266 159.724L436.972 58.6355C448.225 55.8297 459.622 62.6779 462.428 73.9314L537.425 374.728C540.231 385.981 533.383 397.379 522.129 400.184L116.684 501.273C105.431 504.079 94.0335 497.231 91.2277 485.977L16.2308 185.181ZM33.9458 169.427C28.0511 170.897 24.464 176.867 25.9337 182.762L100.931 483.558C102.4 489.453 108.37 493.04 114.265 491.57L519.71 390.481C525.605 389.012 529.192 383.042 527.722 377.147L452.725 76.3506C451.256 70.4559 445.285 66.8688 439.391 68.3385L33.9458 169.427Z" fill="#05060F"/>
<path d="M98 184C98 175.163 105.163 168 114 168H533C541.837 168 549 175.163 549 184V495C549 503.837 541.837 511 533 511H114C105.163 511 98 503.837 98 495V184Z" fill="white"/>
<path fill-rule="evenodd" clip-rule="evenodd" d="M533 178H114C110.686 178 108 180.686 108 184V495C108 498.314 110.686 501 114 501H533C536.314 501 539 498.314 539 495V184C539 180.686 536.314 178 533 178ZM114 168C105.163 168 98 175.163 98 184V495C98 503.837 105.163 511 114 511H533C541.837 511 549 503.837 549 495V184C549 175.163 541.837 168 533 168H114Z" fill="#05060F"/>
<path d="M156 243C156 236.373 161.373 231 168 231H474C480.627 231 486 236.373 486 243V435C486 441.627 480.627 447 474 447H168C161.373 447 156 441.627 156 435V243Z" fill="#664EFF"/>
<ellipse cx="233" cy="287.5" rx="34" ry="34.5" fill="#FFFCF0"/>
<path d="M228.338 385.972L162.765 425.339C157.947 428.231 155 433.438 155 439.056V454C155 462.836 162.163 470 171 470H473C481.837 470 489 462.836 489 454V386.806C489 382.854 487.537 379.041 484.893 376.103L412.14 295.268C405.767 288.187 394.655 288.21 388.311 295.317L292.964 402.135C287.593 408.152 278.582 409.231 271.943 404.65L245.659 386.519C240.492 382.955 233.719 382.741 228.338 385.972Z" fill="white"/>
</svg>
