<svg width="600" height="600" viewBox="0 0 600 600" fill="none" xmlns="http://www.w3.org/2000/svg">
<path d="M64 64H536.001V536H64V64Z" fill="#664EFF"/>
<path fill-rule="evenodd" clip-rule="evenodd" d="M526.001 74H74V526H526.001V74ZM64 64V536H536.001V64H64Z" fill="#05060F"/>
<path d="M471.709 295.846C476.191 301.222 476.191 308.778 471.709 314.154C449.837 340.393 381.238 414 300 414C218.761 414 150.162 340.393 128.29 314.154C123.808 308.778 123.808 301.222 128.29 295.846C150.162 269.607 218.761 196 300 196C381.238 196 449.837 269.607 471.709 295.846Z" fill="white"/>
<path fill-rule="evenodd" clip-rule="evenodd" d="M402.264 365.808C431.369 344.801 453.379 320.526 464.028 307.751C465.418 306.084 465.418 303.916 464.028 302.249C453.379 289.474 431.369 265.199 402.264 244.192C373.057 223.11 337.65 206 300 206C262.349 206 226.942 223.11 197.735 244.192C168.63 265.199 146.62 289.474 135.971 302.249C134.581 303.916 134.581 306.084 135.971 307.751C146.62 320.526 168.63 344.801 197.735 365.808C226.943 386.89 262.349 404 300 404C337.65 404 373.057 386.89 402.264 365.808ZM471.709 314.154C476.191 308.778 476.191 301.222 471.709 295.846C449.837 269.607 381.238 196 300 196C218.761 196 150.162 269.607 128.29 295.846C123.808 301.222 123.808 308.778 128.29 314.154C150.162 340.393 218.761 414 300 414C381.238 414 449.837 340.393 471.709 314.154Z" fill="#05060F"/>
<ellipse cx="300" cy="304.5" rx="65" ry="64.5" fill="#E93C3C"/>
<path d="M283.785 279.649C290.675 277.927 295.199 280.082 297.953 282.837C298.253 283.137 298.531 283.442 298.787 283.748C299.088 284.107 299.532 284.314 300.001 284.314C300.469 284.314 300.913 284.107 301.214 283.748C301.47 283.442 301.748 283.137 302.048 282.837C304.802 280.082 309.327 277.927 316.218 279.649C323.101 281.37 328.296 286.546 330.03 293.048C331.775 299.594 329.971 307.287 323.286 313.972C315.89 321.368 309.576 327.685 305.603 331.66C302.511 334.754 297.506 334.755 294.413 331.663L276.719 313.972C270.032 307.285 268.227 299.593 269.973 293.047C271.707 286.545 276.903 281.37 283.785 279.649Z" fill="white"/>
<path fill-rule="evenodd" clip-rule="evenodd" d="M295 121C297.761 121 300 123.239 300 126V172C300 174.761 297.761 177 295 177C292.239 177 290 174.761 290 172V126C290 123.239 292.239 121 295 121Z" fill="white"/>
<path fill-rule="evenodd" clip-rule="evenodd" d="M436.534 173.159C438.486 175.111 438.486 178.277 436.534 180.23L414.161 202.602C412.208 204.555 409.043 204.555 407.09 202.602C405.137 200.65 405.137 197.484 407.09 195.531L429.463 173.159C431.415 171.206 434.581 171.206 436.534 173.159Z" fill="white"/>
<path fill-rule="evenodd" clip-rule="evenodd" d="M153.974 173.158C155.927 171.205 159.092 171.205 161.045 173.158L183.418 195.53C185.37 197.483 185.37 200.649 183.418 202.601C181.465 204.554 178.299 204.554 176.347 202.601L153.974 180.229C152.021 178.276 152.021 175.11 153.974 173.158Z" fill="white"/>
<path fill-rule="evenodd" clip-rule="evenodd" d="M295 462C292.239 462 290 459.761 290 457L290 441C290 438.239 292.239 436 295 436C297.761 436 300 438.239 300 441L300 457C300 459.761 297.761 462 295 462Z" fill="white"/>
<path fill-rule="evenodd" clip-rule="evenodd" d="M425.625 426.829C423.838 428.935 420.683 429.193 418.577 427.407L407.391 417.916C405.285 416.129 405.027 412.974 406.813 410.868C408.6 408.763 411.755 408.504 413.861 410.291L425.047 419.782C427.152 421.568 427.411 424.724 425.625 426.829Z" fill="white"/>
<path fill-rule="evenodd" clip-rule="evenodd" d="M166.722 427.109C164.781 425.144 164.8 421.979 166.764 420.038L176.368 410.547C178.332 408.606 181.498 408.624 183.439 410.588C185.38 412.553 185.361 415.718 183.397 417.659L173.793 427.151C171.829 429.092 168.663 429.073 166.722 427.109Z" fill="white"/>
<path d="M485 493C485 488.582 488.582 485 493 485H545C549.418 485 553 488.582 553 493V545C553 549.418 549.418 553 545 553H493C488.582 553 485 549.418 485 545V493Z" fill="#F8DB46"/>
<path fill-rule="evenodd" clip-rule="evenodd" d="M493 475H545C554.941 475 563 483.059 563 493V545C563 554.941 554.941 563 545 563H493C483.059 563 475 554.941 475 545V493C475 483.059 483.059 475 493 475ZM493 485C488.582 485 485 488.582 485 493V545C485 549.418 488.582 553 493 553H545C549.418 553 553 549.418 553 545V493C553 488.582 549.418 485 545 485H493Z" fill="#05060F"/>
<path d="M485 55C485 50.5817 488.582 47 493 47H545C549.418 47 553 50.5817 553 55V107C553 111.418 549.418 115 545 115H493C488.582 115 485 111.418 485 107V55Z" fill="#F8DB46"/>
<path fill-rule="evenodd" clip-rule="evenodd" d="M493 37H545C554.941 37 563 45.0589 563 55V107C563 116.941 554.941 125 545 125H493C483.059 125 475 116.941 475 107V55C475 45.0589 483.059 37 493 37ZM493 47C488.582 47 485 50.5817 485 55V107C485 111.418 488.582 115 493 115H545C549.418 115 553 111.418 553 107V55C553 50.5817 549.418 47 545 47H493Z" fill="#05060F"/>
<path d="M47 493C47 488.582 50.5817 485 55 485H107C111.418 485 115 488.582 115 493V545C115 549.418 111.418 553 107 553H55C50.5817 553 47 549.418 47 545V493Z" fill="#F8DB46"/>
<path fill-rule="evenodd" clip-rule="evenodd" d="M55 475H107C116.941 475 125 483.059 125 493V545C125 554.941 116.941 563 107 563H55C45.0589 563 37 554.941 37 545V493C37 483.059 45.0589 475 55 475ZM55 485C50.5817 485 47 488.582 47 493V545C47 549.418 50.5817 553 55 553H107C111.418 553 115 549.418 115 545V493C115 488.582 111.418 485 107 485H55Z" fill="#05060F"/>
<path d="M47 55C47 50.5817 50.5817 47 55 47H107C111.418 47 115 50.5817 115 55V107C115 111.418 111.418 115 107 115H55C50.5817 115 47 111.418 47 107V55Z" fill="#F8DB46"/>
<path fill-rule="evenodd" clip-rule="evenodd" d="M55 37H107C116.941 37 125 45.0589 125 55V107C125 116.941 116.941 125 107 125H55C45.0589 125 37 116.941 37 107V55C37 45.0589 45.0589 37 55 37ZM55 47C50.5817 47 47 50.5817 47 55V107C47 111.418 50.5817 115 55 115H107C111.418 115 115 111.418 115 107V55C115 50.5817 111.418 47 107 47H55Z" fill="#05060F"/>
</svg>
