<svg width="600" height="600" viewBox="0 0 600 600" fill="none" xmlns="http://www.w3.org/2000/svg">
<path d="M70 50C70 41.1634 77.1634 34 86 34L460 34C468.837 34 476 41.1634 476 50L476 508C476 516.837 468.837 524 460 524H86C77.1634 524 70 516.837 70 508L70 50Z" fill="#664EFF"/>
<path d="M108 91C108 82.1634 115.163 75 124 75L484 75C492.837 75 500 82.1634 500 91L500 547C500 555.837 492.837 563 484 563H124C115.163 563 108 555.837 108 547L108 91Z" fill="white"/>
<path fill-rule="evenodd" clip-rule="evenodd" d="M103 86C103 74.402 112.402 65 124 65L484 65C495.598 65 505 74.402 505 86L505 542C505 553.598 495.598 563 484 563H124C112.402 563 103 553.598 103 542L103 86ZM124 75C117.925 75 113 79.9249 113 86L113 542C113 548.075 117.925 553 124 553H484C490.075 553 495 548.075 495 542L495 86C495 79.9249 490.075 75 484 75L124 75Z" fill="#05060F"/>
<path d="M396 249C396 299.258 355.034 340 304.5 340C253.966 340 213 299.258 213 249C213 198.742 253.966 158 304.5 158C355.034 158 396 198.742 396 249Z" fill="white"/>
<path fill-rule="evenodd" clip-rule="evenodd" d="M406 249C406 304.832 360.505 350 304.5 350C248.495 350 203 304.832 203 249C203 193.168 248.495 148 304.5 148C360.505 148 406 193.168 406 249ZM304.5 340C355.034 340 396 299.258 396 249C396 198.742 355.034 158 304.5 158C253.966 158 213 198.742 213 249C213 299.258 253.966 340 304.5 340Z" fill="#05060F"/>
<path fill-rule="evenodd" clip-rule="evenodd" d="M304.5 158C355.034 158 396 198.742 396 249C396 274.671 385.312 297.859 368.12 314.404C353.489 295.389 330.434 283.125 304.5 283.125C278.566 283.125 255.511 295.389 240.88 314.403C223.688 297.859 213 274.671 213 249C213 198.742 253.966 158 304.5 158ZM304.5 203.5C285.55 203.5 270.188 218.778 270.188 237.625C270.188 256.472 285.55 271.75 304.5 271.75C323.45 271.75 338.812 256.472 338.812 237.625C338.812 218.778 323.45 203.5 304.5 203.5Z" fill="#3DBC4A"/>
<path fill-rule="evenodd" clip-rule="evenodd" d="M367.377 324.376C364.541 324.165 361.929 322.756 360.194 320.502C347.383 303.851 327.211 293.125 304.5 293.125C281.789 293.125 261.617 303.851 248.806 320.501C247.071 322.755 244.459 324.164 241.623 324.375C238.787 324.587 235.996 323.58 233.946 321.609C214.883 303.264 203 277.509 203 249C203 193.168 248.495 148 304.5 148C360.505 148 406 193.168 406 249C406 277.509 394.117 303.264 375.054 321.609C373.005 323.581 370.213 324.587 367.377 324.376ZM233.984 306.992C220.877 291.247 213 271.038 213 249C213 198.742 253.966 158 304.5 158C355.034 158 396 198.742 396 249C396 271.038 388.123 291.247 375.016 306.993C372.855 309.588 370.553 312.063 368.12 314.404C366.082 311.755 363.88 309.237 361.53 306.865C347.01 292.21 326.822 283.125 304.5 283.125C282.178 283.125 261.99 292.21 247.47 306.864C245.12 309.236 242.918 311.754 240.88 314.403C238.447 312.062 236.145 309.588 233.984 306.992ZM304.5 213.5C291.021 213.5 280.188 224.353 280.188 237.625C280.188 250.897 291.021 261.75 304.5 261.75C317.979 261.75 328.812 250.897 328.812 237.625C328.812 224.353 317.979 213.5 304.5 213.5ZM270.188 237.625C270.188 218.778 285.55 203.5 304.5 203.5C323.45 203.5 338.812 218.778 338.812 237.625C338.812 256.472 323.45 271.75 304.5 271.75C285.55 271.75 270.188 256.472 270.188 237.625Z" fill="#05060F"/>
<path d="M202 406C202 399.373 207.373 394 214 394H394C400.627 394 406 399.373 406 406V440C406 446.627 400.627 452 394 452H214C207.373 452 202 446.627 202 440V406Z" fill="white"/>
<path fill-rule="evenodd" clip-rule="evenodd" d="M197 408C197 398.611 204.611 391 214 391H394C403.389 391 411 398.611 411 408V442C411 451.389 403.389 459 394 459H214C204.611 459 197 451.389 197 442V408ZM214 401C210.134 401 207 404.134 207 408V442C207 445.866 210.134 449 214 449H394C397.866 449 401 445.866 401 442V408C401 404.134 397.866 401 394 401H214Z" fill="#05060F"/>
</svg>
