<svg width="600" height="600" viewBox="0 0 600 600" fill="none" xmlns="http://www.w3.org/2000/svg">
<path fill-rule="evenodd" clip-rule="evenodd" d="M517.496 306.44C517.496 302.029 519.345 297.841 522.434 294.692C548.301 268.317 563.617 235.586 563.617 200.129C563.617 112.797 470.696 42 356.072 42C241.448 42 148.527 112.797 148.527 200.129C148.527 287.462 241.448 358.259 356.072 358.259C388.203 358.259 418.628 352.696 445.779 342.766C451.025 340.847 456.911 341.542 461.405 344.859L511.12 381.554C513.761 383.503 517.496 381.617 517.496 378.335V306.44Z" fill="#F8DB46"/>
<path fill-rule="evenodd" clip-rule="evenodd" d="M212.346 92.2922C175.738 120.184 153.527 158.356 153.527 200.129C153.527 241.903 175.738 280.075 212.346 307.967C248.958 335.861 299.756 353.259 356.072 353.259C387.629 353.259 417.472 347.795 444.061 338.07C450.785 335.611 458.447 336.461 464.374 340.836L512.496 376.354V306.44C512.496 300.616 514.934 295.197 518.864 291.191C543.97 265.592 558.617 234.07 558.617 200.129C558.617 158.356 536.406 120.184 499.798 92.2922C463.187 64.3975 412.388 47 356.072 47C299.756 47 248.958 64.3975 212.346 92.2922ZM206.286 84.3379C244.79 55.001 297.764 37 356.072 37C414.38 37 467.354 55.001 505.859 84.3379C544.368 113.678 568.617 154.57 568.617 200.129C568.617 237.103 552.631 271.043 526.003 298.193C523.756 300.484 522.496 303.443 522.496 306.44V378.335C522.496 385.72 514.093 389.962 508.151 385.576L458.436 348.882C455.374 346.622 451.265 346.083 447.496 347.461C419.783 357.597 388.776 363.259 356.072 363.259C297.764 363.259 244.79 345.258 206.286 315.921C167.777 286.581 143.527 245.689 143.527 200.129C143.527 154.57 167.777 113.678 206.286 84.3379Z" fill="#05060F"/>
<path d="M365.95 179C398.01 179 424 204.89 424 236.828V429.587C424 461.524 398.01 487.415 365.95 487.415H215.987L126.488 558.74C113.818 568.837 95.0497 559.851 95.0497 543.688V487.415H85.0833C58.5276 487.415 37 465.97 37 439.516V236.828C37 204.89 62.9896 179 95.0497 179H365.95Z" fill="white"/>
<path fill-rule="evenodd" clip-rule="evenodd" d="M212.388 477.12L120.074 550.688C114.083 555.463 105.342 551.147 105.342 543.688V477.12H85.0833C64.1725 477.12 47.2925 460.244 47.2925 439.516V236.828C47.2925 210.615 68.6346 189.295 95.0497 189.295H365.95C392.365 189.295 413.707 210.615 413.707 236.828V429.587C413.707 455.799 392.365 477.12 365.95 477.12H212.388ZM95.0497 487.415H85.0833C58.5276 487.415 37 465.97 37 439.516V236.828C37 204.89 62.9896 179 95.0497 179H365.95C398.01 179 424 204.89 424 236.828V429.587C424 461.524 398.01 487.415 365.95 487.415H215.987L126.488 558.74C113.818 568.837 95.0497 559.851 95.0497 543.688V487.415Z" fill="#05060F"/>
<path d="M213.493 366.943C211.869 366.943 210.552 365.626 210.552 364.001C210.552 355.872 211.231 349.392 212.588 344.562C213.994 339.731 216.029 335.858 218.695 332.941C221.361 329.976 224.608 327.274 228.437 324.835C231.49 322.922 234.205 320.985 236.579 319.024C239.003 317.016 240.917 314.864 242.323 312.568C243.728 310.273 244.431 307.666 244.431 304.749C244.431 301.928 243.753 299.441 242.396 297.289C241.038 295.137 239.172 293.487 236.798 292.339C234.471 291.144 231.878 290.546 229.019 290.546C226.159 290.546 223.469 291.191 220.949 292.483C218.477 293.774 216.441 295.615 214.842 298.006C214.639 298.313 214.448 298.629 214.271 298.953C212.172 302.789 208.931 306.543 204.558 306.543H187.117C182.653 306.543 178.971 302.87 179.652 298.458C180.651 291.993 182.784 286.462 186.052 281.866C190.656 275.458 196.739 270.723 204.3 267.663C211.861 264.554 220.197 263 229.309 263C239.294 263 248.163 264.53 255.918 267.591C263.721 270.652 269.852 275.171 274.311 281.149C278.77 287.127 281 294.443 281 303.099C281 308.79 280.031 313.812 278.092 318.163C276.153 322.515 273.439 326.365 269.949 329.713C266.508 333.012 262.461 336.025 257.808 338.751C254.173 340.855 251.144 343.055 248.721 345.351C246.346 347.646 244.552 350.276 243.341 353.241C242.129 356.159 241.523 359.745 241.523 364.001C241.523 365.626 240.206 366.943 238.582 366.943H213.493ZM226.619 414C221.385 414 216.902 412.183 213.17 408.548C209.486 404.914 207.669 400.514 207.717 395.349C207.669 390.28 209.486 385.952 213.17 382.365C216.902 378.731 221.385 376.914 226.619 376.914C231.612 376.914 235.998 378.731 239.778 382.365C243.559 385.952 245.473 390.28 245.522 395.349C245.473 398.792 244.552 401.925 242.759 404.746C241.014 407.568 238.712 409.816 235.852 411.489C233.041 413.163 229.964 414 226.619 414Z" fill="#664EFF"/>
</svg>
