<svg width="600" height="600" viewBox="0 0 600 600" fill="none" xmlns="http://www.w3.org/2000/svg">
<g clip-path="url(#clip0_5357_4345)">
<path fill-rule="evenodd" clip-rule="evenodd" d="M517.097 236.096C482.326 201.325 424.061 201.325 389.29 236.096L325.386 300L389.29 363.903C424.061 398.675 482.326 398.674 517.097 363.903C551.869 329.132 551.869 270.867 517.097 236.096ZM300.387 324.999L364.29 388.903C412.869 437.481 493.519 437.481 542.097 388.903C590.675 340.325 590.675 259.674 542.097 211.096C493.519 162.518 412.869 162.518 364.29 211.096L300.387 275L236.483 211.096C187.905 162.518 107.254 162.518 58.6762 211.096C10.0981 259.674 10.0981 340.325 58.6762 388.903C107.254 437.481 187.905 437.481 236.483 388.903L300.387 324.999ZM275.387 300L211.483 236.096C176.712 201.325 118.447 201.325 83.6759 236.096C48.9048 270.867 48.9048 329.132 83.676 363.903C118.447 398.674 176.712 398.675 211.483 363.903L275.387 300Z" fill="#664EFF"/>
<path fill-rule="evenodd" clip-rule="evenodd" d="M389.886 287.514C381.049 287.514 373.886 280.351 373.886 271.514L373.886 226.256L328.628 226.256C319.791 226.256 312.628 219.093 312.628 210.256C312.628 201.42 319.791 194.256 328.628 194.256L389.886 194.256C398.722 194.256 405.886 201.419 405.886 210.256L405.886 271.514C405.886 280.351 398.722 287.514 389.886 287.514Z" fill="#664EFF"/>
<path d="M179 204C179 238.794 150.794 267 116 267C81.2061 267 53 238.794 53 204C53 169.206 81.2061 141 116 141C150.794 141 179 169.206 179 204Z" fill="#3DBC4A"/>
<path fill-rule="evenodd" clip-rule="evenodd" d="M116 146.462C84.2224 146.462 58.4615 172.222 58.4615 204C58.4615 235.778 84.2224 261.538 116 261.538C147.778 261.538 173.538 235.778 173.538 204C173.538 172.222 147.778 146.462 116 146.462ZM48 204C48 166.445 78.4446 136 116 136C153.555 136 184 166.445 184 204C184 241.555 153.555 272 116 272C78.4446 272 48 241.555 48 204Z" fill="#05060F"/>
<path d="M547 396C547 430.794 518.794 459 484 459C449.206 459 421 430.794 421 396C421 361.206 449.206 333 484 333C518.794 333 547 361.206 547 396Z" fill="#F8DB46"/>
<path fill-rule="evenodd" clip-rule="evenodd" d="M484 338.462C452.222 338.462 426.462 364.222 426.462 396C426.462 427.778 452.222 453.538 484 453.538C515.778 453.538 541.538 427.778 541.538 396C541.538 364.222 515.778 338.462 484 338.462ZM416 396C416 358.445 446.445 328 484 328C521.555 328 552 358.445 552 396C552 433.555 521.555 464 484 464C446.445 464 416 433.555 416 396Z" fill="#05060F"/>
</g>
<defs>
<clipPath id="clip0_5357_4345">
<rect width="600" height="600" fill="white"/>
</clipPath>
</defs>
</svg>
