<svg width="600" height="600" viewBox="0 0 600 600" fill="none" xmlns="http://www.w3.org/2000/svg">
<path d="M111 113.723C111 103.935 118.163 96 127 96L473 96C481.837 96 489 103.935 489 113.723V222.277C489 232.065 481.837 240 473 240L127 240C118.163 240 111 232.065 111 222.277L111 113.723Z" fill="#664EFF"/>
<path d="M223 384.246C223 374.169 230.163 366 239 366H361C369.837 366 377 374.169 377 384.246V477.754C377 487.831 369.837 496 361 496H239C230.163 496 223 487.831 223 477.754V384.246Z" fill="#E93C3C"/>
<path fill-rule="evenodd" clip-rule="evenodd" d="M218 378C218 366.402 227.402 357 239 357H361C372.598 357 382 366.402 382 378V479C382 490.598 372.598 500 361 500H239C227.402 500 218 490.598 218 479V378ZM239 367C232.925 367 228 371.925 228 378V479C228 485.075 232.925 490 239 490H361C367.075 490 372 485.075 372 479V378C372 371.925 367.075 367 361 367H239Z" fill="#05060F"/>
<path d="M33 384.246C33 374.169 40.1634 366 49 366H171C179.837 366 187 374.169 187 384.246V477.754C187 487.831 179.837 496 171 496H49C40.1634 496 33 487.831 33 477.754L33 384.246Z" fill="white"/>
<path fill-rule="evenodd" clip-rule="evenodd" d="M28 378C28 366.402 37.402 357 49 357H171C182.598 357 192 366.402 192 378V479C192 490.598 182.598 500 171 500H49C37.402 500 28 490.598 28 479L28 378ZM49 367C42.9249 367 38 371.925 38 378L38 479C38 485.075 42.9249 490 49 490H171C177.075 490 182 485.075 182 479V378C182 371.925 177.075 367 171 367H49Z" fill="#05060F"/>
<path d="M413 384.246C413 374.169 420.163 366 429 366H551C559.837 366 567 374.169 567 384.246V477.754C567 487.831 559.837 496 551 496H429C420.163 496 413 487.831 413 477.754V384.246Z" fill="white"/>
<path fill-rule="evenodd" clip-rule="evenodd" d="M408 378C408 366.402 417.402 357 429 357H551C562.598 357 572 366.402 572 378V479C572 490.598 562.598 500 551 500H429C417.402 500 408 490.598 408 479V378ZM429 367C422.925 367 418 371.925 418 378V479C418 485.075 422.925 490 429 490H551C557.075 490 562 485.075 562 479V378C562 371.925 557.075 367 551 367H429Z" fill="#05060F"/>
<rect x="295" y="240" width="10" height="118" fill="#7D7E82"/>
<path fill-rule="evenodd" clip-rule="evenodd" d="M122 302.5C119.239 302.5 117 304.739 117 307.5V362.5H107V307.5C107 299.216 113.716 292.5 122 292.5H480C488.284 292.5 495 299.216 495 307.5V362.5H485V307.5C485 304.739 482.761 302.5 480 302.5H122Z" fill="#7D7E82"/>
</svg>
