<svg width="600" height="600" viewBox="0 0 600 600" fill="none" xmlns="http://www.w3.org/2000/svg">
<path d="M535 299C535 428.787 429.787 534 300 534C170.213 534 65 428.787 65 299C65 169.213 170.213 64 300 64C429.787 64 535 169.213 535 299Z" fill="white"/>
<path fill-rule="evenodd" clip-rule="evenodd" d="M300 525.696C425.201 525.696 526.696 424.201 526.696 299C526.696 173.799 425.201 72.3043 300 72.3043C174.799 72.3043 73.3043 173.799 73.3043 299C73.3043 424.201 174.799 525.696 300 525.696ZM300 536C430.891 536 537 429.891 537 299C537 168.109 430.891 62 300 62C169.109 62 63 168.109 63 299C63 429.891 169.109 536 300 536Z" fill="#05060F"/>
<path fill-rule="evenodd" clip-rule="evenodd" d="M365.927 88.9624C365.927 125.392 336.403 154.925 299.983 154.925C263.563 154.925 234.039 125.392 234.039 88.9624C234.039 52.5324 263.563 23 299.983 23C336.403 23 365.927 52.5324 365.927 88.9624ZM299.56 185.34L526.746 169.446C533.974 169.446 540.907 172.318 546.018 177.43C551.129 182.543 554 189.476 554 196.707C554 208.734 548.94 223.975 526.746 229.761L385.028 256.028V544.287C385.028 552.963 381.582 561.284 375.449 567.419C369.316 573.553 360.997 577 352.324 577C343.65 577 335.331 573.553 329.198 567.419C323.065 561.284 319.619 552.963 319.619 544.287L308.33 385.313H292.025L278.201 544.287C278.201 552.963 274.755 561.284 268.622 567.419C262.489 573.553 254.17 577 245.496 577C236.823 577 228.504 573.553 222.371 567.419C216.238 561.284 212.792 552.963 212.792 544.287V256.028L73.2536 229.761C48.5371 224.939 46 208.734 46 196.707C46 189.476 48.8714 182.543 53.9824 177.43C59.0934 172.318 66.0255 169.446 73.2536 169.446L299.56 185.34Z" fill="#15D6CF"/>
<path fill-rule="evenodd" clip-rule="evenodd" d="M228.947 89.0574C228.947 49.8135 260.751 18 299.983 18C339.215 18 371.019 49.8135 371.019 89.0574C371.019 128.301 339.215 160.115 299.983 160.115C260.751 160.115 228.947 128.301 228.947 89.0574ZM299.983 28.2494C266.41 28.2494 239.194 55.4741 239.194 89.0574C239.194 122.641 266.41 149.865 299.983 149.865C333.556 149.865 360.772 122.641 360.772 89.0574C360.772 55.4741 333.556 28.2494 299.983 28.2494ZM50.4791 173.862C56.5484 167.79 64.7802 164.38 73.3635 164.38H73.5432L299.561 180.254L526.458 164.38H526.636C535.22 164.38 543.452 167.79 549.521 173.862C555.59 179.933 559 188.167 559 196.753C559 203.439 557.598 211.341 552.833 218.463C548.005 225.678 540.06 231.589 527.929 234.752L527.751 234.798L390.928 260.158C390.454 260.246 390.11 260.66 390.11 261.142V544.177C390.11 554.208 386.126 563.829 379.035 570.922C371.944 578.015 362.326 582 352.298 582C342.27 582 332.653 578.015 325.561 570.922C318.515 563.873 314.537 554.328 314.487 544.365L303.62 391.329C303.582 390.805 303.147 390.399 302.622 390.399H297.643C297.124 390.399 296.691 390.796 296.647 391.313L283.334 544.407C283.273 554.355 279.297 563.883 272.26 570.922C265.169 578.015 255.551 582 245.523 582C235.495 582 225.877 578.015 218.786 570.922C211.695 563.829 207.711 554.208 207.711 544.177V261.127C207.711 260.646 207.369 260.233 206.896 260.144L72.3994 234.826L72.3828 234.823C58.9093 232.194 50.7095 226.256 46.0956 218.626C41.6274 211.238 41 203.012 41 196.753C41 188.167 44.4097 179.933 50.4791 173.862ZM73.1933 174.63C67.3889 174.674 61.8319 177 57.7242 181.109C53.5764 185.258 51.2462 190.885 51.2462 196.753C51.2462 202.517 51.8867 208.401 54.8626 213.321C57.6914 217.999 63.1079 222.567 74.3278 224.76C74.3333 224.761 74.3388 224.762 74.3443 224.763L217.143 251.644C217.615 251.733 217.958 252.146 217.958 252.627V544.177C217.958 551.49 220.862 558.503 226.031 563.674C231.201 568.846 238.212 571.751 245.523 571.751C252.834 571.751 259.845 568.846 265.015 563.674C270.184 558.503 273.088 551.49 273.088 544.177V543.954L287.253 381.063C287.298 380.547 287.73 380.15 288.249 380.15H312.166C312.691 380.15 313.127 380.556 313.164 381.079L324.733 543.995V544.177C324.733 551.49 327.637 558.503 332.807 563.674C337.976 568.846 344.987 571.751 352.298 571.751C359.609 571.751 366.62 568.846 371.79 563.674C376.959 558.503 379.864 551.49 379.864 544.177V252.617C379.864 252.135 380.207 251.722 380.681 251.634L525.518 224.788C535.461 222.16 541.09 217.587 544.318 212.762C547.627 207.816 548.754 202.09 548.754 196.753C548.754 190.885 546.424 185.258 542.276 181.109C538.168 177 532.611 174.674 526.806 174.63L299.559 190.529L73.1933 174.63Z" fill="#05060F"/>
<path d="M220 64.3104C220 58.2162 224.94 53.2759 231.034 53.2759H283.448C289.542 53.2759 294.483 58.2162 294.483 64.3104V72.5862H305.517V64.3104C305.517 58.2162 310.458 53.2759 316.552 53.2759H368.966C375.06 53.2759 380 58.2162 380 64.3104C380 64.3104 380 74.7091 380 89.1379C380 104.373 367.649 116.724 352.414 116.724H333.103C317.868 116.724 305.517 104.373 305.517 89.1379V85H294.483V89.1379C294.483 104.373 282.132 116.724 266.897 116.724H247.586C232.351 116.724 220 104.373 220 89.1379C220 69.5977 220 78.7879 220 64.3104Z" fill="#05060F"/>
<path fill-rule="evenodd" clip-rule="evenodd" d="M254.9 63.6782C256.182 64.7274 256.371 66.6175 255.322 67.8998L237.322 89.8998C236.273 91.1821 234.383 91.3711 233.1 90.322C231.818 89.2728 231.629 87.3827 232.678 86.1004L250.678 64.1004C251.727 62.818 253.617 62.629 254.9 63.6782Z" fill="white"/>
<path fill-rule="evenodd" clip-rule="evenodd" d="M341.9 63.6782C343.182 64.7274 343.371 66.6175 342.322 67.8998L324.322 89.8998C323.273 91.1821 321.383 91.3711 320.1 90.322C318.818 89.2728 318.629 87.3827 319.678 86.1004L337.678 64.1004C338.727 62.818 340.617 62.629 341.9 63.6782Z" fill="white"/>
<path d="M517.521 219.117C518.329 211.427 525.218 205.849 532.908 206.657C540.597 207.465 546.176 214.354 545.368 222.043L509.41 564.159C508.602 571.849 501.713 577.427 494.023 576.619C486.333 575.811 480.755 568.922 481.563 561.232L517.521 219.117Z" fill="#F8DB46"/>
<path fill-rule="evenodd" clip-rule="evenodd" d="M509.547 218.594C510.644 208.158 519.993 200.587 530.429 201.684C540.865 202.781 548.436 212.13 547.339 222.566L511.381 564.682C510.284 575.118 500.935 582.689 490.499 581.592C480.063 580.495 472.493 571.146 473.589 560.71L509.547 218.594ZM529.384 211.63C524.441 211.11 520.012 214.696 519.492 219.639L483.535 561.755C483.015 566.698 486.601 571.127 491.545 571.646C496.488 572.166 500.916 568.58 501.436 563.636L537.394 221.521C537.913 216.578 534.327 212.149 529.384 211.63Z" fill="#05060F"/>
</svg>
