<svg width="600" height="600" viewBox="0 0 600 600" fill="none" xmlns="http://www.w3.org/2000/svg">
<path d="M353 191C353 198.2 389 221 407 231.5L418 181.5L407 151L383 140L373.5 122.5L350.5 133L356.5 151L350.5 160.5C351.333 167.667 353 183.8 353 191Z" fill="#F8DB46"/>
<path d="M35.2427 447C31.0155 447 28.0123 442.884 29.3019 438.858L125.889 137.335C126.717 134.752 129.118 133 131.83 133H250.867C253.557 133 255.943 134.724 256.789 137.277L356.679 438.8C358.016 442.837 355.01 447 350.757 447H281.447C278.72 447 276.31 445.229 275.494 442.627L255.453 378.68C254.638 376.078 252.227 374.307 249.501 374.307H133.606C130.867 374.307 128.448 376.094 127.643 378.712L108 442.595C107.195 445.213 104.776 447 102.037 447H35.2427ZM151.226 300.869C150.005 304.877 153.003 308.926 157.193 308.926H224.965C229.173 308.926 232.174 304.844 230.919 300.827L200.001 201.898C199.187 199.294 196.775 197.521 194.047 197.521H187.348C184.604 197.521 182.181 199.314 181.381 201.94L151.226 300.869Z" fill="white"/>
<path fill-rule="evenodd" clip-rule="evenodd" d="M19.7789 435.808L116.366 134.285C118.52 127.562 124.771 123 131.83 123H250.868C257.869 123 264.081 127.487 266.282 134.132L366.172 435.655C369.653 446.164 361.829 457 350.757 457H281.447C274.35 457 268.075 452.39 265.952 445.618L246.738 384.307H136.385L117.559 445.534C115.463 452.349 109.168 457 102.038 457H35.243C24.2391 457 16.4224 446.286 19.7789 435.808ZM219.848 298.926H162.273L190.135 207.521H191.281L219.848 298.926ZM29.3023 438.858C28.0127 442.884 31.0159 447 35.243 447H102.038C104.777 447 107.195 445.213 108 442.595L127.643 378.712C128.448 376.094 130.867 374.307 133.606 374.307H249.501C252.228 374.307 254.638 376.078 255.454 378.68L275.495 442.627C276.31 445.229 278.721 447 281.447 447H350.757C355.011 447 358.017 442.837 356.679 438.8L256.79 137.277C255.944 134.724 253.557 133 250.868 133H131.83C129.118 133 126.717 134.752 125.89 137.335L29.3023 438.858ZM157.194 308.926C153.004 308.926 150.005 304.877 151.227 300.869L181.382 201.94C182.182 199.314 184.604 197.521 187.349 197.521H194.047C196.775 197.521 199.187 199.294 200.001 201.898L230.919 300.827C232.175 304.844 229.174 308.926 224.965 308.926H157.194Z" fill="#05060F"/>
<path d="M463.236 453C444.888 453 429.876 448.235 418.201 438.705C406.734 428.968 401 415.501 401 398.306C401 385.461 404.44 375.102 411.32 367.229C418.201 359.149 427.687 353.245 439.78 349.516C451.873 345.786 465.737 343.922 481.375 343.922H507.556C508.119 343.922 508.572 343.456 508.545 342.894C508.197 335.552 506.229 330.197 502.641 326.83C499.097 323.101 493.259 321.236 485.127 321.236C481.166 321.236 475.328 321.34 467.614 321.547C459.9 321.754 451.768 322.065 443.22 322.479C437.55 322.754 432.201 323.029 427.173 323.304C423.153 323.523 419.764 320.328 419.764 316.301V277.407C419.764 276.886 420.163 276.453 420.682 276.411C425.49 276.022 431.126 275.632 437.591 275.243C444.471 274.829 451.56 274.518 458.857 274.311C466.363 274.104 473.243 274 479.498 274C506.185 274 526.722 279.801 541.108 291.403C555.703 303.005 563 320.718 563 344.543V441.649C563 445.515 559.866 448.649 556 448.649H524.965C521.099 448.649 517.965 445.515 517.965 441.649V423.292C517.965 422.152 516.172 421.834 515.71 422.875C511.832 431.631 506.121 438.565 498.575 443.677C489.402 449.892 477.622 453 463.236 453ZM481.375 415.087C488.672 415.087 494.822 413.015 499.826 408.872C505.039 404.521 507.958 396.648 508.583 385.253V374.134C508.583 373.581 508.135 373.134 507.583 373.134H481.375C473.66 373.134 467.718 375.102 463.548 379.038C459.378 382.767 457.293 387.843 457.293 394.266C457.293 400.481 459.378 405.557 463.548 409.493C467.718 413.222 473.66 415.087 481.375 415.087Z" fill="#664EFF"/>
<path d="M478.196 252.86L382.273 299.645L378.074 291.029L473.997 244.244L478.196 252.86Z" fill="#7D7E82"/>
<path d="M434.667 255.684C443.226 258.799 447.64 268.263 444.524 276.823C441.409 285.382 431.944 289.795 423.385 286.68C414.826 283.565 410.412 274.1 413.528 265.541C416.643 256.981 426.107 252.568 434.667 255.684Z" fill="white"/>
<path fill-rule="evenodd" clip-rule="evenodd" d="M406.01 262.805C410.637 250.093 424.692 243.539 437.403 248.166C450.114 252.792 456.668 266.847 452.042 279.559C447.415 292.27 433.36 298.824 420.649 294.197C407.938 289.571 401.384 275.516 406.01 262.805ZM444.524 276.823C447.64 268.263 443.226 258.799 434.667 255.683C426.108 252.568 416.643 256.981 413.528 265.541C410.413 274.1 414.826 283.565 423.385 286.68C431.945 289.795 441.409 285.382 444.524 276.823Z" fill="#05060F"/>
<path d="M383.127 294.092L378.951 305.565L367.478 301.389L371.654 289.917L383.127 294.092Z" fill="white"/>
<path fill-rule="evenodd" clip-rule="evenodd" d="M393.38 289.311L383.732 315.819L357.224 306.171L366.872 279.663L393.38 289.311ZM383.126 294.092L371.653 289.916L367.478 301.389L378.95 305.565L383.126 294.092Z" fill="#05060F"/>
<path d="M489.348 242.698L485.075 254.437L473.336 250.165L477.608 238.425L489.348 242.698Z" fill="white"/>
<path fill-rule="evenodd" clip-rule="evenodd" d="M499.602 237.917L489.856 264.691L463.082 254.946L472.827 228.171L499.602 237.917ZM489.348 242.698L477.609 238.425L473.336 250.164L485.075 254.437L489.348 242.698Z" fill="#05060F"/>
<path fill-rule="evenodd" clip-rule="evenodd" d="M369.917 116.954C372.367 115.831 375.267 116.853 376.472 119.264C379.077 124.473 381.655 129.629 384.551 135.097C393.148 135.65 402.449 138.624 409.614 145.855C417.723 154.039 422.308 166.871 420.987 185.356C418.986 213.37 417.485 232.062 416.982 237.926C416.832 239.673 415.779 241.213 414.206 241.986C412.634 242.76 410.771 242.653 409.296 241.705C402.214 237.152 390.486 228.549 379.328 220.364C372.033 215.013 364.982 209.84 359.633 206.096C348.086 198.013 343.884 186.489 343.813 175.72C343.752 166.536 346.675 157.661 350.74 151.435C348.053 145.493 344.826 137.882 343.385 134.423C342.349 131.936 343.468 129.076 345.917 127.954L369.917 116.954ZM354.49 135.025C356.427 139.581 359.051 145.643 361.031 149.885C361.84 151.618 361.589 153.66 360.386 155.146C356.896 159.457 353.757 167.322 353.813 175.654C353.866 183.76 356.914 191.986 365.367 197.903C371.167 201.963 378.445 207.306 385.827 212.725C390.259 215.979 394.727 219.26 398.936 222.306L381.891 185.754C380.666 185.738 379.423 185.519 378.209 185.077C372.397 182.961 369.4 176.534 371.516 170.722C373.631 164.91 380.058 161.913 385.87 164.028C391.683 166.144 394.68 172.571 392.564 178.383C392.127 179.584 391.505 180.666 390.741 181.609L408.425 219.532C409.116 210.605 410 198.824 411.013 184.643C412.193 168.128 408.027 158.46 402.511 152.894C396.908 147.24 389.108 145 381.5 145C379.661 145 377.97 143.99 377.098 142.37C374.404 137.368 372.005 132.662 369.692 128.057L354.49 135.025Z" fill="#05060F"/>
</svg>
