<svg width="600" height="600" viewBox="0 0 600 600" fill="none" xmlns="http://www.w3.org/2000/svg">
<path fill-rule="evenodd" clip-rule="evenodd" d="M56 531C56 528.239 58.2386 526 61 526L71.2708 526C74.0323 526 76.2708 528.239 76.2708 531C76.2708 533.761 74.0323 536 71.2708 536L61 536C58.2386 536 56 533.761 56 531ZM86.8125 531C86.8125 528.239 89.0511 526 91.8125 526L112.354 526C115.116 526 117.354 528.239 117.354 531C117.354 533.761 115.116 536 112.354 536L91.8125 536C89.0511 536 86.8125 533.761 86.8125 531ZM127.896 531C127.896 528.239 130.134 526 132.896 526L153.437 526C156.199 526 158.437 528.239 158.437 531C158.437 533.761 156.199 536 153.437 536L132.896 536C130.134 536 127.896 533.761 127.896 531ZM168.979 531C168.979 528.239 171.218 526 173.979 526L194.521 526C197.282 526 199.521 528.239 199.521 531C199.521 533.761 197.282 536 194.521 536L173.979 536C171.218 536 168.979 533.761 168.979 531ZM210.063 531C210.063 528.239 212.301 526 215.062 526L235.604 526C238.366 526 240.604 528.239 240.604 531C240.604 533.761 238.366 536 235.604 536L215.063 536C212.301 536 210.063 533.761 210.063 531ZM251.146 531C251.146 528.239 253.384 526 256.146 526L276.688 526C279.449 526 281.688 528.239 281.688 531C281.688 533.761 279.449 536 276.688 536L256.146 536C253.384 536 251.146 533.761 251.146 531ZM292.229 531C292.229 528.239 294.468 526 297.229 526L317.771 526C320.532 526 322.771 528.239 322.771 531C322.771 533.761 320.532 536 317.771 536L297.229 536C294.468 536 292.229 533.761 292.229 531ZM333.313 531C333.313 528.239 335.551 526 338.312 526L358.854 526C361.616 526 363.854 528.239 363.854 531C363.854 533.761 361.616 536 358.854 536L338.313 536C335.551 536 333.313 533.761 333.313 531ZM374.396 531C374.396 528.239 376.634 526 379.396 526L399.937 526C402.699 526 404.937 528.239 404.937 531C404.937 533.761 402.699 536 399.937 536L379.396 536C376.634 536 374.396 533.761 374.396 531ZM415.479 531C415.479 528.239 417.718 526 420.479 526L441.021 526C443.782 526 446.021 528.239 446.021 531C446.021 533.761 443.782 536 441.021 536L420.479 536C417.718 536 415.479 533.761 415.479 531ZM456.562 531C456.562 528.239 458.801 526 461.562 526L482.104 526C484.866 526 487.104 528.239 487.104 531C487.104 533.761 484.866 536 482.104 536L461.562 536C458.801 536 456.562 533.761 456.562 531ZM497.646 531C497.646 528.239 499.884 526 502.646 526L523.187 526C525.949 526 528.187 528.239 528.187 531C528.187 533.761 525.949 536 523.187 536L502.646 536C499.884 536 497.646 533.761 497.646 531ZM538.729 531C538.729 528.239 540.968 526 543.729 526L554 526C556.761 526 559 528.239 559 531C559 533.761 556.761 536 554 536L543.729 536C540.968 536 538.729 533.761 538.729 531Z" fill="#7D7E82"/>
<path fill-rule="evenodd" clip-rule="evenodd" d="M541 70C541 72.7614 538.761 75 536 75H525.792C523.03 75 520.792 72.7614 520.792 70C520.792 67.2386 523.03 65 525.792 65H536C538.761 65 541 67.2386 541 70ZM510.375 70C510.375 72.7614 508.136 75 505.375 75H484.958C482.197 75 479.958 72.7614 479.958 70C479.958 67.2386 482.197 65 484.958 65H505.375C508.136 65 510.375 67.2386 510.375 70ZM469.542 70C469.542 72.7614 467.303 75 464.542 75H444.125C441.364 75 439.125 72.7614 439.125 70C439.125 67.2386 441.364 65 444.125 65H464.542C467.303 65 469.542 67.2386 469.542 70ZM428.708 70C428.708 72.7614 426.47 75 423.708 75H403.292C400.53 75 398.292 72.7614 398.292 70C398.292 67.2386 400.53 65 403.292 65H423.708C426.47 65 428.708 67.2386 428.708 70ZM387.875 70C387.875 72.7614 385.636 75 382.875 75L362.458 75C359.697 75 357.458 72.7614 357.458 70C357.458 67.2386 359.697 65 362.458 65L382.875 65C385.636 65 387.875 67.2386 387.875 70ZM347.042 70C347.042 72.7614 344.803 75 342.042 75H321.625C318.864 75 316.625 72.7614 316.625 70C316.625 67.2386 318.864 65 321.625 65H342.042C344.803 65 347.042 67.2386 347.042 70ZM306.208 70C306.208 72.7614 303.97 75 301.208 75H280.792C278.03 75 275.792 72.7614 275.792 70C275.792 67.2386 278.03 65 280.792 65H301.208C303.97 65 306.208 67.2386 306.208 70ZM265.375 70C265.375 72.7614 263.136 75 260.375 75L239.958 75C237.197 75 234.958 72.7614 234.958 70C234.958 67.2386 237.197 65 239.958 65L260.375 65C263.136 65 265.375 67.2386 265.375 70ZM224.542 70C224.542 72.7614 222.303 75 219.542 75H199.125C196.364 75 194.125 72.7614 194.125 70C194.125 67.2386 196.364 65 199.125 65H219.542C222.303 65 224.542 67.2386 224.542 70ZM183.708 70C183.708 72.7614 181.47 75 178.708 75H158.292C155.53 75 153.292 72.7614 153.292 70C153.292 67.2386 155.53 65 158.292 65H178.708C181.47 65 183.708 67.2386 183.708 70ZM142.875 70C142.875 72.7614 140.636 75 137.875 75L117.458 75C114.697 75 112.458 72.7614 112.458 70C112.458 67.2386 114.697 65 117.458 65H137.875C140.636 65 142.875 67.2386 142.875 70ZM102.042 70C102.042 72.7614 99.8031 75 97.0417 75H76.6251C73.8636 75 71.6251 72.7614 71.6251 70C71.6251 67.2386 73.8636 65 76.6251 65H97.0417C99.8031 65 102.042 67.2386 102.042 70ZM61.2084 70C61.2084 72.7614 58.9698 75 56.2084 75H46C43.2386 75 41 72.7614 41 70C41 67.2386 43.2386 65 46 65H56.2084C58.9698 65 61.2084 67.2386 61.2084 70Z" fill="#7D7E82"/>
<path d="M85 70C85 83.2548 74.2548 94 61 94C47.7452 94 37 83.2548 37 70C37 56.7452 47.7452 46 61 46C74.2548 46 85 56.7452 85 70Z" fill="white"/>
<path fill-rule="evenodd" clip-rule="evenodd" d="M61 51C50.5066 51 42 59.5066 42 70C42 80.4934 50.5066 89 61 89C71.4934 89 80 80.4934 80 70C80 59.5066 71.4934 51 61 51ZM32 70C32 53.9837 44.9837 41 61 41C77.0163 41 90 53.9837 90 70C90 86.0163 77.0163 99 61 99C44.9837 99 32 86.0163 32 70Z" fill="#05060F"/>
<path d="M563 528C563 541.255 552.255 552 539 552C525.745 552 515 541.255 515 528C515 514.745 525.745 504 539 504C552.255 504 563 514.745 563 528Z" fill="white"/>
<path fill-rule="evenodd" clip-rule="evenodd" d="M539 509C528.507 509 520 517.507 520 528C520 538.493 528.507 547 539 547C549.493 547 558 538.493 558 528C558 517.507 549.493 509 539 509ZM510 528C510 511.984 522.984 499 539 499C555.016 499 568 511.984 568 528C568 544.016 555.016 557 539 557C522.984 557 510 544.016 510 528Z" fill="#05060F"/>
<path fill-rule="evenodd" clip-rule="evenodd" d="M243.247 466.636C203.284 513.113 147.008 543 49 543C42.3726 543 37 537.627 37 531C37 524.373 42.3726 519 49 519C141.492 519 190.528 491.137 225.05 450.989C260.358 409.926 273.585 354.76 291.333 296.503C291.627 295.54 291.92 294.576 292.214 293.612C309.357 237.318 323.344 178.253 360.874 133.479C399.875 86.9493 454.78 57 551 57C557.627 57 563 62.3726 563 69C563 75.6274 557.627 81 551 81C460.47 81 412.875 108.801 379.267 148.896C344.9 189.896 332.135 244.929 314.4 303.141L314.292 303.497C296.852 360.74 282.424 421.074 243.247 466.636Z" fill="#664EFF"/>
<path d="M236 300C236 262.997 265.997 233 303 233C340.003 233 370 262.997 370 300C370 337.003 340.003 367 303 367C265.997 367 236 337.003 236 300Z" fill="#F8DB46"/>
<path fill-rule="evenodd" clip-rule="evenodd" d="M231 300C231 260.235 263.235 228 303 228C342.765 228 375 260.235 375 300C375 339.765 342.765 372 303 372C263.235 372 231 339.765 231 300ZM303 238C268.758 238 241 265.758 241 300C241 334.242 268.758 362 303 362C337.242 362 365 334.242 365 300C365 265.758 337.242 238 303 238Z" fill="#05060F"/>
</svg>
