<svg width="600" height="600" viewBox="0 0 600 600" fill="none" xmlns="http://www.w3.org/2000/svg">
<path d="M74 74H526V525.999H74V74Z" fill="white"/>
<path fill-rule="evenodd" clip-rule="evenodd" d="M69 69H531V530.999H69V69ZM79 79V520.999H521V79H79Z" fill="#05060F"/>
<path opacity="0.4" fill-rule="evenodd" clip-rule="evenodd" d="M119.427 452.825C103.386 452.067 90.4965 438.758 90.4965 422.573V368.471H72.0002V364.471H90.4965V302.578H72.0002V298.578H90.4965V236.685H72.0002V232.685H90.4965V177.427C90.4965 161.217 103.425 147.892 119.501 147.171C120.053 140.539 122.764 134.496 126.925 129.753L71.1719 74.0001L74.0003 71.1716L129.754 126.925C134.496 122.764 140.539 120.052 147.172 119.501C147.892 103.425 161.217 90.4961 177.427 90.4961H231.53V72H235.53V90.4961H298.578V72H302.578V90.4961H364.471V72H368.471V90.4961H422.574C438.758 90.4961 452.068 103.385 452.826 119.427C459.622 119.73 465.854 122.299 470.779 126.392L526 71.1716L528.829 74.0001L473.683 129.145C478.154 133.974 481.08 140.252 481.655 147.171C497.731 147.891 510.66 161.217 510.66 177.427V232.685H528V236.685H510.66V298.578H528V302.578H510.66V364.471H528V368.471H510.66V422.573C510.66 438.571 498.068 451.759 482.285 452.794V452.859H481.728C481.404 459.933 478.627 466.393 474.232 471.402L528.829 525.999L526 528.828L471.403 474.231C466.537 478.5 460.304 481.243 453.468 481.694V481.76H452.824C452.083 497.121 439.832 509.585 424.574 510.594V510.66H368.471V528H364.471V510.66H302.578V528H298.578V510.66H235.53V528H231.53V510.66H177.427C161.217 510.66 147.892 497.731 147.172 481.655C140.252 481.08 133.975 478.154 129.145 473.683L74.0003 528.828L71.1719 525.999L126.392 470.779C122.299 465.854 119.73 459.622 119.427 452.825ZM231.53 360.968V302.578H207.839C208.599 325.026 217.433 345.428 231.53 360.968ZM119.397 364.471H105.263C98.6612 344.992 94.9172 324.195 94.5299 302.578H119.397V364.471ZM123.397 364.471V302.578H147.141V364.471H123.397ZM203.837 302.578H151.141V364.471H229.315C214.139 348.122 204.611 326.456 203.837 302.578ZM123.397 368.471H147.141V435.756C138.229 425.887 130.266 415.144 123.397 403.672V368.471ZM151.141 368.471V440.06C152.114 441.077 153.097 442.084 154.09 443.081L228.7 368.471H151.141ZM123.397 411.261C130.372 422.124 138.328 432.298 147.141 441.655V448.859H123.397V411.261ZM119.397 448.818C105.568 448.049 94.4965 436.527 94.4965 422.573V368.471H102.415C106.922 381.185 112.627 393.331 119.397 404.773V448.818ZM94.4965 364.471H101.043C98.3709 356.414 96.1776 348.138 94.4965 339.678V364.471ZM481.76 448.818C495.588 448.049 506.66 436.527 506.66 422.573V368.471H495.274C491.559 378.952 487.029 389.046 481.76 398.679V448.818ZM506.66 364.471V313.848C505.41 331.414 501.983 348.378 496.646 364.471H506.66ZM506.66 283.84V236.685H497.762C502.462 251.741 505.5 267.531 506.66 283.84ZM506.66 232.685V177.427C506.66 163.472 495.588 151.951 481.76 151.182V199.009C487.608 209.7 492.545 220.96 496.469 232.685H506.66ZM477.636 147.141C477.071 141.336 474.596 136.067 470.852 131.976L455.688 147.141H477.636ZM452.86 151.141H477.76V192.02C470.58 180.021 462.227 168.804 452.86 158.528V151.141ZM448.86 147.141V123.396H411.262C422.125 130.372 432.298 138.328 441.656 147.141H448.86ZM445.788 151.141H446.031L445.91 151.262C445.869 151.221 445.829 151.181 445.788 151.141ZM435.756 147.141C425.887 138.229 415.145 130.266 403.672 123.396H368.471V147.141H435.756ZM368.471 151.141H440.06C441.077 152.113 442.085 153.097 443.082 154.09L368.471 228.701V151.141ZM364.471 147.141V123.396H302.578V147.141H364.471ZM302.578 151.141H364.471V229.314C348.122 214.138 326.456 204.61 302.578 203.836V151.141ZM298.578 147.141V123.396H235.53V147.141H298.578ZM235.53 151.141H298.578V203.789C274.35 203.998 252.272 213.217 235.53 228.259V151.141ZM231.53 147.141V123.396H194.016C182.544 130.266 171.801 138.229 161.933 147.141H231.53ZM157.629 151.141H231.53V228.701L155.77 152.941C156.386 152.337 157.005 151.737 157.629 151.141ZM147.141 151.141V156.032C138.328 165.39 130.372 175.564 123.397 186.427V151.141H147.141ZM144.313 147.141H123.52C124.058 141.622 126.321 136.587 129.761 132.589L144.313 147.141ZM156.033 147.141H151.141V123.396H186.427C175.564 130.372 165.391 138.328 156.033 147.141ZM119.397 151.182C105.568 151.951 94.4965 163.473 94.4965 177.427V232.685H101.22C105.897 218.709 112.014 205.394 119.397 192.915V151.182ZM94.4965 236.685V258.009C95.9373 250.759 97.7544 243.644 99.9265 236.685H94.4965ZM477.76 448.859H452.86V439.16C462.227 428.884 470.58 417.667 477.76 405.668V448.859ZM455.688 452.859H477.723C477.408 458.83 475.074 464.291 471.396 468.567L455.688 452.859ZM446.032 448.859L444.748 447.575C444.309 448.005 443.869 448.433 443.427 448.859H446.032ZM439.161 452.859H448.86V477.76H405.668C417.667 470.58 428.884 462.227 439.161 452.859ZM437.602 448.859C439.061 447.509 440.5 446.138 441.919 444.747L368.471 371.299V448.859H437.602ZM368.471 452.859H433.152C422.272 462.355 410.376 470.716 397.65 477.76H368.471V452.859ZM364.471 448.859V369.53C348.122 384.706 326.456 394.234 302.578 395.008V448.859H364.471ZM302.578 452.859H364.471V477.76H302.578V452.859ZM298.578 448.859V395.055C274.35 394.846 252.272 385.627 235.53 370.585V448.859H298.578ZM235.53 452.859H298.578V477.76H235.53V452.859ZM231.53 448.859V371.299L156.941 445.887C157.979 446.889 159.027 447.88 160.086 448.859H231.53ZM164.537 452.859H231.53V477.76H200.039C187.312 470.716 175.417 462.355 164.537 452.859ZM154.261 448.859C154.212 448.811 154.162 448.764 154.112 448.716L153.969 448.859H154.261ZM151.141 452.859H158.528C168.804 462.227 180.021 470.58 192.021 477.76H151.141V452.859ZM144.312 452.859L129.235 467.937C125.861 463.76 123.734 458.541 123.433 452.859H144.312ZM151.141 445.788V446.03L151.262 445.909L151.141 445.788ZM131.976 470.852L147.141 455.687V477.636C141.336 477.071 136.068 474.596 131.976 470.852ZM177.427 506.66H231.53V496.078C220.22 492.219 209.349 487.415 199.009 481.76H151.182C151.952 495.588 163.473 506.66 177.427 506.66ZM283.84 506.66H235.53V497.397C250.933 502.305 267.113 505.47 283.84 506.66ZM364.471 506.66H313.849C331.414 505.41 348.378 501.982 364.471 496.646V506.66ZM422.574 506.66H368.471V495.274C378.951 491.559 389.046 487.028 398.679 481.76H448.819C448.049 495.588 436.528 506.66 422.574 506.66ZM468.568 471.396C464.292 475.073 458.831 477.407 452.86 477.723V455.687L468.568 471.396ZM448.86 446.031V443.427C448.434 443.869 448.006 444.309 447.576 444.747L448.86 446.031ZM477.76 397.65C470.717 410.376 462.355 422.272 452.86 433.151V368.471H477.76V397.65ZM448.86 437.602V368.471H371.3L444.747 441.918C446.139 440.5 447.51 439.061 448.86 437.602ZM477.76 364.471H452.86V302.578H477.76V364.471ZM448.86 364.471V302.578H395.008C394.234 326.456 384.706 348.122 369.529 364.471H448.86ZM477.76 298.578H452.86V236.685H477.76V298.578ZM448.86 298.578V236.685H371.607C386.043 253.281 394.851 274.903 395.056 298.578H448.86ZM477.76 232.685H452.86V164.537C462.355 175.416 470.717 187.312 477.76 200.038V232.685ZM448.86 232.685V160.086C447.88 159.027 446.889 157.979 445.887 156.941L370.143 232.685H448.86ZM448.86 154.261V153.969L448.716 154.112L448.86 154.261ZM467.937 129.235L452.86 144.312V123.433C458.541 123.734 463.76 125.861 467.937 129.235ZM422.574 94.4961C436.528 94.4961 448.049 105.568 448.819 119.396H404.774C393.331 112.627 381.185 106.921 368.471 102.414V94.4961H422.574ZM339.679 94.4961H364.471V101.042C356.414 98.3705 348.139 96.1772 339.679 94.4961ZM235.53 94.4961H258.01C250.357 96.0168 242.856 97.9566 235.53 100.291V94.4961ZM177.427 94.4961H231.53V101.61C217.975 106.235 205.049 112.218 192.915 119.396H151.182C151.951 105.568 163.473 94.4961 177.427 94.4961ZM132.589 129.76C136.588 126.321 141.622 124.057 147.141 123.52V144.312L132.589 129.76ZM147.141 232.685V161.932C138.229 171.801 130.266 182.544 123.397 194.016V232.685H147.141ZM151.141 157.628V232.685H229.857L152.941 155.769C152.337 156.385 151.737 157.005 151.141 157.628ZM227.237 236.685H151.141V298.578H203.789C203.994 274.903 212.801 253.281 227.237 236.685ZM147.141 298.578V236.685H123.397V298.578H147.141ZM119.397 368.471H106.665C110.206 378.243 114.472 387.669 119.397 396.682V368.471ZM207.64 481.76C215.339 485.606 223.315 488.98 231.53 491.845V481.76H207.64ZM235.53 481.76V493.194C255.384 499.658 276.574 503.164 298.578 503.192V481.76H235.53ZM302.578 481.76V503.158C324.195 502.771 344.992 499.027 364.471 492.426V481.76H302.578ZM368.471 481.76V491.023C375.872 488.341 383.074 485.244 390.048 481.76H368.471ZM481.76 390.049C485.244 383.074 488.341 375.872 491.023 368.471H481.76V390.049ZM481.76 364.471H492.426C499.027 344.992 502.771 324.195 503.159 302.578H481.76V364.471ZM481.76 298.578H503.192C503.164 277 499.792 256.205 493.567 236.685H481.76V298.578ZM481.76 232.685H492.245C489.296 224.062 485.786 215.699 481.76 207.639V232.685ZM396.683 119.396C387.669 114.472 378.244 110.206 368.471 106.665V119.396H396.683ZM364.471 119.396V105.262C344.992 98.6608 324.195 94.9169 302.578 94.5295V119.396H364.471ZM298.578 119.396V94.4963C276.574 94.5243 255.384 98.0303 235.53 104.494V119.396H298.578ZM231.53 119.396V105.843C220.93 109.539 210.728 114.084 201.006 119.396H231.53ZM119.397 201.006C113.892 211.081 109.211 221.671 105.444 232.685H119.397V201.006ZM119.397 236.685H104.122C97.8961 256.205 94.5242 277 94.4966 298.578H119.397V236.685ZM207.789 298.578H231.53V237.876C216.951 253.948 208 275.219 207.789 298.578ZM236.625 232.685H298.578V207.789C274.609 208.005 252.837 217.425 236.625 232.685ZM302.578 207.838V232.685H362.219C346.53 217.917 325.634 208.619 302.578 207.838ZM368.471 239.175V298.578H391.055C390.85 275.843 382.366 255.086 368.471 239.175ZM391.006 302.578H368.471V359.669C381.893 344.299 390.267 324.406 391.006 302.578ZM359.669 368.471H302.578V391.005C324.407 390.267 344.299 381.893 359.669 368.471ZM298.578 391.055V368.471H239.176C255.087 382.366 275.844 390.85 298.578 391.055ZM239.514 236.685H298.578V295.749L239.514 236.685ZM238.357 364.471L298.578 304.25V364.471H238.357ZM302.578 305.406V364.471H361.643L302.578 305.406ZM302.578 236.685V294.593L360.487 236.685H302.578ZM235.53 361.642L294.594 302.578H235.53V361.642ZM235.53 298.578H295.75L235.53 238.358V298.578ZM364.471 302.578V361.642L305.407 302.578H364.471ZM364.471 238.358V298.578H304.251L364.471 238.358Z" fill="#664EFF"/>
<path d="M485 55C485 50.5817 488.582 47 493 47H545C549.418 47 553 50.5817 553 55V107C553 111.418 549.418 115 545 115H493C488.582 115 485 111.418 485 107V55Z" fill="#F8DB46"/>
<path fill-rule="evenodd" clip-rule="evenodd" d="M493 37H545C554.941 37 563 45.0589 563 55V107C563 116.941 554.941 125 545 125H493C483.059 125 475 116.941 475 107V55C475 45.0589 483.059 37 493 37ZM493 47C488.582 47 485 50.5817 485 55V107C485 111.418 488.582 115 493 115H545C549.418 115 553 111.418 553 107V55C553 50.5817 549.418 47 545 47H493Z" fill="#05060F"/>
<path d="M47 55C47 50.5817 50.5817 47 55 47H107C111.418 47 115 50.5817 115 55V107C115 111.418 111.418 115 107 115H55C50.5817 115 47 111.418 47 107V55Z" fill="#F8DB46"/>
<path fill-rule="evenodd" clip-rule="evenodd" d="M55 37H107C116.941 37 125 45.0589 125 55V107C125 116.941 116.941 125 107 125H55C45.0589 125 37 116.941 37 107V55C37 45.0589 45.0589 37 55 37ZM55 47C50.5817 47 47 50.5817 47 55V107C47 111.418 50.5817 115 55 115H107C111.418 115 115 111.418 115 107V55C115 50.5817 111.418 47 107 47H55Z" fill="#05060F"/>
<path d="M485 493C485 488.582 488.582 485 493 485H545C549.418 485 553 488.582 553 493V545C553 549.418 549.418 553 545 553H493C488.582 553 485 549.418 485 545V493Z" fill="#F8DB46"/>
<path fill-rule="evenodd" clip-rule="evenodd" d="M493 475H545C554.941 475 563 483.059 563 493V545C563 554.941 554.941 563 545 563H493C483.059 563 475 554.941 475 545V493C475 483.059 483.059 475 493 475ZM493 485C488.582 485 485 488.582 485 493V545C485 549.418 488.582 553 493 553H545C549.418 553 553 549.418 553 545V493C553 488.582 549.418 485 545 485H493Z" fill="#05060F"/>
<path d="M47 493C47 488.582 50.5817 485 55 485H107C111.418 485 115 488.582 115 493V545C115 549.418 111.418 553 107 553H55C50.5817 553 47 549.418 47 545V493Z" fill="#F8DB46"/>
<path fill-rule="evenodd" clip-rule="evenodd" d="M55 475H107C116.941 475 125 483.059 125 493V545C125 554.941 116.941 563 107 563H55C45.0589 563 37 554.941 37 545V493C37 483.059 45.0589 475 55 475ZM55 485C50.5817 485 47 488.582 47 493V545C47 549.418 50.5817 553 55 553H107C111.418 553 115 549.418 115 545V493C115 488.582 111.418 485 107 485H55Z" fill="#05060F"/>
<path fill-rule="evenodd" clip-rule="evenodd" d="M185.676 400.134L208.905 339.514C209.343 338.37 210.017 337.332 210.883 336.466L324.559 222.81L375.215 273.465L262.615 386.045C261.731 386.928 260.668 387.612 259.498 388.049L196.874 411.429C189.835 414.057 182.987 407.15 185.676 400.134ZM390.639 258.044L414.993 233.694C421.243 227.446 421.243 217.314 414.994 211.065L386.965 183.039C380.716 176.791 370.587 176.791 364.339 183.038L339.984 207.389L390.639 258.044Z" fill="#E93C3C"/>
</svg>
