<svg width="600" height="600" viewBox="0 0 600 600" fill="none" xmlns="http://www.w3.org/2000/svg">
<path opacity="0.2" d="M184 212C184 196.536 196.536 184 212 184H546C561.464 184 574 196.536 574 212V546C574 561.464 561.464 574 546 574H212C196.536 574 184 561.464 184 546V212Z" fill="#664EFF"/>
<path d="M136 164C136 148.536 148.536 136 164 136H498C513.464 136 526 148.536 526 164V498C526 513.464 513.464 526 498 526H164C148.536 526 136 513.464 136 498V164Z" fill="#B4A1FC"/>
<path d="M88 112C88 98.7452 98.7452 88 112 88H454C467.255 88 478 98.7452 478 112V454C478 467.255 467.255 478 454 478H112C98.7452 478 88 467.255 88 454V112Z" fill="#664EFF"/>
<path d="M40 60C40 48.9543 48.9543 40 60 40H410C421.046 40 430 48.9543 430 60V410C430 421.046 421.046 430 410 430H60C48.9543 430 40 421.046 40 410V60Z" fill="white"/>
<path fill-rule="evenodd" clip-rule="evenodd" d="M410 50H60C54.4772 50 50 54.4772 50 60V410C50 415.523 54.4772 420 60 420H410C415.523 420 420 415.523 420 410V60C420 54.4772 415.523 50 410 50ZM60 40C48.9543 40 40 48.9543 40 60V410C40 421.046 48.9543 430 60 430H410C421.046 430 430 421.046 430 410V60C430 48.9543 421.046 40 410 40H60Z" fill="#05060F"/>
</svg>
