<svg width="600" height="600" viewBox="0 0 600 600" fill="none" xmlns="http://www.w3.org/2000/svg">
<path fill-rule="evenodd" clip-rule="evenodd" d="M31 445C31 442.239 33.2386 440 36 440H564C566.761 440 569 442.239 569 445C569 447.761 566.761 450 564 450H36C33.2386 450 31 447.761 31 445Z" fill="#7D7E82"/>
<path fill-rule="evenodd" clip-rule="evenodd" d="M31 152C31 149.239 33.2386 147 36 147H564C566.761 147 569 149.239 569 152C569 154.761 566.761 157 564 157H36C33.2386 157 31 154.761 31 152Z" fill="#7D7E82"/>
<path fill-rule="evenodd" clip-rule="evenodd" d="M31 232C31 229.239 33.2386 227 36 227H44.9323C47.6938 227 49.9323 229.239 49.9323 232C49.9323 234.761 47.6938 237 44.9323 237H36C33.2386 237 31 234.761 31 232ZM59.782 232C59.782 229.239 62.0205 227 64.782 227H82.6466C85.408 227 87.6466 229.239 87.6466 232C87.6466 234.761 85.408 237 82.6466 237H64.782C62.0205 237 59.782 234.761 59.782 232ZM97.4962 232C97.4962 229.239 99.7348 227 102.496 227H120.361C123.122 227 125.361 229.239 125.361 232C125.361 234.761 123.122 237 120.361 237H102.496C99.7348 237 97.4962 234.761 97.4962 232ZM135.211 232C135.211 229.239 137.449 227 140.211 227H158.075C160.837 227 163.075 229.239 163.075 232C163.075 234.761 160.837 237 158.075 237H140.211C137.449 237 135.211 234.761 135.211 232ZM172.925 232C172.925 229.239 175.163 227 177.925 227H195.789C198.551 227 200.789 229.239 200.789 232C200.789 234.761 198.551 237 195.789 237H177.925C175.163 237 172.925 234.761 172.925 232ZM210.639 232C210.639 229.239 212.878 227 215.639 227H233.504C236.265 227 238.504 229.239 238.504 232C238.504 234.761 236.265 237 233.504 237H215.639C212.878 237 210.639 234.761 210.639 232ZM248.353 232C248.353 229.239 250.592 227 253.353 227H271.218C273.98 227 276.218 229.239 276.218 232C276.218 234.761 273.98 237 271.218 237H253.353C250.592 237 248.353 234.761 248.353 232ZM286.068 232C286.068 229.239 288.306 227 291.068 227H308.932C311.694 227 313.932 229.239 313.932 232C313.932 234.761 311.694 237 308.932 237H291.068C288.306 237 286.068 234.761 286.068 232ZM323.782 232C323.782 229.239 326.021 227 328.782 227H346.647C349.408 227 351.647 229.239 351.647 232C351.647 234.761 349.408 237 346.647 237H328.782C326.021 237 323.782 234.761 323.782 232ZM361.496 232C361.496 229.239 363.735 227 366.496 227H384.361C387.122 227 389.361 229.239 389.361 232C389.361 234.761 387.122 237 384.361 237H366.496C363.735 237 361.496 234.761 361.496 232ZM399.211 232C399.211 229.239 401.449 227 404.211 227H422.075C424.837 227 427.075 229.239 427.075 232C427.075 234.761 424.837 237 422.075 237H404.211C401.449 237 399.211 234.761 399.211 232ZM436.925 232C436.925 229.239 439.163 227 441.925 227H459.79C462.551 227 464.79 229.239 464.79 232C464.79 234.761 462.551 237 459.79 237H441.925C439.163 237 436.925 234.761 436.925 232ZM474.639 232C474.639 229.239 476.878 227 479.639 227H497.504C500.265 227 502.504 229.239 502.504 232C502.504 234.761 500.265 237 497.504 237H479.639C476.878 237 474.639 234.761 474.639 232ZM512.353 232C512.353 229.239 514.592 227 517.353 227H535.218C537.98 227 540.218 229.239 540.218 232C540.218 234.761 537.98 237 535.218 237H517.353C514.592 237 512.353 234.761 512.353 232ZM550.068 232C550.068 229.239 552.306 227 555.068 227H564C566.761 227 569 229.239 569 232C569 234.761 566.761 237 564 237H555.068C552.306 237 550.068 234.761 550.068 232Z" fill="#E93C3C"/>
<path d="M121.386 147C124.266 147 126.924 148.548 128.345 151.054L176.505 236.688C176.855 237.305 177.509 237.686 178.217 237.686C178.923 237.686 179.574 237.308 179.925 236.697L228.648 151.018C230.074 148.533 232.721 147 235.586 147H302.426C308.647 147 312.488 153.79 309.282 159.122L231.623 294.298C230.073 296.876 230.101 300.107 231.695 302.658L312.354 437.761C315.683 443.09 311.852 450 305.569 450H237.722C234.861 450 232.217 448.472 230.789 445.992L179.928 358.6C179.575 357.987 178.921 357.609 178.214 357.609C177.507 357.609 176.853 357.987 176.5 358.6L125.639 445.992C124.211 448.472 121.568 450 118.706 450H51.3349C45.0724 450 41.2382 443.13 44.5263 437.8L124.21 302.633C125.777 300.093 125.799 296.893 124.269 294.331L47.0865 159.102C43.9017 153.77 47.7436 147 53.9548 147H121.386Z" fill="#664EFF"/>
<path d="M412.231 227C415.337 227 418.162 228.797 419.478 231.611L447.736 292.024C448.446 293.544 450.6 293.566 451.341 292.061L481.204 231.464C482.55 228.731 485.333 227 488.38 227H548.795C554.834 227 558.696 233.435 555.854 238.764L503.968 336.073C503.328 337.274 503.342 338.718 504.007 339.907L558.345 437.096C561.326 442.429 557.471 449 551.362 449H491.667C488.704 449 485.984 447.362 484.597 444.744L451.295 381.859C450.539 380.43 448.487 380.443 447.749 381.881L415.53 444.653C414.16 447.322 411.412 449 408.413 449H347.7C341.577 449 337.724 442.401 340.733 437.069L395.561 339.902C396.23 338.717 396.25 337.272 395.615 336.069L344.219 238.735C341.406 233.408 345.269 227 351.294 227H412.231Z" fill="#3DBC4A"/>
<path fill-rule="evenodd" clip-rule="evenodd" d="M410.959 237H354.611L404.458 331.399C406.682 335.612 406.612 340.667 404.27 344.816L351.125 439H407.191L438.852 377.315C443.282 368.684 455.592 368.605 460.133 377.179L492.871 439H547.952L495.278 344.787C492.953 340.628 492.902 335.572 495.144 331.367L545.462 237H489.624L460.311 296.481C455.862 305.51 442.942 305.379 438.678 296.261L410.959 237ZM451.341 292.061C450.6 293.566 448.446 293.544 447.736 292.024L419.478 231.611C418.162 228.797 415.337 227 412.231 227H351.294C345.269 227 341.406 233.408 344.219 238.735L395.615 336.069C396.25 337.272 396.23 338.717 395.561 339.902L340.733 437.069C337.724 442.401 341.577 449 347.7 449H408.413C411.412 449 414.16 447.322 415.53 444.653L447.749 381.881C448.487 380.443 450.539 380.43 451.295 381.859L484.597 444.744C485.984 447.362 488.704 449 491.667 449H551.362C557.471 449 561.326 442.429 558.345 437.096L504.007 339.907C503.342 338.718 503.328 337.274 503.968 336.073L555.854 238.764C558.696 233.435 554.834 227 548.795 227H488.38C485.333 227 482.55 228.731 481.204 231.464L451.341 292.061Z" fill="#05060F"/>
</svg>
