<svg width="600" height="600" viewBox="0 0 600 600" fill="none" xmlns="http://www.w3.org/2000/svg">
<path d="M219.688 160.66C219.688 156.43 216.264 153 212.04 153H162.324C158.099 153 154.675 156.43 154.675 160.66V221.399C154.675 222.743 155.028 224.064 155.699 225.228L173.028 255.298C173.699 256.462 174.052 257.783 174.052 259.127V289.546H153.824C149.6 289.546 146.176 292.975 146.176 297.206V312.627C146.176 316.858 142.751 320.288 138.527 320.288H127.989C123.764 320.288 120.34 316.858 120.34 312.627V297.206C120.34 292.975 116.916 289.546 112.691 289.546H89.2352C85.011 289.546 81.5866 292.975 81.5866 297.206V312.627C81.5866 316.858 78.1622 320.287 73.938 320.287H63.3996C59.1754 320.287 55.751 316.858 55.751 312.627V297.206C55.751 292.975 52.3266 289.546 48.1024 289.546H24.6486C20.4244 289.546 17 292.975 17 297.206V527.019C17 539.711 27.2732 550 39.9458 550H177.624C178.329 550 179.013 549.904 179.662 549.725C180.311 549.904 180.994 550 181.7 550H418.3C419.006 550 419.69 549.904 420.338 549.725C420.987 549.904 421.671 550 422.376 550H560.054C572.727 550 583 539.711 583 527.019V297.206C583 292.975 579.576 289.546 575.351 289.546H551.552C547.328 289.546 543.903 292.975 543.903 297.206V312.627C543.903 316.858 540.479 320.288 536.255 320.288H525.716C521.492 320.288 518.068 316.858 518.068 312.627V297.206C518.068 292.975 514.643 289.546 510.419 289.546H486.963C482.739 289.546 479.314 292.975 479.314 297.206V312.627C479.314 316.858 475.89 320.287 471.666 320.287H461.127C456.903 320.287 453.479 316.858 453.479 312.627V297.206C453.479 292.975 450.054 289.546 445.83 289.546H425.949V259.127C425.949 257.783 426.302 256.462 426.973 255.298L444.302 225.228C444.973 224.064 445.326 222.743 445.326 221.399V160.66C445.326 156.43 441.901 153 437.677 153H387.958C383.733 153 380.309 156.43 380.309 160.66V183.767C380.309 187.998 376.885 191.427 372.66 191.427H342.066C337.842 191.427 334.417 187.998 334.417 183.767V160.66C334.417 156.43 330.993 153 326.769 153H273.228C269.004 153 265.58 156.43 265.58 160.66V183.767C265.58 187.998 262.155 191.427 257.931 191.427H227.337C223.113 191.427 219.688 187.998 219.688 183.767V160.66Z" fill="white"/>
<path fill-rule="evenodd" clip-rule="evenodd" d="M166.516 282.793L167.113 282.873V257.171C167.113 256.737 166.999 256.31 166.783 255.934L149.228 225.374C148.084 223.383 147.482 221.126 147.482 218.827V157.096C147.482 149.861 153.319 144 160.516 144H210.885C218.082 144 223.92 149.861 223.92 157.096V180.58C223.92 181.944 225.021 183.053 226.383 183.053H257.379C258.741 183.053 259.842 181.944 259.842 180.58V157.096C259.842 149.861 265.68 144 272.877 144H327.12C334.317 144 340.154 149.861 340.154 157.096V180.58C340.154 181.944 341.256 183.053 342.618 183.053H373.614C374.976 183.053 376.077 181.944 376.077 180.58V157.096C376.077 149.861 381.915 144 389.112 144H439.484C446.681 144 452.518 149.861 452.518 157.096V218.827C452.518 221.126 451.916 223.383 450.772 225.374L433.217 255.934C433.001 256.31 432.887 256.737 432.887 257.171V282.875L433.485 282.793C434.068 282.713 434.663 282.671 435.269 282.671H447.744C454.941 282.671 460.779 288.534 460.779 295.769V311.441C460.779 312.806 461.88 313.915 463.242 313.915H473.919C475.281 313.915 476.382 312.806 476.382 311.441V295.769C476.382 288.534 482.22 282.671 489.417 282.671H513.181C520.378 282.671 526.216 288.534 526.216 295.769V311.444C526.216 312.808 527.317 313.917 528.679 313.917H539.356C540.718 313.917 541.819 312.808 541.819 311.444V295.769C541.819 288.534 547.657 282.671 554.854 282.671H578.965C586.162 282.671 592 288.534 592 295.769V529.333C592 545.168 579.224 558 563.467 558H435.269C429.772 558 425.303 558 419.853 558H180.147C174.351 558 170.538 558 164.742 558H36.5326C20.7762 558 8 545.168 8 529.333V295.769C8 288.534 13.8376 282.671 21.0346 282.671H44.7962C51.9932 282.671 57.8308 288.534 57.8308 295.769V311.441C57.8308 312.806 58.9319 313.915 60.2942 313.915H70.9708C72.3331 313.915 73.4342 312.806 73.4342 311.441V295.769C73.4342 288.534 79.2718 282.671 86.4688 282.671H110.233C117.43 282.671 123.267 288.534 123.267 295.769V311.444C123.267 312.808 124.369 313.917 125.731 313.917H136.407C137.77 313.917 138.871 312.808 138.871 311.444V295.769C138.871 288.534 144.708 282.671 151.905 282.671H164.742C165.344 282.671 165.936 282.714 166.516 282.793ZM422.313 294.323L422.316 294.294V257.171C422.316 254.872 422.918 252.613 424.062 250.622L441.618 220.062C441.833 219.686 441.947 219.261 441.947 218.827V157.096C441.947 155.732 440.846 154.623 439.484 154.623H389.112C387.749 154.623 386.648 155.732 386.648 157.096V180.58C386.648 187.816 380.811 193.678 373.614 193.678H342.618C335.421 193.678 329.583 187.816 329.583 180.58V157.096C329.583 155.732 328.482 154.623 327.12 154.623H272.877C271.515 154.623 270.413 155.732 270.413 157.096V180.58C270.413 187.816 264.576 193.678 257.379 193.678H226.383C219.186 193.678 213.348 187.816 213.348 180.58V157.096C213.348 155.732 212.247 154.623 210.885 154.623H160.516C159.154 154.623 158.053 155.732 158.053 157.096V218.827C158.053 219.261 158.167 219.686 158.383 220.062L175.938 250.622C177.082 252.613 177.684 254.872 177.684 257.171V294.204L177.688 294.235C177.746 294.738 177.776 295.25 177.776 295.769V544.904C177.776 545.084 177.773 545.263 177.765 545.441L177.762 545.527L177.787 545.612C178.09 546.631 179.031 547.377 180.147 547.377H419.853C420.984 547.377 421.935 546.61 422.225 545.571L422.247 545.492L422.244 545.41C422.238 545.242 422.234 545.074 422.234 544.904V295.769C422.234 295.28 422.261 294.798 422.313 294.323ZM167.113 544.904V295.093L167.088 295.014C166.77 294.019 165.842 293.296 164.742 293.296H151.905C150.543 293.296 149.442 294.405 149.442 295.769V311.444C149.442 318.679 143.605 324.54 136.407 324.54H125.731C118.534 324.54 112.696 318.679 112.696 311.444V295.769C112.696 294.405 111.595 293.296 110.233 293.296H86.4688C85.1066 293.296 84.0055 294.405 84.0055 295.769V311.441C84.0055 318.677 78.1679 324.54 70.9708 324.54H60.2942C53.0971 324.54 47.2595 318.677 47.2595 311.441V295.769C47.2595 294.405 46.1584 293.296 44.7962 293.296H21.0346C19.6724 293.296 18.5712 294.405 18.5712 295.769V529.333C18.5712 539.296 26.611 547.377 36.5326 547.377H164.742C165.858 547.377 166.799 546.631 167.102 545.612L167.127 545.527L167.124 545.441C167.119 545.333 167.116 545.225 167.115 545.116C167.113 545.045 167.113 544.975 167.113 544.904ZM432.878 545.41L432.875 545.492L432.897 545.571C433.187 546.61 434.137 547.377 435.269 547.377H563.467C573.389 547.377 581.429 539.296 581.429 529.333V295.769C581.429 294.405 580.328 293.296 578.965 293.296H554.854C553.491 293.296 552.39 294.405 552.39 295.769V311.444C552.39 318.679 546.553 324.54 539.356 324.54H528.679C521.482 324.54 515.644 318.679 515.644 311.444V295.769C515.644 294.405 514.543 293.296 513.181 293.296H489.417C488.055 293.296 486.954 294.405 486.954 295.769V311.441C486.954 318.677 481.116 324.54 473.919 324.54H463.242C456.045 324.54 450.208 318.677 450.208 311.441V295.769C450.208 294.405 449.107 293.296 447.744 293.296H435.269C434.153 293.296 433.214 294.04 432.909 295.058L432.887 295.132V544.904C432.887 545.074 432.884 545.242 432.878 545.41Z" fill="#05060F"/>
<path d="M257.148 325.332C257.148 301.704 276.303 282.55 299.931 282.55C323.559 282.55 342.713 301.704 342.713 325.332V360.335C342.713 364.631 339.23 368.114 334.934 368.114H264.927C260.631 368.114 257.148 364.631 257.148 360.335V325.332Z" fill="#FDC500"/>
<path fill-rule="evenodd" clip-rule="evenodd" d="M251.842 325.332C251.842 298.773 273.372 277.242 299.931 277.242C326.49 277.242 348.021 298.773 348.021 325.332V360.335C348.021 367.562 342.162 373.421 334.935 373.421H264.928C257.7 373.421 251.842 367.562 251.842 360.335V325.332ZM299.931 287.857C279.234 287.857 262.456 304.635 262.456 325.332V360.335C262.456 361.7 263.563 362.807 264.928 362.807H334.935C336.3 362.807 337.406 361.7 337.406 360.335V325.332C337.406 304.635 320.628 287.857 299.931 287.857Z" fill="#05060F"/>
<path d="M467.17 424.346C467.17 405.015 482.842 389.343 502.173 389.343C521.505 389.343 537.177 405.015 537.177 424.346C537.177 443.678 521.505 459.35 502.173 459.35C482.842 459.35 467.17 443.678 467.17 424.346Z" fill="#FDC500"/>
<path fill-rule="evenodd" clip-rule="evenodd" d="M461.863 424.346C461.863 402.083 479.911 384.036 502.174 384.036C524.437 384.036 542.485 402.083 542.485 424.346C542.485 446.609 524.437 464.657 502.174 464.657C479.911 464.657 461.863 446.609 461.863 424.346ZM502.174 394.65C485.773 394.65 472.478 407.946 472.478 424.346C472.478 440.747 485.773 454.043 502.174 454.043C518.575 454.043 531.87 440.747 531.87 424.346C531.87 407.946 518.575 394.65 502.174 394.65Z" fill="#05060F"/>
<path d="M62.6836 424.346C62.6836 405.015 78.3552 389.343 97.6872 389.343C117.019 389.343 132.691 405.015 132.691 424.346C132.691 443.678 117.019 459.35 97.6872 459.35C78.3552 459.35 62.6836 443.678 62.6836 424.346Z" fill="#FDC500"/>
<path fill-rule="evenodd" clip-rule="evenodd" d="M57.1133 424.346C57.1133 401.938 75.2789 383.772 97.6874 383.772C120.096 383.772 138.262 401.938 138.262 424.346C138.262 446.755 120.096 464.921 97.6874 464.921C75.2789 464.921 57.1133 446.755 57.1133 424.346ZM97.6874 394.913C81.432 394.913 68.2544 408.091 68.2544 424.346C68.2544 440.602 81.432 453.779 97.6874 453.779C113.943 453.779 127.12 440.602 127.12 424.346C127.12 408.091 113.943 394.913 97.6874 394.913Z" fill="#05060F"/>
</svg>
