<svg width="600" height="600" viewBox="0 0 600 600" fill="none" xmlns="http://www.w3.org/2000/svg">
<g clip-path="url(#clip0_5357_4338)">
<path d="M69 69H531.001V531H69V69Z" fill="white"/>
<path fill-rule="evenodd" clip-rule="evenodd" d="M64 64H536.001V536H64V64ZM74 74V526H526.001V74H74Z" fill="#05060F"/>
<path d="M129 145C129 136.163 136.163 129 145 129H271C279.837 129 287 136.163 287 145V449C287 457.837 279.837 465 271 465H145C136.163 465 129 457.837 129 449V145Z" fill="#664EFF"/>
<path d="M307 145C307 136.163 314.163 129 323 129H449C457.837 129 465 136.163 465 145V271C465 279.837 457.837 287 449 287H323C314.163 287 307 279.837 307 271V145Z" fill="#F8DB46"/>
<path fill-rule="evenodd" clip-rule="evenodd" d="M449 139H323C319.686 139 317 141.686 317 145V271C317 274.314 319.686 277 323 277H449C452.314 277 455 274.314 455 271V145C455 141.686 452.314 139 449 139ZM323 129C314.163 129 307 136.163 307 145V271C307 279.837 314.163 287 323 287H449C457.837 287 465 279.837 465 271V145C465 136.163 457.837 129 449 129H323Z" fill="#05060F"/>
<path d="M307 323C307 314.163 314.163 307 323 307H449C457.837 307 465 314.163 465 323V449C465 457.837 457.837 465 449 465H323C314.163 465 307 457.837 307 449V323Z" fill="#3DBC4A"/>
<path fill-rule="evenodd" clip-rule="evenodd" d="M449 317H323C319.686 317 317 319.686 317 323V449C317 452.314 319.686 455 323 455H449C452.314 455 455 452.314 455 449V323C455 319.686 452.314 317 449 317ZM323 307C314.163 307 307 314.163 307 323V449C307 457.837 314.163 465 323 465H449C457.837 465 465 457.837 465 449V323C465 314.163 457.837 307 449 307H323Z" fill="#05060F"/>
<path d="M485 55C485 50.5817 488.582 47 493 47H545C549.418 47 553 50.5817 553 55V107C553 111.418 549.418 115 545 115H493C488.582 115 485 111.418 485 107V55Z" fill="#F8DB46"/>
<path fill-rule="evenodd" clip-rule="evenodd" d="M493 37H545C554.941 37 563 45.0589 563 55V107C563 116.941 554.941 125 545 125H493C483.059 125 475 116.941 475 107V55C475 45.0589 483.059 37 493 37ZM493 47C488.582 47 485 50.5817 485 55V107C485 111.418 488.582 115 493 115H545C549.418 115 553 111.418 553 107V55C553 50.5817 549.418 47 545 47H493Z" fill="#05060F"/>
<path d="M485 493C485 488.582 488.582 485 493 485H545C549.418 485 553 488.582 553 493V545C553 549.418 549.418 553 545 553H493C488.582 553 485 549.418 485 545V493Z" fill="#F8DB46"/>
<path fill-rule="evenodd" clip-rule="evenodd" d="M493 475H545C554.941 475 563 483.059 563 493V545C563 554.941 554.941 563 545 563H493C483.059 563 475 554.941 475 545V493C475 483.059 483.059 475 493 475ZM493 485C488.582 485 485 488.582 485 493V545C485 549.418 488.582 553 493 553H545C549.418 553 553 549.418 553 545V493C553 488.582 549.418 485 545 485H493Z" fill="#05060F"/>
<path d="M47 55C47 50.5817 50.5817 47 55 47H107C111.418 47 115 50.5817 115 55V107C115 111.418 111.418 115 107 115H55C50.5817 115 47 111.418 47 107V55Z" fill="#F8DB46"/>
<path fill-rule="evenodd" clip-rule="evenodd" d="M55 37H107C116.941 37 125 45.0589 125 55V107C125 116.941 116.941 125 107 125H55C45.0589 125 37 116.941 37 107V55C37 45.0589 45.0589 37 55 37ZM55 47C50.5817 47 47 50.5817 47 55V107C47 111.418 50.5817 115 55 115H107C111.418 115 115 111.418 115 107V55C115 50.5817 111.418 47 107 47H55Z" fill="#05060F"/>
<path d="M47 493C47 488.582 50.5817 485 55 485H107C111.418 485 115 488.582 115 493V545C115 549.418 111.418 553 107 553H55C50.5817 553 47 549.418 47 545V493Z" fill="#F8DB46"/>
<path fill-rule="evenodd" clip-rule="evenodd" d="M55 475H107C116.941 475 125 483.059 125 493V545C125 554.941 116.941 563 107 563H55C45.0589 563 37 554.941 37 545V493C37 483.059 45.0589 475 55 475ZM55 485C50.5817 485 47 488.582 47 493V545C47 549.418 50.5817 553 55 553H107C111.418 553 115 549.418 115 545V493C115 488.582 111.418 485 107 485H55Z" fill="#05060F"/>
</g>
<defs>
<clipPath id="clip0_5357_4338">
<rect width="600" height="600" fill="white"/>
</clipPath>
</defs>
</svg>
