<svg width="600" height="600" viewBox="0 0 600 600" fill="none" xmlns="http://www.w3.org/2000/svg">
<path d="M236 105C236 96.1634 243.163 89 252 89H348C356.837 89 364 96.1634 364 105V495C364 503.837 356.837 511 348 511H252C243.163 511 236 503.837 236 495V105Z" fill="#664EFF"/>
<path fill-rule="evenodd" clip-rule="evenodd" d="M231 105C231 93.402 240.402 84 252 84H348C359.598 84 369 93.402 369 105V495C369 506.598 359.598 516 348 516H252C240.402 516 231 506.598 231 495V105ZM252 94C245.925 94 241 98.9249 241 105V495C241 501.075 245.925 506 252 506H348C354.075 506 359 501.075 359 495V105C359 98.9249 354.075 94 348 94H252Z" fill="#664EFF"/>
<path d="M32 105C32 96.1634 39.1634 89 48 89H144C152.837 89 160 96.1634 160 105V495C160 503.837 152.837 511 144 511H48C39.1634 511 32 503.837 32 495V105Z" fill="white"/>
<path fill-rule="evenodd" clip-rule="evenodd" d="M27 105C27 93.402 36.402 84 48 84H144C155.598 84 165 93.402 165 105V495C165 506.598 155.598 516 144 516H48C36.402 516 27 506.598 27 495V105ZM48 94C41.9249 94 37 98.9249 37 105V495C37 501.075 41.9249 506 48 506H144C150.075 506 155 501.075 155 495V105C155 98.9249 150.075 94 144 94H48Z" fill="#05060F"/>
<path d="M436 105C436 96.1634 443.163 89 452 89H548C556.837 89 564 96.1634 564 105V495C564 503.837 556.837 511 548 511H452C443.163 511 436 503.837 436 495V105Z" fill="white"/>
<path fill-rule="evenodd" clip-rule="evenodd" d="M435 105C435 93.402 444.402 84 456 84H552C563.598 84 573 93.402 573 105V495C573 506.598 563.598 516 552 516H456C444.402 516 435 506.598 435 495V105ZM456 94C449.925 94 445 98.9249 445 105V495C445 501.075 449.925 506 456 506H552C558.075 506 563 501.075 563 495V105C563 98.9249 558.075 94 552 94H456Z" fill="#05060F"/>
<path d="M164.745 267.111H174.596C176.806 267.111 178.596 268.902 178.596 271.111V292H217.41V271.112C217.41 268.902 219.201 267.112 221.41 267.112H231.261V332.888H221.41C219.201 332.888 217.41 331.097 217.41 328.888V306H178.596V328.888C178.596 331.097 176.806 332.888 174.596 332.888H164.745V267.111Z" fill="#7D7E82"/>
<path d="M369 267.111H378.851C381.061 267.111 382.851 268.902 382.851 271.111V292H421.665V271.112C421.665 268.902 423.456 267.112 425.665 267.112H435.516V332.888H425.665C423.456 332.888 421.665 331.097 421.665 328.888V306H382.851V328.888C382.851 331.097 381.061 332.888 378.851 332.888H369V267.111Z" fill="#7D7E82"/>
</svg>
