<svg width="600" height="600" viewBox="0 0 600 600" fill="none" xmlns="http://www.w3.org/2000/svg">
<path d="M38 118.425C38 109.354 45.3511 102 54.4192 102H491.581C500.649 102 508 109.354 508 118.425V433.575C508 442.646 500.649 450 491.581 450H54.4192C45.3511 450 38 442.646 38 433.575V118.425Z" fill="white"/>
<path fill-rule="evenodd" clip-rule="evenodd" d="M37 118.481C37 106.618 46.623 97 58.4936 97H491.506C503.377 97 513 106.618 513 118.481V432.519C513 444.382 503.377 454 491.506 454H58.4936C46.623 454 37 444.382 37 432.519V118.481ZM58.4936 107.229C52.2757 107.229 47.235 112.267 47.235 118.481V432.519C47.235 438.733 52.2757 443.771 58.4936 443.771H491.506C497.724 443.771 502.765 438.733 502.765 432.519V118.481C502.765 112.267 497.724 107.229 491.506 107.229H58.4936Z" fill="#05060F"/>
<path d="M243 251C243 257.627 237.627 263 231 263C224.373 263 219 257.627 219 251C219 244.373 224.373 239 231 239C237.627 239 243 244.373 243 251Z" fill="#E93C3C"/>
<path fill-rule="evenodd" clip-rule="evenodd" d="M307.367 262.861C302.736 254.923 291.267 254.923 286.636 262.861L269.53 292.186L262.236 280.249C257.556 272.592 246.436 272.592 241.757 280.249L219.455 316.743C214.569 324.739 220.323 335 229.695 335L267 335L328.555 335C337.817 335 343.587 324.953 338.921 316.953L307.367 262.861Z" fill="#E93C3C"/>
<path d="M47 117C47 111.477 51.5671 107 57.2009 107H492.799C498.433 107 503 111.477 503 117V176H47V117Z" fill="#664EFF"/>
<circle cx="81.6987" cy="138.602" r="10.1411" fill="white"/>
<circle cx="107.981" cy="138.602" r="10.1411" fill="white"/>
<circle cx="134.263" cy="138.602" r="10.1411" fill="white"/>
<path d="M402 263C402 254.163 409.163 247 418 247H542C550.837 247 558 254.163 558 263V495C558 503.837 550.837 511 542 511H418C409.163 511 402 503.837 402 495V263Z" fill="white"/>
<path fill-rule="evenodd" clip-rule="evenodd" d="M397 263C397 251.402 406.402 242 418 242H542C553.598 242 563 251.402 563 263V495C563 506.598 553.598 516 542 516H418C406.402 516 397 506.598 397 495V263ZM418 252C411.925 252 407 256.925 407 263V495C407 501.075 411.925 506 418 506H542C548.075 506 553 501.075 553 495V263C553 256.925 548.075 252 542 252H418Z" fill="#05060F"/>
<path d="M458.5 359.5C458.5 363.274 455.44 366.334 451.667 366.334C447.893 366.334 444.833 363.274 444.833 359.5C444.833 355.726 447.893 352.667 451.667 352.667C455.44 352.667 458.5 355.726 458.5 359.5Z" fill="#E93C3C"/>
<path fill-rule="evenodd" clip-rule="evenodd" d="M495.153 366.255C492.516 361.734 485.985 361.734 483.348 366.255L473.607 382.953L469.453 376.156C466.789 371.796 460.456 371.796 457.792 376.156L445.092 396.937C442.31 401.49 445.587 407.334 450.923 407.334L472.167 407.334L507.219 407.334C512.493 407.334 515.779 401.613 513.121 397.057L495.153 366.255Z" fill="#E93C3C"/>
<path d="M449 251H510V253C510 257.418 506.418 261 502 261H457C452.582 261 449 257.418 449 253V251Z" fill="#05060F"/>
</svg>
