<svg width="600" height="600" viewBox="0 0 600 600" fill="none" xmlns="http://www.w3.org/2000/svg">
<path d="M272.045 18.1044C289.349 8.13575 310.651 8.13579 327.955 18.1044L529.955 134.478C547.307 144.475 558 162.976 558 183.002V416.997C558 437.023 547.307 455.524 529.955 465.521L327.955 581.895C310.651 591.863 289.349 591.863 272.045 581.895L70.0452 465.521C52.6933 455.524 42 437.023 42 416.997L42 183.002C42 162.976 52.6933 144.475 70.0452 134.478L272.045 18.1044Z" fill="#D7E8FE"/>
<path fill-rule="evenodd" clip-rule="evenodd" d="M524.963 143.143L322.963 26.7693C308.749 18.5808 291.251 18.5808 277.037 26.7693L75.0372 143.143C60.7838 151.355 52 166.552 52 183.002L52 416.997C52 433.447 60.7838 448.644 75.0371 456.856L277.037 573.23C291.251 581.418 308.749 581.418 322.963 573.23L524.963 456.856C539.216 448.644 548 433.447 548 416.997V183.002C548 166.552 539.216 151.355 524.963 143.143ZM327.955 18.1044C310.651 8.13579 289.349 8.13575 272.045 18.1044L70.0452 134.478C52.6933 144.475 42 162.976 42 183.002L42 416.997C42 437.023 52.6933 455.524 70.0452 465.521L272.045 581.895C289.349 591.863 310.651 591.863 327.955 581.895L529.955 465.521C547.307 455.524 558 437.023 558 416.997V183.002C558 162.976 547.307 144.475 529.955 134.478L327.955 18.1044Z" fill="#05060F"/>
<path fill-rule="evenodd" clip-rule="evenodd" d="M334.709 186.937C334.709 206.096 319.16 221.628 299.98 221.628C280.8 221.628 265.252 206.096 265.252 186.937C265.252 167.777 280.8 152.245 299.98 152.245C319.16 152.245 334.709 167.777 334.709 186.937ZM299.757 237.625L419.401 229.265C423.207 229.265 426.858 230.776 429.55 233.465C432.241 236.153 433.754 239.8 433.754 243.603C433.754 249.928 431.089 257.944 419.401 260.987L344.768 274.801V426.405C344.768 430.968 342.953 435.345 339.723 438.571C336.493 441.798 332.112 443.61 327.544 443.61C322.977 443.61 318.596 441.798 315.366 438.571C312.136 435.345 310.321 430.968 310.321 426.405L304.376 342.796H295.789L288.509 426.405C288.509 430.968 286.694 435.345 283.464 438.571C280.234 441.798 275.854 443.61 271.286 443.61C266.718 443.61 262.337 441.798 259.107 438.571C255.877 435.345 254.063 430.968 254.063 426.405V274.801L180.577 260.987C167.561 258.451 166.225 249.928 166.225 243.603C166.225 239.8 167.737 236.153 170.428 233.465C173.12 230.776 176.771 229.265 180.577 229.265L299.757 237.625Z" fill="white" stroke="#05060F" stroke-width="10" stroke-linejoin="round"/>
</svg>
