<svg width="600" height="600" viewBox="0 0 600 600" fill="none" xmlns="http://www.w3.org/2000/svg">
<path d="M67 144L279.485 20.0927C292.239 12.0851 308.343 11.9623 321.216 19.7744L531.528 141.842C543.608 149.173 551 168.386 551 182.644V419.789C551 434.227 544.321 449.23 532 456.5L320.486 577.48C307.987 584.856 292.532 584.839 280.048 577.437L67.824 459.155C55.5451 451.874 48 438.548 48 424.142V182.242C48 168.201 55.2134 151.4 67 144Z" fill="#D7E8FE"/>
<path d="M296.725 292.811L171.85 81.8149L279.009 17.1849C289.979 10.569 303.637 10.2806 314.876 16.4275L430.213 79.5089L296.725 292.811Z" fill="#1A80F8"/>
<path d="M278.061 98.1192C291.644 90.3066 308.356 90.3066 321.939 98.1192L463.939 179.798C477.587 187.649 486 202.194 486 217.939V382.062C486 397.807 477.587 412.352 463.939 420.202L321.939 501.881C308.356 509.694 291.644 509.694 278.061 501.881L136.061 420.202C122.413 412.352 114 397.807 114 382.062L114 217.939C114 202.194 122.413 187.649 136.061 179.798L278.061 98.1192Z" fill="white"/>
<path fill-rule="evenodd" clip-rule="evenodd" d="M326.925 89.4509L468.925 171.13C485.675 180.764 496 198.615 496 217.939V382.062C496 401.385 485.675 419.236 468.925 428.87L326.925 510.549C310.255 520.138 289.745 520.138 273.075 510.549L131.075 428.87C114.325 419.236 104 401.385 104 382.062V217.939C104 198.615 114.325 180.765 131.075 171.13L273.075 89.4509C289.745 79.8627 310.255 79.8627 326.925 89.4509ZM321.939 98.1192C308.356 90.3066 291.644 90.3066 278.061 98.1192L136.061 179.798C122.413 187.649 114 202.194 114 217.939L114 382.062C114 397.807 122.413 412.352 136.061 420.202L278.061 501.881C291.644 509.694 308.356 509.694 321.939 501.881L463.939 420.202C477.587 412.352 486 397.807 486 382.062V217.939C486 202.194 477.587 187.649 463.939 179.798L321.939 98.1192Z" fill="#05060F"/>
<path fill-rule="evenodd" clip-rule="evenodd" d="M524.963 143.145L322.963 26.7713C308.749 18.5828 291.251 18.5827 277.037 26.7713L75.0372 143.145C60.7838 151.356 52 166.554 52 183.004L52 416.999C52 433.449 60.7838 448.646 75.0371 456.858L277.037 573.232C291.251 581.42 308.749 581.42 322.963 573.232L524.963 456.858C539.216 448.646 548 433.449 548 416.999V183.004C548 166.554 539.216 151.356 524.963 143.145ZM327.955 18.1064C310.651 8.13774 289.349 8.13771 272.045 18.1063L70.0452 134.48C52.6933 144.477 42 162.978 42 183.004L42 416.999C42 437.025 52.6933 455.526 70.0452 465.523L272.045 581.896C289.349 591.865 310.651 591.865 327.955 581.897L529.955 465.523C547.307 455.526 558 437.025 558 416.999V183.004C558 162.978 547.307 144.477 529.955 134.48L327.955 18.1064Z" fill="#05060F"/>
<path d="M339.84 268.953C339.84 290.997 322.241 308.867 300.531 308.867C278.822 308.867 261.222 290.997 261.222 268.953C261.222 246.909 278.822 229.039 300.531 229.039C322.241 229.039 339.84 246.909 339.84 268.953Z" fill="#1A80F8"/>
<path fill-rule="evenodd" clip-rule="evenodd" d="M363.639 377.277C345.587 391.725 323.856 399.614 298.856 399.614C239.633 399.614 191.623 350.866 191.623 290.731C191.623 230.597 239.633 181.848 298.856 181.848C358.079 181.848 406.089 230.597 406.089 290.731C406.089 314.849 399.391 335.999 386.365 353.993L420.769 391.241C426.89 397.805 426.531 408.088 419.967 414.208C413.403 420.329 403.121 419.97 397 413.407L363.639 377.277ZM355.967 351.516C370.991 336.511 379.92 315.172 379.92 290.731C379.92 242.999 342.164 207.209 298.856 207.209C255.548 207.209 217.287 242.999 217.287 290.731C217.287 316.132 227.074 338.182 243.316 353.255C247.764 343.466 254.868 334.965 263.933 328.683C274.961 321.043 288.282 317.111 301.849 317.49C315.416 317.87 328.478 322.541 339.029 330.785C346.245 336.424 352.013 343.52 355.967 351.516Z" fill="#1A80F8"/>
</svg>
