<svg width="600" height="600" viewBox="0 0 600 600" fill="none" xmlns="http://www.w3.org/2000/svg">
<g clip-path="url(#clip0_6139_39397)">
<path d="M68.9566 142.758L275.485 20.0927C288.239 12.0851 304.343 11.9623 317.216 19.7744L531.528 142.842C543.608 150.173 551 163.386 551 177.644V414.789C551 429.227 546.423 446.577 534.102 453.847L319.486 580.48C306.987 587.856 291.532 587.839 279.048 580.437L70.824 458.155C58.5451 450.874 51 437.548 51 423.142L50 177.242C50 163.201 57.1701 150.158 68.9566 142.758Z" fill="#FEF5B4"/>
<path d="M311.941 300.167L176.681 517.537L61.9228 453.83C51.5006 448.044 45.1583 436.945 45.465 425.028L48.6797 300.167L311.941 300.167Z" fill="#FDC500"/>
<path d="M278.061 98.1192C291.644 90.3066 308.356 90.3066 321.939 98.1192L463.939 179.798C477.587 187.649 486 202.194 486 217.939V382.062C486 397.807 477.587 412.352 463.939 420.202L321.939 501.881C308.356 509.694 291.644 509.694 278.061 501.881L136.061 420.202C122.413 412.352 114 397.807 114 382.062L114 217.939C114 202.194 122.413 187.649 136.061 179.798L278.061 98.1192Z" fill="white"/>
<path fill-rule="evenodd" clip-rule="evenodd" d="M326.925 89.4509L468.925 171.13C485.675 180.764 496 198.615 496 217.939V382.062C496 401.385 485.675 419.236 468.925 428.87L326.925 510.549C310.255 520.138 289.745 520.138 273.075 510.549L131.075 428.87C114.325 419.236 104 401.385 104 382.062V217.939C104 198.615 114.325 180.765 131.075 171.13L273.075 89.4509C289.745 79.8627 310.255 79.8627 326.925 89.4509ZM321.939 98.1192C308.356 90.3066 291.644 90.3066 278.061 98.1192L136.061 179.798C122.413 187.649 114 202.194 114 217.939L114 382.062C114 397.807 122.413 412.352 136.061 420.202L278.061 501.881C291.644 509.694 308.356 509.694 321.939 501.881L463.939 420.202C477.587 412.352 486 397.807 486 382.062V217.939C486 202.194 477.587 187.649 463.939 179.798L321.939 98.1192Z" fill="#05060F"/>
<path fill-rule="evenodd" clip-rule="evenodd" d="M524.963 143.145L322.963 26.7713C308.749 18.5828 291.251 18.5827 277.037 26.7713L75.0372 143.145C60.7838 151.356 52 166.554 52 183.004L52 416.999C52 433.449 60.7838 448.646 75.0371 456.858L277.037 573.232C291.251 581.42 308.749 581.42 322.963 573.232L524.963 456.858C539.216 448.646 548 433.449 548 416.999V183.004C548 166.554 539.216 151.356 524.963 143.145ZM327.955 18.1064C310.651 8.13774 289.349 8.13771 272.045 18.1063L70.0452 134.48C52.6933 144.477 42 162.978 42 183.004L42 416.999C42 437.025 52.6933 455.526 70.0452 465.523L272.045 581.896C289.349 591.865 310.651 591.865 327.955 581.897L529.955 465.523C547.307 455.526 558 437.025 558 416.999V183.004C558 162.978 547.307 144.477 529.955 134.48L327.955 18.1064Z" fill="#05060F"/>
<path d="M270.484 393.83C270.484 395.862 272.131 397.509 274.163 397.509H328.628C330.66 397.509 332.307 395.862 332.307 393.83V314.726C332.307 312.694 330.66 311.046 328.628 311.046H274.163C272.131 311.046 270.484 312.694 270.484 314.726V393.83Z" fill="#FDC500"/>
<path d="M353.811 393.83C353.811 395.862 355.458 397.509 357.49 397.509H404.882C412.8 397.509 419.218 390.92 419.218 382.792V314.726C419.218 312.694 417.571 311.046 415.539 311.046H357.49C355.458 311.046 353.811 312.694 353.811 314.726V393.83Z" fill="#FDC500"/>
<path d="M415.539 288.971C417.571 288.971 419.218 287.324 419.218 285.292V217.225C419.218 209.097 412.8 202.508 404.882 202.508H274.163C272.131 202.508 270.484 204.155 270.484 206.187V285.292C270.484 287.324 272.131 288.971 274.163 288.971H415.539Z" fill="#FDC500"/>
<path d="M248.98 206.187C248.98 204.155 247.333 202.508 245.301 202.508H195.221C187.303 202.508 180.885 209.097 180.885 217.225V382.792C180.885 390.92 187.303 397.509 195.221 397.509H245.301C247.333 397.509 248.98 395.862 248.98 393.83L248.98 206.187Z" fill="#FDC500"/>
</g>
<defs>
<clipPath id="clip0_6139_39397">
<rect width="600" height="600" fill="white"/>
</clipPath>
</defs>
</svg>
