<svg width="600" height="600" viewBox="0 0 600 600" fill="none" xmlns="http://www.w3.org/2000/svg">
<g clip-path="url(#clip0_6139_39362)">
<path d="M62.5 147L278.735 18.061C291.617 10.0951 307.882 9.97288 320.882 17.7443L535 147C547.2 154.293 555 170.57 555 184.754V420.662C555 435.024 547.347 448.304 534.903 455.536L320.145 578.509C307.521 585.846 291.912 585.829 279.304 578.466L65.0218 459.822C52.6204 452.579 45 439.323 45 424.991V184.354C45 170.386 50.5958 154.361 62.5 147Z" fill="#E5E4FF"/>
<path d="M296 301.5L49.411 301.5L49.4123 159L170.076 82.8329L296 301.5Z" fill="#5627FF"/>
<path d="M278.061 98.1192C291.644 90.3066 308.356 90.3066 321.939 98.1192L463.939 179.798C477.587 187.649 486 202.194 486 217.939V382.062C486 397.807 477.587 412.352 463.939 420.202L321.939 501.881C308.356 509.694 291.644 509.694 278.061 501.881L136.061 420.202C122.413 412.352 114 397.807 114 382.062L114 217.939C114 202.194 122.413 187.649 136.061 179.798L278.061 98.1192Z" fill="white"/>
<path fill-rule="evenodd" clip-rule="evenodd" d="M326.925 89.4509L468.925 171.13C485.675 180.764 496 198.615 496 217.939V382.062C496 401.385 485.675 419.236 468.925 428.87L326.925 510.549C310.255 520.138 289.745 520.138 273.075 510.549L131.075 428.87C114.325 419.236 104 401.385 104 382.062V217.939C104 198.615 114.325 180.765 131.075 171.13L273.075 89.4509C289.745 79.8627 310.255 79.8627 326.925 89.4509ZM321.939 98.1192C308.356 90.3066 291.644 90.3066 278.061 98.1192L136.061 179.798C122.413 187.649 114 202.194 114 217.939L114 382.062C114 397.807 122.413 412.352 136.061 420.202L278.061 501.881C291.644 509.694 308.356 509.694 321.939 501.881L463.939 420.202C477.587 412.352 486 397.807 486 382.062V217.939C486 202.194 477.587 187.649 463.939 179.798L321.939 98.1192Z" fill="#05060F"/>
<path fill-rule="evenodd" clip-rule="evenodd" d="M524.963 143.145L322.963 26.7713C308.749 18.5828 291.251 18.5827 277.037 26.7713L75.0372 143.145C60.7838 151.356 52 166.554 52 183.004L52 416.999C52 433.449 60.7838 448.646 75.0371 456.858L277.037 573.232C291.251 581.42 308.749 581.42 322.963 573.232L524.963 456.858C539.216 448.646 548 433.449 548 416.999V183.004C548 166.554 539.216 151.356 524.963 143.145ZM327.955 18.1064C310.651 8.13774 289.349 8.13771 272.045 18.1063L70.0452 134.48C52.6933 144.477 42 162.978 42 183.004L42 416.999C42 437.025 52.6933 455.526 70.0452 465.523L272.045 581.896C289.349 591.865 310.651 591.865 327.955 581.897L529.955 465.523C547.307 455.526 558 437.025 558 416.999V183.004C558 162.978 547.307 144.477 529.955 134.48L327.955 18.1064Z" fill="#05060F"/>
<path d="M363.539 246.433C363.539 258.41 361.003 269.374 356.247 279.202C350.093 291.919 329.613 282.235 335.388 270.245C338.818 263.124 340.795 254.961 340.795 245.798C338.799 213.24 313.097 193.911 287.142 193.911C256.384 193.911 233.792 218.795 233.792 245.588C233.792 259.519 237.443 269.97 242.944 277.514C258.418 295.816 242.944 310.254 233.181 300.513C219.322 286.683 210.746 267.559 210.746 246.433C210.746 204.24 244.95 170.037 287.142 170.037C329.335 170.037 363.539 204.24 363.539 246.433Z" fill="#5627FF"/>
<path d="M234.725 389.221L330.407 426.873C336.978 429.459 344.397 428.68 350.289 424.786L371.712 410.626C380.815 404.609 386.29 394.425 386.29 383.513V346.515C386.29 333.562 378.599 321.846 366.715 316.695L318.969 296.001C315.558 294.523 313.143 291.399 312.572 287.726L304.43 235.349C303.001 226.156 295.086 219.377 285.783 219.377C275.361 219.377 266.913 227.825 266.913 238.247L266.913 329.162C266.913 335.145 262.063 339.995 256.08 339.995H242.658C230.692 339.995 220.992 349.696 220.992 361.662V369.059C220.992 377.963 226.439 385.961 234.725 389.221Z" fill="#5627FF"/>
</g>
<defs>
<clipPath id="clip0_6139_39362">
<rect width="600" height="600" fill="white"/>
</clipPath>
</defs>
</svg>
