<svg width="600" height="600" viewBox="0 0 600 600" fill="none" xmlns="http://www.w3.org/2000/svg">
<g clip-path="url(#clip0_6139_39376)">
<path d="M68.9566 143.758L278.485 22.0927C291.239 14.0851 307.343 13.9623 320.216 21.7744L531.528 142.842C543.608 150.173 551 167.386 551 181.644V418.789C551 433.227 543.423 449.577 531.102 456.847L319.486 579.48C306.987 586.856 291.532 586.839 279.048 579.437L69.824 458.155C57.5451 450.874 50 437.548 50 423.142V181.242C50 167.201 57.1701 151.158 68.9566 143.758Z" fill="#CFFCD2"/>
<path d="M294.731 303.797L429.5 83.9999L554.349 161.626L554.349 303.797L294.731 303.797Z" fill="#3DBC4A"/>
<path d="M278.061 98.1192C291.644 90.3066 308.356 90.3066 321.939 98.1192L463.939 179.798C477.587 187.649 486 202.194 486 217.939V382.062C486 397.807 477.587 412.352 463.939 420.202L321.939 501.881C308.356 509.694 291.644 509.694 278.061 501.881L136.061 420.202C122.413 412.352 114 397.807 114 382.062L114 217.939C114 202.194 122.413 187.649 136.061 179.798L278.061 98.1192Z" fill="white"/>
<path fill-rule="evenodd" clip-rule="evenodd" d="M326.925 89.4509L468.925 171.13C485.675 180.764 496 198.615 496 217.939V382.062C496 401.385 485.675 419.236 468.925 428.87L326.925 510.549C310.255 520.138 289.745 520.138 273.075 510.549L131.075 428.87C114.325 419.236 104 401.385 104 382.062V217.939C104 198.615 114.325 180.765 131.075 171.13L273.075 89.4509C289.745 79.8627 310.255 79.8627 326.925 89.4509ZM321.939 98.1192C308.356 90.3066 291.644 90.3066 278.061 98.1192L136.061 179.798C122.413 187.649 114 202.194 114 217.939L114 382.062C114 397.807 122.413 412.352 136.061 420.202L278.061 501.881C291.644 509.694 308.356 509.694 321.939 501.881L463.939 420.202C477.587 412.352 486 397.807 486 382.062V217.939C486 202.194 477.587 187.649 463.939 179.798L321.939 98.1192Z" fill="#05060F"/>
<path fill-rule="evenodd" clip-rule="evenodd" d="M524.963 143.145L322.963 26.7713C308.749 18.5828 291.251 18.5827 277.037 26.7713L75.0372 143.145C60.7838 151.356 52 166.554 52 183.004L52 416.999C52 433.449 60.7838 448.646 75.0371 456.858L277.037 573.232C291.251 581.42 308.749 581.42 322.963 573.232L524.963 456.858C539.216 448.646 548 433.449 548 416.999V183.004C548 166.554 539.216 151.356 524.963 143.145ZM327.955 18.1064C310.651 8.13774 289.349 8.13771 272.045 18.1063L70.0452 134.48C52.6933 144.477 42 162.978 42 183.004L42 416.999C42 437.025 52.6933 455.526 70.0452 465.523L272.045 581.896C289.349 591.865 310.651 591.865 327.955 581.897L529.955 465.523C547.307 455.526 558 437.025 558 416.999V183.004C558 162.978 547.307 144.477 529.955 134.48L327.955 18.1064Z" fill="#05060F"/>
<path fill-rule="evenodd" clip-rule="evenodd" d="M213.393 212.326C213.393 200.36 223.093 190.66 235.059 190.66H323.585C329.331 190.66 334.842 192.942 338.905 197.006L380.38 238.48C384.443 242.544 386.726 248.055 386.726 253.801V385.66C386.726 397.626 377.025 407.326 365.059 407.326H235.059C223.093 407.326 213.393 397.626 213.393 385.66V212.326ZM256.726 255.66C250.743 255.66 245.893 260.51 245.893 266.493C245.893 272.476 250.743 277.326 256.726 277.326H278.393C284.376 277.326 289.226 272.476 289.226 266.493C289.226 260.51 284.376 255.66 278.393 255.66H256.726ZM245.893 309.826C245.893 303.843 250.743 298.993 256.726 298.993H300.059C306.042 298.993 310.893 303.843 310.893 309.826C310.893 315.809 306.042 320.66 300.059 320.66H256.726C250.743 320.66 245.893 315.809 245.893 309.826ZM245.893 353.16C245.893 347.177 250.743 342.326 256.726 342.326H321.726C327.709 342.326 332.559 347.177 332.559 353.16C332.559 359.143 327.709 363.993 321.726 363.993H256.726C250.743 363.993 245.893 359.143 245.893 353.16Z" fill="#3DBC4A"/>
</g>
<defs>
<clipPath id="clip0_6139_39376">
<rect width="600" height="600" fill="white"/>
</clipPath>
</defs>
</svg>
