<svg width="600" height="600" viewBox="0 0 600 600" fill="none" xmlns="http://www.w3.org/2000/svg">
<g clip-path="url(#clip0_6139_39383)">
<path d="M68.9566 145.342L277.485 22.0292C290.239 14.1051 306.343 13.9835 319.216 21.7142L535.528 144.424C547.608 151.679 555 164.754 555 178.864V418.534C555 432.821 547.423 446.032 535.102 453.225L318.486 578.538C305.987 585.836 290.532 585.82 278.048 578.495L69.824 457.489C57.5451 450.284 50 437.097 50 422.841V179.466C50 165.571 57.1701 152.664 68.9566 145.342Z" fill="#FFE0E0"/>
<path d="M300.043 294.891L553.002 298.5L553.002 426.833C553.002 437.333 547.512 447.07 538.527 452.504L434.622 515.34L300.043 294.891Z" fill="#E93C3C"/>
<path d="M278.061 98.1192C291.644 90.3066 308.356 90.3066 321.939 98.1192L463.939 179.798C477.587 187.649 486 202.194 486 217.939V382.062C486 397.807 477.587 412.352 463.939 420.202L321.939 501.881C308.356 509.694 291.644 509.694 278.061 501.881L136.061 420.202C122.413 412.352 114 397.807 114 382.062L114 217.939C114 202.194 122.413 187.649 136.061 179.798L278.061 98.1192Z" fill="white"/>
<path fill-rule="evenodd" clip-rule="evenodd" d="M326.925 89.4509L468.925 171.13C485.675 180.764 496 198.615 496 217.939V382.062C496 401.385 485.675 419.236 468.925 428.87L326.925 510.549C310.255 520.138 289.745 520.138 273.075 510.549L131.075 428.87C114.325 419.236 104 401.385 104 382.062V217.939C104 198.615 114.325 180.765 131.075 171.13L273.075 89.4509C289.745 79.8627 310.255 79.8627 326.925 89.4509ZM321.939 98.1192C308.356 90.3066 291.644 90.3066 278.061 98.1192L136.061 179.798C122.413 187.649 114 202.194 114 217.939L114 382.062C114 397.807 122.413 412.352 136.061 420.202L278.061 501.881C291.644 509.694 308.356 509.694 321.939 501.881L463.939 420.202C477.587 412.352 486 397.807 486 382.062V217.939C486 202.194 477.587 187.649 463.939 179.798L321.939 98.1192Z" fill="#05060F"/>
<path fill-rule="evenodd" clip-rule="evenodd" d="M524.963 143.145L322.963 26.7713C308.749 18.5828 291.251 18.5827 277.037 26.7713L75.0372 143.145C60.7838 151.356 52 166.554 52 183.004L52 416.999C52 433.449 60.7838 448.646 75.0371 456.858L277.037 573.232C291.251 581.42 308.749 581.42 322.963 573.232L524.963 456.858C539.216 448.646 548 433.449 548 416.999V183.004C548 166.554 539.216 151.356 524.963 143.145ZM327.955 18.1064C310.651 8.13774 289.349 8.13771 272.045 18.1063L70.0452 134.48C52.6933 144.477 42 162.978 42 183.004L42 416.999C42 437.025 52.6933 455.526 70.0452 465.523L272.045 581.896C289.349 591.865 310.651 591.865 327.955 581.897L529.955 465.523C547.307 455.526 558 437.025 558 416.999V183.004C558 162.978 547.307 144.477 529.955 134.48L327.955 18.1064Z" fill="#05060F"/>
<path d="M310.84 183.083C310.84 176.882 305.993 171.855 300.014 171.855C294.035 171.855 289.188 176.882 289.188 183.083V200.697C289.188 206.897 294.035 211.924 300.014 211.924C305.993 211.924 310.84 206.897 310.84 200.697V183.083Z" fill="#E93C3C"/>
<path d="M335.554 270.444C335.554 290.082 319.635 306.001 299.997 306.001C280.36 306.001 264.441 290.082 264.441 270.444C264.441 250.807 280.36 234.888 299.997 234.888C319.635 234.888 335.554 250.807 335.554 270.444Z" fill="#E93C3C"/>
<path d="M299.998 319.007C271.072 319.007 253.726 329.774 243.931 344.089C234.464 357.924 232.957 373.782 232.927 382.557C232.896 391.38 239.952 397.139 247.186 397.139H352.809C360.043 397.139 367.099 391.38 367.069 382.557C367.038 373.782 365.531 357.924 356.064 344.089C346.27 329.774 328.923 319.007 299.998 319.007Z" fill="#E93C3C"/>
<path d="M254.756 286.025C254.756 302.243 241.609 315.39 225.391 315.39C209.173 315.39 196.026 302.243 196.026 286.025C196.026 269.807 209.173 256.66 225.391 256.66C241.609 256.66 254.756 269.807 254.756 286.025Z" fill="#E93C3C"/>
<path d="M231.763 337.87C234.278 334.195 237.201 330.713 240.578 327.505C236.007 326.614 230.959 326.131 225.391 326.131C201.503 326.131 187.177 335.023 179.088 346.845C171.27 358.271 170.025 371.367 170 378.614C169.975 385.901 175.802 390.657 181.776 390.657H219.313C218.699 388.835 218.362 386.838 218.369 384.691C218.406 374.011 220.241 354.71 231.763 337.87Z" fill="#E93C3C"/>
<path d="M380.699 390.657C381.313 388.835 381.65 386.838 381.643 384.691C381.606 374.011 379.771 354.71 368.249 337.87C365.734 334.194 362.81 330.711 359.431 327.502C363.998 326.613 369.042 326.131 374.604 326.131C398.492 326.131 412.818 335.023 420.907 346.845C428.725 358.271 429.97 371.367 429.995 378.614C430.02 385.901 424.193 390.657 418.219 390.657H380.699Z" fill="#E93C3C"/>
<path d="M374.603 315.39C390.821 315.39 403.968 302.243 403.968 286.025C403.968 269.807 390.821 256.66 374.603 256.66C358.386 256.66 345.239 269.807 345.239 286.025C345.239 302.243 358.386 315.39 374.603 315.39Z" fill="#E93C3C"/>
<path d="M359.738 194.642C363.965 198.87 363.838 205.851 359.454 210.236L346.999 222.691C342.614 227.075 335.633 227.202 331.405 222.974C327.177 218.747 327.304 211.765 331.689 207.38L344.144 194.926C348.528 190.541 355.51 190.414 359.738 194.642Z" fill="#E93C3C"/>
<path d="M255.89 194.927C251.505 190.542 244.524 190.415 240.296 194.643C236.068 198.87 236.195 205.852 240.58 210.237L253.035 222.692C257.419 227.076 264.401 227.203 268.629 222.975C272.856 218.748 272.729 211.766 268.345 207.381L255.89 194.927Z" fill="#E93C3C"/>
</g>
<defs>
<clipPath id="clip0_6139_39383">
<rect width="600" height="600" fill="white"/>
</clipPath>
</defs>
</svg>
