<svg width="600" height="600" viewBox="0 0 600 600" fill="none" xmlns="http://www.w3.org/2000/svg">
<path d="M65.9566 146.758L280.485 19.0927C293.239 11.0851 309.343 10.9623 322.216 18.7744L533.528 146.842C545.608 154.173 553 167.386 553 181.644V418.789C553 433.227 545.423 446.577 533.102 453.847L316.486 580.48C303.987 587.856 288.532 587.839 276.048 580.437L66.824 458.155C54.5451 450.874 47 437.548 47 423.142V181.242C47 167.201 54.1701 154.158 65.9566 146.758Z" fill="#FEDFC2"/>
<path d="M297.651 289.503L427.5 517.724L312.981 581.767C303.21 587.568 291.001 587.351 281.442 581.207L166.469 518.724L297.651 289.503Z" fill="#FF6F2C"/>
<path d="M278.061 98.1192C291.644 90.3066 308.356 90.3066 321.939 98.1192L463.939 179.798C477.587 187.649 486 202.194 486 217.939V382.062C486 397.807 477.587 412.352 463.939 420.202L321.939 501.881C308.356 509.694 291.644 509.694 278.061 501.881L136.061 420.202C122.413 412.352 114 397.807 114 382.062L114 217.939C114 202.194 122.413 187.649 136.061 179.798L278.061 98.1192Z" fill="white"/>
<path fill-rule="evenodd" clip-rule="evenodd" d="M326.925 89.4509L468.925 171.13C485.675 180.764 496 198.615 496 217.939V382.062C496 401.385 485.675 419.236 468.925 428.87L326.925 510.549C310.255 520.138 289.745 520.138 273.075 510.549L131.075 428.87C114.325 419.236 104 401.385 104 382.062V217.939C104 198.615 114.325 180.765 131.075 171.13L273.075 89.4509C289.745 79.8627 310.255 79.8627 326.925 89.4509ZM321.939 98.1192C308.356 90.3066 291.644 90.3066 278.061 98.1192L136.061 179.798C122.413 187.649 114 202.194 114 217.939L114 382.062C114 397.807 122.413 412.352 136.061 420.202L278.061 501.881C291.644 509.694 308.356 509.694 321.939 501.881L463.939 420.202C477.587 412.352 486 397.807 486 382.062V217.939C486 202.194 477.587 187.649 463.939 179.798L321.939 98.1192Z" fill="#05060F"/>
<path fill-rule="evenodd" clip-rule="evenodd" d="M524.963 143.145L322.963 26.7713C308.749 18.5828 291.251 18.5827 277.037 26.7713L75.0372 143.145C60.7838 151.356 52 166.554 52 183.004L52 416.999C52 433.449 60.7838 448.646 75.0371 456.858L277.037 573.232C291.251 581.42 308.749 581.42 322.963 573.232L524.963 456.858C539.216 448.646 548 433.449 548 416.999V183.004C548 166.554 539.216 151.356 524.963 143.145ZM327.955 18.1064C310.651 8.13774 289.349 8.13771 272.045 18.1063L70.0452 134.48C52.6933 144.477 42 162.978 42 183.004L42 416.999C42 437.025 52.6933 455.526 70.0452 465.523L272.045 581.896C289.349 591.865 310.651 591.865 327.955 581.897L529.955 465.523C547.307 455.526 558 437.025 558 416.999V183.004C558 162.978 547.307 144.477 529.955 134.48L327.955 18.1064Z" fill="#05060F"/>
<path fill-rule="evenodd" clip-rule="evenodd" d="M252.181 218.364C221.887 214.01 197.66 219.806 188.078 236.402C178.497 252.997 185.59 276.875 204.506 300.933C185.593 324.989 178.502 348.864 188.083 365.458C197.664 382.052 221.888 387.849 252.181 383.497C263.558 411.906 280.69 429.986 299.851 429.986C319.012 429.986 336.144 411.906 347.521 383.498C377.808 387.847 402.028 382.05 411.608 365.457C421.188 348.864 414.098 324.989 395.186 300.933C414.101 276.875 421.194 252.997 411.613 236.403C402.032 219.809 377.81 214.012 347.521 218.363C336.144 189.955 319.012 171.875 299.851 171.875C280.69 171.875 263.558 189.955 252.181 218.364ZM244.796 241.446C242.825 249.327 241.233 257.684 240.072 266.413C233.09 271.786 226.645 277.345 220.802 282.995C220.025 281.937 219.28 280.886 218.566 279.841C205.309 260.429 207.349 250.69 208.718 248.319C210.088 245.947 217.502 239.311 240.942 241.086C242.205 241.182 243.49 241.302 244.796 241.446ZM275.864 223.51C283.674 225.744 291.707 228.544 299.846 231.903C307.989 228.543 316.025 225.742 323.838 223.507C323.311 222.307 322.774 221.137 322.227 219.999C312.044 198.811 302.59 195.709 299.851 195.709C297.113 195.709 287.658 198.811 277.476 219.999C276.928 221.138 276.391 222.309 275.864 223.51ZM299.846 257.921C293.552 260.846 287.165 264.156 280.753 267.857C274.342 271.558 268.284 275.434 262.604 279.423C261.989 286.338 261.662 293.526 261.662 300.931C261.662 308.336 261.99 315.525 262.604 322.44C268.282 326.427 274.34 330.302 280.749 334.002C287.162 337.705 293.55 341.015 299.846 343.941C306.142 341.015 312.53 337.705 318.942 334.003C325.356 330.3 331.417 326.422 337.099 322.432C337.713 315.519 338.041 308.333 338.041 300.931C338.041 293.528 337.713 286.343 337.099 279.431C331.416 275.439 325.353 271.56 318.938 267.857C312.527 264.155 306.14 260.846 299.846 257.921ZM378.889 282.995C373.05 277.348 366.609 271.792 359.632 266.422C358.47 257.69 356.878 249.329 354.907 241.445C356.209 241.302 357.49 241.182 358.749 241.087C382.189 239.311 389.603 245.948 390.972 248.319C392.342 250.691 394.382 260.43 381.125 279.842C380.411 280.886 379.666 281.938 378.889 282.995ZM378.888 318.87C373.05 324.516 366.609 330.072 359.632 335.441C358.47 344.172 356.878 352.532 354.907 360.415C356.207 360.558 357.487 360.678 358.745 360.773C382.185 362.549 389.599 355.912 390.968 353.54C392.337 351.169 394.378 341.43 381.12 322.018C380.408 320.975 379.664 319.926 378.888 318.87ZM220.803 318.87C226.645 324.519 233.09 330.078 240.072 335.45C241.234 344.178 242.825 352.534 244.795 360.414C243.491 360.558 242.208 360.678 240.946 360.774C217.506 362.549 210.092 355.913 208.723 353.541C207.354 351.17 205.313 341.431 218.571 322.019C219.283 320.976 220.027 319.926 220.803 318.87ZM299.846 369.959C307.989 373.318 316.025 376.119 323.838 378.354C323.311 379.554 322.774 380.724 322.227 381.863C312.044 403.05 302.59 406.152 299.851 406.152C297.113 406.152 287.658 403.05 277.476 381.863C276.928 380.723 276.391 379.552 275.864 378.351C283.674 376.117 291.706 373.317 299.846 369.959Z" fill="#FF6F2C"/>
</svg>
