<svg width="600" height="600" viewBox="0 0 600 600" fill="none" xmlns="http://www.w3.org/2000/svg">
<rect width="600" height="600" fill="#E0EDFE"/>
<path d="M425.177 201.84C348.135 157.364 247.644 134.381 146.499 187C133.79 192 136.053 205.5 135.5 222.5C134.707 246.883 154.236 244.813 219.512 257.444C285.996 270.308 171.365 248.573 125 257.444C117.5 255.444 121.402 331.67 125 340.238C133.911 361.454 151.038 376.634 181.231 394.065C258.273 438.541 374.026 443.829 439.786 405.866C485.189 379.655 483.5 339.749 483.5 276C483.5 236.662 460.701 222.349 425.177 201.84ZM252.773 334.708C239.326 338.937 218.862 332.273 207.061 319.82C195.252 307.373 196.57 293.861 210.026 289.628C223.473 285.399 243.937 292.063 255.73 304.52C267.546 316.963 266.228 330.475 252.773 334.708Z" fill="#B04B1B"/>
<path fill-rule="evenodd" clip-rule="evenodd" d="M419.338 187.566C342.296 143.09 226.535 137.807 160.791 175.761C152.565 180.509 145.509 185.71 139.622 191.266C127 209 154.237 209.762 219.513 222.392C285.997 235.257 188.648 240.211 142.282 249.082C128.025 251.81 120.485 255.996 123 265.5C131.911 286.717 151.039 307.593 181.232 325.024C258.274 369.5 374.027 374.788 439.787 336.825C505.53 298.871 496.379 232.042 419.338 187.566ZM252.774 309.216C239.326 313.445 218.863 306.781 207.062 294.328C195.253 281.88 196.571 268.369 210.026 264.135C223.474 259.907 243.938 266.571 255.731 279.027C267.547 291.471 266.229 304.983 252.774 309.216Z" fill="#E8A840"/>
<path d="M323.312 211.375C336.188 218.808 357.062 218.808 369.938 211.375C382.813 203.943 382.813 191.891 369.938 184.458C357.063 177.026 336.187 177.026 323.312 184.458C310.437 191.891 310.437 203.943 323.312 211.375Z" fill="#3ACCFA"/>
<path d="M391.312 250.375C404.188 257.808 425.062 257.808 437.938 250.375C450.813 242.943 450.813 230.891 437.938 223.458C425.063 216.026 404.187 216.026 391.312 223.458C378.437 230.891 378.437 242.943 391.312 250.375Z" fill="#42DD51"/>
<path d="M392.312 308.375C405.188 315.808 426.062 315.808 438.938 308.375C451.813 300.943 451.813 288.891 438.938 281.458C426.063 274.026 405.187 274.026 392.312 281.458C379.437 288.891 379.437 300.943 392.312 308.375Z" fill="#FFE144"/>
<path d="M300.312 334.375C313.188 341.808 334.062 341.808 346.938 334.375C359.813 326.943 359.813 314.891 346.938 307.458C334.063 300.026 313.187 300.026 300.312 307.458C287.437 314.891 287.437 326.943 300.312 334.375Z" fill="#E93C3C"/>
<path d="M230.312 206.375C243.188 213.808 264.062 213.808 276.938 206.375C289.813 198.943 289.813 186.891 276.938 179.458C264.063 172.026 243.187 172.026 230.312 179.458C217.437 186.891 217.437 198.943 230.312 206.375Z" fill="#664EFF"/>
</svg>
