<svg width="600" height="600" viewBox="0 0 600 600" fill="none" xmlns="http://www.w3.org/2000/svg">
<path d="M563 201C563 282.738 496.738 349 415 349C333.262 349 267 282.738 267 201C267 119.262 333.262 53 415 53C496.738 53 563 119.262 563 201Z" fill="#F8DB46"/>
<path fill-rule="evenodd" clip-rule="evenodd" d="M415 58C336.023 58 272 122.023 272 201C272 279.977 336.023 344 415 344C493.977 344 558 279.977 558 201C558 122.023 493.977 58 415 58ZM262 201C262 116.5 330.5 48 415 48C499.5 48 568 116.5 568 201C568 285.5 499.5 354 415 354C330.5 354 262 285.5 262 201Z" fill="#05060F"/>
<path d="M333 201C333 282.738 266.738 349 185 349C103.262 349 37 282.738 37 201C37 119.262 103.262 53 185 53C266.738 53 333 119.262 333 201Z" fill="#664EFF"/>
<path fill-rule="evenodd" clip-rule="evenodd" d="M185 58C106.023 58 42 122.023 42 201C42 279.977 106.023 344 185 344C263.977 344 328 279.977 328 201C328 122.023 263.977 58 185 58ZM32 201C32 116.5 100.5 48 185 48C269.5 48 338 116.5 338 201C338 285.5 269.5 354 185 354C100.5 354 32 285.5 32 201Z" fill="#05060F"/>
<path d="M178.119 172.363C178.119 171.259 179.015 170.363 180.119 170.363H188.728C189.832 170.363 190.728 171.259 190.728 172.363V209.092C190.728 213.44 189.689 217.245 187.612 220.507C185.554 223.768 182.671 226.311 178.964 228.136C175.256 229.941 170.936 230.844 166.006 230.844C161.055 230.844 156.726 229.941 153.018 228.136C149.31 226.311 146.428 223.768 144.37 220.507C142.312 217.245 141.283 213.44 141.283 209.092V172.363C141.283 171.259 142.179 170.363 143.283 170.363H151.892C152.996 170.363 153.892 171.259 153.892 172.363V208.015C153.892 210.286 154.387 212.305 155.377 214.071C156.386 215.838 157.804 217.226 159.628 218.235C161.453 219.245 163.579 219.75 166.006 219.75C168.452 219.75 170.577 219.245 172.383 218.235C174.207 217.226 175.615 215.838 176.605 214.071C177.614 212.305 178.119 210.286 178.119 208.015V172.363Z" fill="white"/>
<path d="M211.71 170.363C212.815 170.363 213.71 171.259 213.71 172.363V228C213.71 229.104 212.815 230 211.71 230H203.102C201.997 230 201.102 229.104 201.102 228V172.363C201.102 171.259 201.997 170.363 203.102 170.363H211.71Z" fill="white"/>
<path fill-rule="evenodd" clip-rule="evenodd" d="M300.356 295.7C321.56 269.918 334.291 236.904 334.291 200.917C334.291 164.93 321.56 131.917 300.356 106.135C279.152 131.917 266.421 164.93 266.421 200.917C266.421 236.904 279.152 269.918 300.356 295.7Z" fill="#F8DB46"/>
<path fill-rule="evenodd" clip-rule="evenodd" d="M300.356 98.2637L304.218 102.959C326.131 129.603 339.291 163.73 339.291 200.918C339.291 238.105 326.131 272.232 304.218 298.876L300.356 303.572L296.494 298.876C274.581 272.232 261.421 238.105 261.421 200.918C261.421 163.73 274.581 129.603 296.494 102.959L300.356 98.2637ZM300.356 114.218C282.187 138.357 271.421 168.374 271.421 200.918C271.421 233.461 282.187 263.478 300.356 287.617C318.525 263.478 329.291 233.461 329.291 200.918C329.291 168.374 318.525 138.357 300.356 114.218Z" fill="#05060F"/>
<path d="M421.959 189.019C422.187 190.194 421.251 191.242 420.054 191.242H411.287C410.29 191.242 409.464 190.502 409.206 189.54C408.945 188.565 408.584 187.667 408.123 186.845C407.404 185.544 406.482 184.438 405.356 183.525C404.23 182.613 402.93 181.914 401.454 181.429C399.998 180.943 398.416 180.701 396.708 180.701C393.621 180.701 390.932 181.467 388.642 183.001C386.351 184.515 384.575 186.728 383.313 189.64C382.051 192.533 381.42 196.046 381.42 200.181C381.42 204.433 382.051 208.005 383.313 210.897C384.594 213.79 386.38 215.974 388.671 217.449C390.962 218.925 393.611 219.662 396.62 219.662C398.309 219.662 399.872 219.439 401.309 218.992C402.765 218.546 404.056 217.896 405.181 217.041C406.307 216.168 407.239 215.11 407.977 213.867C408.466 213.065 408.857 212.19 409.152 211.242C409.44 210.317 410.255 209.619 411.224 209.624L420.058 209.664C421.254 209.669 422.185 210.719 421.924 211.886C421.488 213.841 420.789 215.743 419.828 217.595C418.528 220.118 416.771 222.38 414.558 224.38C412.364 226.36 409.743 227.932 406.696 229.097C403.667 230.242 400.241 230.815 396.417 230.815C391.097 230.815 386.341 229.611 382.148 227.204C377.974 224.797 374.674 221.312 372.248 216.75C369.84 212.188 368.637 206.665 368.637 200.181C368.637 193.678 369.86 188.145 372.306 183.583C374.752 179.021 378.071 175.546 382.265 173.159C386.458 170.751 391.175 169.548 396.417 169.548C399.872 169.548 403.075 170.033 406.026 171.004C408.996 171.974 411.627 173.392 413.917 175.255C416.208 177.099 418.072 179.361 419.508 182.04C420.644 184.13 421.461 186.456 421.959 189.019Z" fill="#05060F"/>
<path d="M440.746 170.363C441.453 170.363 442.107 170.736 442.467 171.345L453.794 190.488C453.867 190.612 454.001 190.688 454.146 190.688C454.29 190.688 454.424 190.612 454.497 190.488L465.882 171.341C466.242 170.735 466.895 170.363 467.601 170.363H477.139C478.7 170.363 479.659 172.072 478.846 173.405L463.146 199.128C462.752 199.774 462.756 200.587 463.156 201.229L479.201 226.941C480.033 228.273 479.075 230 477.505 230H467.74C467.038 230 466.387 229.631 466.026 229.03L454.499 209.845C454.424 209.721 454.29 209.645 454.146 209.645C454.001 209.645 453.867 209.721 453.793 209.845L442.265 229.03C441.904 229.631 441.253 230 440.551 230H430.851C429.279 230 428.322 228.27 429.156 226.938L445.247 201.233C445.65 200.589 445.653 199.772 445.256 199.125L429.46 173.41C428.642 172.077 429.601 170.363 431.164 170.363H440.746Z" fill="#05060F"/>
<path d="M448 400C448 481.738 381.29 548 299 548C216.71 548 150 481.738 150 400C150 318.262 216.71 252 299 252C381.29 252 448 318.262 448 400Z" fill="white"/>
<path fill-rule="evenodd" clip-rule="evenodd" d="M299 257C219.439 257 155 321.055 155 400C155 478.945 219.439 543 299 543C378.561 543 443 478.945 443 400C443 321.055 378.561 257 299 257ZM145 400C145 315.469 213.98 247 299 247C384.02 247 453 315.469 453 400C453 484.531 384.02 553 299 553C213.98 553 145 484.531 145 400Z" fill="#05060F"/>
<path fill-rule="evenodd" clip-rule="evenodd" d="M324.82 253.365C303.586 309.956 248.985 350.232 184.977 350.232C176.171 350.232 167.543 349.47 159.155 348.007C180.39 291.416 234.991 251.141 298.999 251.141C307.805 251.141 316.433 251.903 324.82 253.365Z" fill="white"/>
<path fill-rule="evenodd" clip-rule="evenodd" d="M166.137 344.014C172.301 344.817 178.589 345.232 184.977 345.232C244.643 345.232 295.864 309.02 317.838 257.359C311.674 256.555 305.386 256.141 298.999 256.141C239.332 256.141 188.112 292.353 166.137 344.014ZM154.474 346.251C176.417 287.773 232.84 246.141 298.999 246.141C308.094 246.141 317.009 246.928 325.679 248.439L331.62 249.475L329.501 255.122C307.559 313.6 251.136 355.232 184.977 355.232C175.882 355.232 166.967 354.444 158.297 352.933L152.355 351.897L154.474 346.251Z" fill="#05060F"/>
<path fill-rule="evenodd" clip-rule="evenodd" d="M275.734 252.942C283.315 251.756 291.085 251.141 298.999 251.141C363.166 251.141 417.88 291.617 439 348.43C431.419 349.616 423.649 350.232 415.736 350.232C351.568 350.232 296.855 309.756 275.734 252.942Z" fill="white"/>
<path fill-rule="evenodd" clip-rule="evenodd" d="M282.741 257.046C304.641 308.873 355.948 345.232 415.736 345.232C421.233 345.232 426.658 344.925 431.993 344.327C410.093 292.499 358.786 256.141 298.998 256.141C293.501 256.141 288.076 256.448 282.741 257.046ZM274.961 248.002C282.797 246.777 290.825 246.141 298.998 246.141C365.322 246.141 421.862 287.98 443.686 346.688L445.819 352.424L439.773 353.37C431.937 354.596 423.909 355.232 415.736 355.232C349.412 355.232 292.872 313.393 271.048 254.685L268.915 248.948L274.961 248.002Z" fill="#05060F"/>
<path fill-rule="evenodd" clip-rule="evenodd" d="M324.725 253.348C324.009 253.223 323.29 253.104 322.571 252.99C314.892 251.772 307.019 251.14 298.998 251.14C291.085 251.14 283.315 251.755 275.734 252.941C281.557 268.603 289.933 283.024 300.356 295.697C305.822 289.05 310.726 281.923 314.993 274.388C316.933 270.962 318.741 267.453 320.411 263.866C322.009 260.434 323.48 256.932 324.819 253.364C324.788 253.359 324.756 253.353 324.725 253.348Z" fill="#F8DB46"/>
<path fill-rule="evenodd" clip-rule="evenodd" d="M282.741 257.045C287.366 267.988 293.303 278.244 300.355 287.614C304.111 282.625 307.55 277.385 310.642 271.924C312.517 268.613 314.264 265.222 315.878 261.756C316.555 260.303 317.208 258.836 317.837 257.358C311.673 256.554 305.385 256.14 298.998 256.14C293.5 256.14 288.076 256.447 282.741 257.045ZM325.58 248.421L331.619 249.474L329.5 255.121C328.116 258.809 326.595 262.429 324.944 265.977C323.218 269.684 321.349 273.311 319.344 276.851C314.933 284.639 309.866 292.005 304.217 298.873L300.355 303.569L296.494 298.873C285.724 285.778 277.067 270.874 271.048 254.684L268.915 248.947L274.961 248.001C282.797 246.776 290.825 246.14 298.998 246.14C307.282 246.14 315.417 246.793 323.354 248.052C324.098 248.17 324.84 248.293 325.58 248.421Z" fill="#05060F"/>
<path d="M282.302 376.363C282.302 375.259 283.197 374.363 284.302 374.363H292.91C294.015 374.363 294.91 375.259 294.91 376.363V413.092C294.91 417.44 293.872 421.245 291.795 424.507C289.737 427.768 286.854 430.311 283.146 432.136C279.438 433.941 275.119 434.844 270.188 434.844C265.238 434.844 260.909 433.941 257.201 432.136C253.493 430.311 250.61 427.768 248.552 424.507C246.495 421.245 245.466 417.44 245.466 413.092V376.363C245.466 375.259 246.361 374.363 247.466 374.363H256.074C257.179 374.363 258.074 375.259 258.074 376.363V412.015C258.074 414.286 258.57 416.305 259.56 418.071C260.569 419.838 261.986 421.226 263.811 422.235C265.636 423.245 267.762 423.75 270.188 423.75C272.634 423.75 274.76 423.245 276.565 422.235C278.39 421.226 279.797 419.838 280.788 418.071C281.797 416.305 282.302 414.286 282.302 412.015V376.363Z" fill="#05060F"/>
<path d="M315.966 374.363C316.673 374.363 317.327 374.736 317.687 375.345L329.014 394.488C329.088 394.612 329.222 394.689 329.366 394.689C329.51 394.689 329.644 394.613 329.718 394.489L341.102 375.341C341.462 374.735 342.116 374.363 342.821 374.363H352.359C353.92 374.363 354.879 376.073 354.066 377.405L338.366 403.128C337.972 403.774 337.976 404.587 338.377 405.229L354.422 430.941C355.253 432.273 354.295 434 352.725 434H342.96C342.258 434 341.608 433.632 341.246 433.03L329.719 413.845C329.644 413.721 329.51 413.645 329.366 413.645C329.221 413.645 329.087 413.721 329.013 413.845L317.486 433.03C317.124 433.632 316.473 434 315.771 434H306.071C304.5 434 303.542 432.271 304.376 430.938L320.467 405.233C320.87 404.589 320.874 403.772 320.476 403.125L304.681 377.41C303.862 376.077 304.821 374.363 306.385 374.363H315.966Z" fill="#05060F"/>
</svg>
