<svg width="600" height="600" viewBox="0 0 600 600" fill="none" xmlns="http://www.w3.org/2000/svg">
<g clip-path="url(#clip0_6139_39350)">
<path d="M315.26 292.814L177 524L48.2849 446.75L48.2849 301L315.26 292.814Z" fill="#F8DB46"/>
<path d="M293.725 292.811L168.85 81.8147L288.904 16.9417C295.266 13.1329 303.213 13.1566 309.552 17.0031L431.5 83.9998L293.725 292.811Z" fill="#4497F9"/>
<path d="M306.651 288.503L435.832 512.417L313.981 583.766C304.21 589.568 292.001 589.351 282.442 583.206L165.5 519.5L306.651 288.503Z" fill="#FF6F2C"/>
<path d="M297.042 288.891L549.999 288.891L550 441.999L430.502 516.499L297.042 288.891Z" fill="#E93C3C"/>
<path d="M293.732 300.797L428.503 82.9997L534.472 140.293C546.103 146.581 553.35 158.739 553.35 171.961L553.35 300.797L293.732 300.797Z" fill="#4DC959"/>
<path d="M299 301.5L46.9615 301.5L46.9613 168.398C46.9613 158.903 52.1369 150.163 60.4626 145.599L171.001 84.9997L299 301.5Z" fill="#5627FF"/>
<path d="M278.061 98.1192C291.644 90.3066 308.356 90.3066 321.939 98.1192L463.939 179.798C477.587 187.649 486 202.194 486 217.939V382.062C486 397.807 477.587 412.352 463.939 420.202L321.939 501.881C308.356 509.694 291.644 509.694 278.061 501.881L136.061 420.202C122.413 412.352 114 397.807 114 382.062L114 217.939C114 202.194 122.413 187.649 136.061 179.798L278.061 98.1192Z" fill="white"/>
<path fill-rule="evenodd" clip-rule="evenodd" d="M326.925 89.4509L468.925 171.13C485.675 180.764 496 198.615 496 217.939V382.062C496 401.385 485.675 419.236 468.925 428.87L326.925 510.549C310.255 520.138 289.745 520.138 273.075 510.549L131.075 428.87C114.325 419.236 104 401.385 104 382.062V217.939C104 198.615 114.325 180.765 131.075 171.13L273.075 89.4509C289.745 79.8627 310.255 79.8627 326.925 89.4509ZM321.939 98.1192C308.356 90.3066 291.644 90.3066 278.061 98.1192L136.061 179.798C122.413 187.649 114 202.194 114 217.939L114 382.062C114 397.807 122.413 412.352 136.061 420.202L278.061 501.881C291.644 509.694 308.356 509.694 321.939 501.881L463.939 420.202C477.587 412.352 486 397.807 486 382.062V217.939C486 202.194 477.587 187.649 463.939 179.798L321.939 98.1192Z" fill="#05060F"/>
<path d="M281.889 176.857C293.095 170.381 306.905 170.381 318.111 176.857L395.997 221.868C407.189 228.335 414.082 240.28 414.082 253.207V343.934C414.082 356.861 407.189 368.806 395.997 375.274L318.111 420.284C306.905 426.76 293.095 426.76 281.889 420.284L204.003 375.274C192.811 368.806 185.918 356.861 185.918 343.934V253.207C185.918 240.28 192.811 228.335 204.003 221.868L281.889 176.857Z" fill="#05060F"/>
<path fill-rule="evenodd" clip-rule="evenodd" d="M237.625 266.699C237.625 265.206 239.24 264.273 240.533 265.019L286.101 291.308C287.301 292.001 288.041 293.282 288.041 294.668V358.877C288.041 360.369 286.426 361.302 285.133 360.557L239.565 334.267C238.365 333.575 237.625 332.294 237.625 330.908V311.541C237.625 310.799 238.425 310.332 239.072 310.697L265.911 325.867C266.557 326.232 267.357 325.765 267.357 325.023V304.924C267.357 303.992 266.856 303.132 266.044 302.673L239.595 287.724C238.378 287.036 237.625 285.746 237.625 284.348V266.699ZM359.464 265.019C360.757 264.273 362.372 265.206 362.372 266.699V284.348C362.372 285.746 361.619 287.036 360.402 287.724L333.953 302.673C333.141 303.132 332.64 303.992 332.64 304.924V325.023C332.64 325.765 333.44 326.232 334.086 325.867L360.925 310.697C361.572 310.332 362.372 310.799 362.372 311.541V330.908C362.372 332.294 361.632 333.575 360.432 334.267L314.864 360.557C313.571 361.302 311.956 360.369 311.956 358.877V294.668C311.956 293.282 312.696 292.001 313.896 291.308L359.464 265.019ZM296.161 229.654C298.54 228.299 301.457 228.299 303.836 229.654L341.335 251.003C342.637 251.745 342.643 253.619 341.345 254.368L322.602 265.191C321.812 265.647 320.841 265.654 320.045 265.208L301.263 254.678C300.477 254.238 299.52 254.238 298.734 254.678L279.952 265.208C279.156 265.654 278.185 265.647 277.395 265.191L258.652 254.368C257.354 253.619 257.36 251.745 258.662 251.003L296.161 229.654Z" fill="white"/>
<path fill-rule="evenodd" clip-rule="evenodd" d="M524.963 143.145L322.963 26.7713C308.749 18.5828 291.251 18.5827 277.037 26.7713L75.0372 143.145C60.7838 151.356 52 166.554 52 183.004L52 416.999C52 433.449 60.7838 448.646 75.0371 456.858L277.037 573.232C291.251 581.42 308.749 581.42 322.963 573.232L524.963 456.858C539.216 448.646 548 433.449 548 416.999V183.004C548 166.554 539.216 151.356 524.963 143.145ZM327.955 18.1064C310.651 8.13774 289.349 8.13771 272.045 18.1063L70.0452 134.48C52.6933 144.477 42 162.978 42 183.004L42 416.999C42 437.025 52.6933 455.526 70.0452 465.523L272.045 581.896C289.349 591.865 310.651 591.865 327.955 581.897L529.955 465.523C547.307 455.526 558 437.025 558 416.999V183.004C558 162.978 547.307 144.477 529.955 134.48L327.955 18.1064Z" fill="#05060F"/>
</g>
<defs>
<clipPath id="clip0_6139_39350">
<rect width="600" height="600" fill="white"/>
</clipPath>
</defs>
</svg>
