<svg width="600" height="600" viewBox="0 0 600 600" fill="none" xmlns="http://www.w3.org/2000/svg">
<path d="M272.045 18.1063C289.349 8.1377 310.651 8.13774 327.955 18.1064L529.955 134.48C547.307 144.477 558 162.978 558 183.004V416.999C558 437.025 547.307 455.526 529.955 465.523L327.955 581.897C310.651 591.865 289.349 591.865 272.045 581.896L70.0452 465.523C52.6933 455.526 42 437.025 42 416.999L42 183.004C42 162.978 52.6933 144.477 70.0452 134.48L272.045 18.1063Z" fill="#EDE8FF"/>
<path fill-rule="evenodd" clip-rule="evenodd" d="M524.963 143.145L322.963 26.7713C308.749 18.5828 291.251 18.5827 277.037 26.7713L75.0372 143.145C60.7838 151.356 52 166.554 52 183.004L52 416.999C52 433.449 60.7838 448.646 75.0371 456.858L277.037 573.232C291.251 581.42 308.749 581.42 322.963 573.232L524.963 456.858C539.216 448.646 548 433.449 548 416.999V183.004C548 166.554 539.216 151.356 524.963 143.145ZM327.955 18.1064C310.651 8.13774 289.349 8.13771 272.045 18.1063L70.0452 134.48C52.6933 144.477 42 162.978 42 183.004L42 416.999C42 437.025 52.6933 455.526 70.0452 465.523L272.045 581.896C289.349 591.865 310.651 591.865 327.955 581.897L529.955 465.523C547.307 455.526 558 437.025 558 416.999V183.004C558 162.978 547.307 144.477 529.955 134.48L327.955 18.1064Z" fill="#05060F"/>
<path d="M172 243C172 229.745 182.745 219 196 219H288C301.255 219 312 229.745 312 243V402C312 415.255 301.255 426 288 426H196C182.745 426 172 415.255 172 402V243Z" fill="white"/>
<path fill-rule="evenodd" clip-rule="evenodd" d="M167 243C167 226.984 179.984 214 196 214H288C304.016 214 317 226.984 317 243V402C317 418.016 304.016 431 288 431H196C179.984 431 167 418.016 167 402V243ZM196 224C185.507 224 177 232.507 177 243V402C177 412.493 185.507 421 196 421H288C298.493 421 307 412.493 307 402V243C307 232.507 298.493 224 288 224H196Z" fill="#05060F"/>
<path d="M282 201C282 187.745 292.745 177 306 177H406C419.255 177 430 187.745 430 201V372C430 385.255 419.255 396 406 396H306C292.745 396 282 385.255 282 372V201Z" fill="white"/>
<path fill-rule="evenodd" clip-rule="evenodd" d="M277 201C277 184.984 289.984 172 306 172H406C422.016 172 435 184.984 435 201V372C435 388.016 422.016 401 406 401H306C289.984 401 277 388.016 277 372V201ZM306 182C295.507 182 287 190.507 287 201V372C287 382.493 295.507 391 306 391H406C416.493 391 425 382.493 425 372V201C425 190.507 416.493 182 406 182H306Z" fill="#05060F"/>
<path d="M364.011 244.453C362.052 242.507 358.886 242.517 356.94 244.476C354.994 246.435 355.004 249.601 356.963 251.547L368.873 263.379H331.186C317.379 263.379 306.186 274.572 306.186 288.379V316C306.186 324.284 299.47 331 291.186 331H249.203C247.104 324.612 241.09 320 234 320C225.163 320 218 327.163 218 336C218 344.837 225.163 352 234 352C241.09 352 247.104 347.388 249.203 341H291.186C304.993 341 316.186 329.807 316.186 316V288.379C316.186 280.095 322.902 273.379 331.186 273.379H368.873L356.963 285.211C355.004 287.157 354.994 290.323 356.94 292.282C358.886 294.241 362.052 294.251 364.011 292.305L384.524 271.926C385.469 270.987 386 269.711 386 268.379C386 267.047 385.469 265.77 384.524 264.832L364.011 244.453Z" fill="#05060F"/>
</svg>
