<svg width="600" height="600" viewBox="0 0 600 600" fill="none" xmlns="http://www.w3.org/2000/svg">
<g clip-path="url(#clip0_5357_4348)">
<path d="M234.916 418.16C246.082 418.16 270.096 418.16 270.097 418.16C270.097 418.16 270.097 418.16 270.097 418.16L270.9 418.16C275.351 418.16 278.96 414.548 278.96 410.092L278.96 370.147C278.96 367.797 276.96 365.956 274.612 365.972C256.919 366.094 239.498 358.714 227.363 345.706C215.805 333.318 209.628 316.655 210.251 299.714C209.631 282.775 215.807 266.112 227.362 253.721C239.467 240.747 256.92 233.293 274.597 233.449C276.95 233.47 278.959 231.628 278.959 229.272L278.959 189.336C278.959 184.88 275.35 181.268 270.899 181.268L199.473 181.267C194.816 181.267 191.099 177.317 191.871 172.719C192.718 167.667 194.003 162.683 195.641 157.804C196.8 154.363 197.426 150.675 197.426 146.842C197.426 127.046 180.715 111.154 160.642 112.534C140.569 111.154 123.858 127.045 123.858 146.841C123.858 150.675 124.484 154.362 125.644 157.804C127.281 162.682 128.566 167.666 129.414 172.719C130.187 177.318 126.47 181.27 121.811 181.27L50.3888 181.269C45.9373 181.269 42.3287 184.881 42.3287 189.337L42.3291 260.833C42.3292 265.495 46.2757 269.215 50.8687 268.442C55.9166 267.594 60.8967 266.307 65.7724 264.666C69.2077 263.508 72.8912 262.882 76.7213 262.882C96.5037 262.882 112.38 279.615 110.995 299.713C112.38 319.811 96.5013 336.547 76.7189 336.547C72.8944 336.547 69.2109 335.92 65.77 334.762C60.8963 333.123 55.9172 331.837 50.869 330.988C46.275 330.215 42.3267 333.935 42.3268 338.598L42.3272 410.091C42.3272 414.547 45.9252 418.159 50.3766 418.159C61.4008 418.159 80.4999 418.159 86.3709 418.159C176.407 418.159 104.336 418.16 234.916 418.16Z" fill="white"/>
<path fill-rule="evenodd" clip-rule="evenodd" d="M270.9 423.203C278.134 423.203 283.998 417.334 283.998 410.093L283.997 370.147C283.997 364.773 279.489 360.897 274.577 360.931C258.272 361.043 242.205 354.228 231.045 342.265C220.407 330.863 214.711 315.508 215.285 299.9L215.292 299.715L215.285 299.53C214.714 283.924 220.409 268.568 231.045 257.163C242.182 245.225 258.282 238.348 274.552 238.492C279.469 238.536 283.996 234.661 283.996 229.273L283.996 189.336C283.996 182.096 278.132 176.226 270.899 176.226L199.473 176.226C197.57 176.226 196.641 174.731 196.838 173.555C197.638 168.788 198.854 164.062 200.416 159.411C201.747 155.456 202.463 151.227 202.463 146.842C202.463 124.259 183.492 106.105 160.642 107.482C137.792 106.105 118.82 124.259 118.821 146.842C118.821 151.228 119.537 155.458 120.87 159.414C122.43 164.064 123.646 168.789 124.447 173.556C124.644 174.733 123.714 176.228 121.811 176.228L50.3888 176.228C43.1552 176.228 37.2911 182.097 37.2911 189.338L37.2916 260.833C37.2916 268.253 43.692 274.763 51.7033 273.416C57.0367 272.519 62.2748 271.164 67.3782 269.446L67.3795 269.446C70.302 268.461 73.443 267.925 76.7212 267.925C93.6048 267.925 107.152 282.203 105.97 299.367L105.946 299.714L105.97 300.061C107.152 317.225 93.6025 331.505 76.7189 331.505C73.4471 331.505 70.3053 330.969 67.3748 329.983C62.2738 328.267 57.0372 326.913 51.7042 326.016C43.6924 324.668 37.2892 331.178 37.2892 338.599L37.2897 410.092C37.2897 417.324 43.1343 423.202 50.3765 423.202L86.3709 423.202C127.372 423.202 134.756 423.202 142.969 423.203L145.439 423.203C154.999 423.203 169.626 423.203 234.916 423.203L270.9 423.203ZM273.922 410.093C273.922 411.764 272.569 413.118 270.9 413.118L234.916 413.118C169.626 413.118 154.999 413.118 145.44 413.118L142.694 413.118C134.586 413.118 126.913 413.117 86.3708 413.117L50.3766 413.117C48.716 413.117 47.3648 411.771 47.3647 410.092L47.3643 338.599C47.3643 336.694 48.8577 335.763 50.0339 335.961C54.7973 336.763 59.5189 337.98 64.1653 339.543C68.1166 340.872 72.3417 341.59 76.7189 341.59C99.2861 341.59 117.425 322.592 116.043 299.714C117.425 276.836 99.2885 257.84 76.7213 257.84C72.3398 257.84 68.1143 258.557 64.1667 259.887C59.5186 261.452 54.7965 262.67 50.0341 263.47C48.8595 263.668 47.3667 262.738 47.3667 260.833L47.3662 189.338C47.3662 187.667 48.7194 186.312 50.3888 186.312L121.811 186.313C129.225 186.313 135.729 179.904 134.382 171.884C133.486 166.546 132.133 161.304 130.419 156.198L130.417 156.193C129.431 153.266 128.896 150.123 128.896 146.842C128.896 129.947 143.155 116.386 160.296 117.566L160.642 117.589L160.987 117.566C178.129 116.387 192.388 129.947 192.388 146.842C192.388 150.124 191.853 153.267 190.867 156.194L190.865 156.198C189.151 161.305 187.798 166.547 186.903 171.885C185.557 179.904 192.061 186.311 199.473 186.311L270.899 186.311C272.568 186.311 273.921 187.666 273.921 189.336L273.921 228.405C255.087 228.442 236.588 236.445 223.681 250.281C211.248 263.612 204.593 281.506 205.211 299.714C204.59 317.926 211.245 335.819 223.681 349.148C223.681 349.149 223.681 349.148 223.681 349.148C236.625 363.022 255.091 370.945 273.922 371.016L273.922 370.147C273.922 370.454 274.064 370.703 274.203 370.835C274.33 370.955 274.488 371.016 274.647 371.015C274.405 371.017 274.164 371.017 273.922 371.016L273.922 410.093Z" fill="#05060F"/>
<path d="M297.203 334.33C293.765 335.489 290.082 336.115 286.254 336.112C266.475 336.115 250.599 319.404 251.978 299.332C250.599 279.259 266.475 262.548 286.254 262.545C290.082 262.548 293.765 263.174 297.206 264.33C302.08 265.968 307.059 267.253 312.107 268.101C316.7 268.872 320.646 265.156 320.646 260.498L320.646 189.073C320.646 184.622 324.255 181.013 328.706 181.013L400.132 181.013C404.789 181.013 408.506 184.959 407.735 189.552C406.886 194.603 405.601 199.585 403.961 204.462C402.805 207.897 402.178 211.58 402.178 215.411C402.178 235.193 418.895 251.069 438.973 249.684C459.052 251.069 475.771 235.19 475.771 215.408C475.771 211.583 475.145 207.9 473.989 204.459C472.351 199.585 471.066 194.606 470.218 189.558C469.446 184.964 473.162 181.016 477.821 181.016L549.243 181.016C553.695 181.016 557.303 184.659 557.303 189.11C557.303 284.597 557.303 303.185 557.303 409.534C557.303 413.986 553.695 417.647 549.243 417.647L477.821 417.647C473.162 417.647 469.446 413.699 470.218 409.105C471.066 404.057 472.351 399.078 473.989 394.204C475.145 390.763 475.771 387.085 475.771 383.255C475.771 363.473 459.052 347.594 438.973 348.979C418.895 347.594 402.178 363.47 402.178 383.252C402.178 387.083 402.805 390.766 403.961 394.201C405.601 399.077 406.885 404.059 407.732 409.108C408.503 413.701 404.786 417.647 400.129 417.647L328.704 417.647C324.252 417.647 320.644 414.039 320.644 409.587L320.644 338.162C320.644 333.505 316.697 329.788 312.104 330.56C307.056 331.408 302.077 332.692 297.203 334.33Z" fill="#E93C3C"/>
<path fill-rule="evenodd" clip-rule="evenodd" d="M552.266 189.111C552.266 187.414 550.885 186.054 549.243 186.055L477.821 186.054C475.918 186.054 474.988 187.548 475.186 188.724C475.986 193.487 477.202 198.209 478.764 202.855C480.092 206.807 480.809 211.032 480.809 215.409C480.809 237.976 461.829 256.115 438.973 254.733C416.118 256.115 397.141 237.979 397.141 215.412C397.141 211.03 397.857 206.805 399.186 202.857C400.75 198.208 401.966 193.484 402.767 188.719C402.964 187.544 402.035 186.052 400.132 186.052L328.706 186.052C327.037 186.052 325.684 187.405 325.684 189.074L325.684 260.499C325.684 267.911 319.283 274.415 311.272 273.07C305.939 272.174 300.702 270.821 295.601 269.107C292.671 268.122 289.528 267.586 286.251 267.584C269.37 267.589 255.826 281.848 257.004 298.987L257.028 299.333L257.004 299.678C255.826 316.819 269.373 331.078 286.254 331.076L286.258 331.076C289.531 331.078 292.67 330.543 295.594 329.557L295.599 329.556C300.7 327.842 305.937 326.489 311.269 325.593C319.281 324.247 325.681 330.751 325.681 338.163L325.681 409.588C325.681 411.258 327.034 412.611 328.704 412.611H400.129C402.031 412.611 402.961 411.118 402.764 409.942C401.965 405.179 400.749 400.456 399.187 395.81C397.858 391.861 397.141 387.636 397.141 383.254C397.141 360.687 416.118 342.551 438.973 343.932C461.829 342.551 480.809 360.689 480.809 383.256C480.809 387.64 480.091 391.859 478.764 395.81C477.202 400.456 475.986 405.178 475.186 409.941C474.988 411.117 475.918 412.611 477.821 412.611H549.243C550.87 412.611 552.266 411.248 552.266 409.535L552.266 189.111ZM549.243 175.979C556.504 175.979 562.341 181.905 562.341 189.111L562.341 409.535C562.341 416.726 556.519 422.686 549.243 422.686H477.821C470.407 422.686 463.903 416.283 465.25 408.271C466.146 402.938 467.499 397.701 469.213 392.601L473.706 394.11L469.213 392.6C470.198 389.67 470.734 386.533 470.734 383.256C470.734 366.373 456.467 352.823 439.32 354.006L438.973 354.03L438.627 354.006C421.48 352.823 407.216 366.37 407.216 383.254C407.216 386.532 407.751 389.673 408.735 392.595L408.736 392.597C410.452 397.701 411.805 402.941 412.7 408.275C414.044 416.286 407.541 422.686 400.129 422.686L328.704 422.686C321.47 422.686 315.606 416.822 315.606 409.588L315.606 338.163C315.606 336.26 314.113 335.331 312.938 335.529C308.178 336.328 303.458 337.544 298.813 339.105C294.861 340.437 290.633 341.154 286.251 341.151C263.688 341.152 245.554 322.181 246.93 299.333C245.554 276.482 263.691 257.512 286.254 257.509L286.258 257.509C290.635 257.512 294.859 258.228 298.811 259.556C303.457 261.118 308.179 262.334 312.941 263.134C314.116 263.331 315.609 262.402 315.609 260.499L315.609 189.074C315.609 181.841 321.473 175.977 328.706 175.977L400.132 175.977C407.544 175.977 414.048 182.377 412.703 190.388C411.806 195.724 410.452 200.964 408.736 206.069L408.735 206.07C407.751 208.993 407.216 212.133 407.216 215.412C407.216 232.295 421.48 245.842 438.627 244.66L438.973 244.636L439.32 244.66C456.467 245.842 470.734 232.292 470.734 215.409C470.734 212.137 470.198 208.995 469.213 206.065L469.213 206.065C467.499 200.964 466.146 195.727 465.25 190.394C463.903 182.383 470.407 175.979 477.821 175.979L549.243 175.979Z" fill="#05060F"/>
</g>
<defs>
<clipPath id="clip0_5357_4348">
<rect width="600" height="600" fill="white"/>
</clipPath>
</defs>
</svg>
