<svg xmlns="http://www.w3.org/2000/svg" xmlns:xlink="http://www.w3.org/1999/xlink" width="64" height="64" viewBox="0 0 64 64">
  <defs>
    <circle id="ch-a" cx="32" cy="32" r="32"/>
  </defs>
  <g fill="none" fill-rule="evenodd">
    <mask id="ch-b" fill="#fff">
      <use xlink:href="#ch-a"/>
    </mask>
    <use fill="#D8D8D8" xlink:href="#ch-a"/>
    <g fill-rule="nonzero" mask="url(#ch-b)">
      <g transform="translate(-11)">
        <path fill="#DA1E05" d="M85.3333333,60.4444444 C85.3333333,62.4081236 83.7414569,64 81.7777778,64 L3.55555556,64 C1.59187645,64 0,62.4081236 0,60.4444444 L0,3.55555556 C0,1.59187645 1.59187645,0 3.55555556,0 L81.7777778,0 C83.7414569,0 85.3333333,1.59187645 85.3333333,3.55555556 L85.3333333,60.4444444 Z"/>
        <path fill="#FFF" d="M62.2222222,39.1111111 L23.1111111,39.1111111 C22.1292716,39.1111111 21.3333333,38.3151729 21.3333333,37.3333333 L21.3333333,26.6666667 C21.3333333,25.6848271 22.1292716,24.8888889 23.1111111,24.8888889 L62.2222222,24.8888889 C63.2040618,24.8888889 64,25.6848271 64,26.6666667 L64,37.3333333 C64,38.3151729 63.2040618,39.1111111 62.2222222,39.1111111 Z"/>
        <path fill="#FFF" d="M48,53.3333333 L37.3333333,53.3333333 C36.3514938,53.3333333 35.5555556,52.5373951 35.5555556,51.5555556 L35.5555556,12.4444444 C35.5555556,11.4626049 36.3514938,10.6666667 37.3333333,10.6666667 L48,10.6666667 C48.9818396,10.6666667 49.7777778,11.4626049 49.7777778,12.4444444 L49.7777778,51.5555556 C49.7777778,52.5373951 48.9818396,53.3333333 48,53.3333333 Z"/>
      </g>
    </g>
  </g>
</svg>
