<svg width="600" height="600" viewBox="0 0 600 600" fill="none" xmlns="http://www.w3.org/2000/svg">
<rect width="600" height="600" fill="#FFE3E3"/>
<path fill-rule="evenodd" clip-rule="evenodd" d="M126.01 252.945L196.935 233.997C255.691 200.074 350.954 200.074 409.71 233.997L480.635 260.945C497.535 270.703 516.822 248.703 524 260.945C524 311 530.5 370.5 472 405L409.71 439.74C341.5 477.5 262.5 477.5 196.935 439.74L127 398C80 359.5 79.4736 302.044 83.3295 260.673C90.5076 248.431 109.109 262.703 126.01 252.945Z" fill="#B31717"/>
<path fill-rule="evenodd" clip-rule="evenodd" d="M126.49 202.932L197.237 162.086C255.846 128.248 350.87 128.248 409.479 162.086L480.226 202.932C538.835 236.769 538.835 291.631 480.226 325.469L409.479 366.315C350.87 400.153 255.846 400.153 197.237 366.315L126.49 325.469C67.881 291.631 67.881 236.769 126.49 202.932Z" fill="#FB8282"/>
<path d="M421.5 182.5L394.276 205.531L394.155 205.461L371.287 213.042L294.45 253.083C275.388 243.222 254.04 233.237 245.076 231.02C246.017 229.999 245.742 228.703 244.252 227.843L241.905 226.488C240.693 225.788 238.982 225.552 237.433 225.781C238.441 224.976 238.613 223.901 237.825 222.992L230.003 202.306C228.882 201.012 226.908 200.031 224.523 199.585L182.931 183.851V188.65L177.056 186.444C176.048 192.15 175.974 201.857 179.444 207.003L192.186 227.608C192.926 228.925 194.514 230.027 196.621 230.687L214.4 236.259C215.664 236.655 217.138 236.685 218.411 236.383C217.702 237.364 218.039 238.537 219.421 239.335L221.768 240.69C223.129 241.475 225.119 241.676 226.801 241.291L226.703 241.348C231.329 247.161 250.189 260.085 267.778 271.067L173 314C172 315 171.499 319.5 172.999 332C174.32 343 194 348.5 206.779 340.623L296 287.391C328.776 304.667 404.049 341.803 404.049 341.803C408.953 343.974 420.834 344 421.501 338C422.001 333.5 422.501 319 421.501 319C421.501 319 350.661 286.228 323.228 269.118L399.531 229.347L411.797 215.646L411.688 215.583L421.708 203.021C423.619 200.625 423.5 181.5 421.5 182.5Z" fill="#B31717"/>
<path d="M411.629 197.835L394.174 187.738L415.717 181.391C419.6 180.248 423.8 182.577 421.977 184.862L411.629 197.835Z" fill="white"/>
<path d="M178.533 322.8C186.333 327.303 198.978 327.302 206.778 322.8L297.155 268.879C286.752 263.498 276.213 257.472 268.6 252.753L178.533 306.494C170.734 310.997 170.734 318.297 178.533 322.8Z" fill="#E93C3C"/>
<path d="M292.316 236.371C302.883 241.366 312.874 247.399 320.429 252.753L399.529 211.524L411.795 197.823L394.153 187.638L371.285 195.219L292.316 236.371Z" fill="#E93C3C"/>
<path d="M215.566 317.719L187.106 301.289L201.316 292.908L229.677 309.244L215.566 317.719Z" fill="#F8DB46"/>
<path d="M245.032 213.185C239.65 216.293 233.159 219.799 226.705 223.525C232.889 231.296 264.517 251.78 284.534 263.336C304.552 274.892 404.051 323.98 404.051 323.98C408.955 326.151 414.896 326.404 419.095 323.98C423.294 321.556 422.665 317.961 419.047 315.323C419.047 315.323 337.266 259.213 316.695 247.337C296.124 235.462 257.822 216.326 245.032 213.185Z" fill="#F8DB46"/>
<path d="M178.364 185.947C177.461 185.426 176.475 186.484 177.058 187.348L192.188 209.785C192.928 211.102 194.515 212.204 196.623 212.864L214.402 218.436C215.666 218.832 217.14 218.862 218.413 218.56C217.704 219.541 218.04 220.714 219.422 221.511L221.769 222.867C223.596 223.921 226.558 223.921 228.385 222.867L244.254 213.839C246.081 212.784 246.081 211.074 244.254 210.02L241.906 208.665C240.695 207.965 238.983 207.729 237.435 207.958C238.443 207.153 238.614 206.078 237.827 205.169L228.677 194.604C227.556 193.31 225.582 192.33 223.198 191.883L183.923 183.365C182.827 183.127 182.252 184.616 183.223 185.176L205.061 197.784C207.415 196.923 212.111 196.989 214.895 198.596C218.195 200.502 218.497 203.416 215.197 205.321C211.897 207.227 206.842 207.056 203.542 205.151C200.758 203.544 200.502 201.261 201.965 199.572L178.364 185.947Z" fill="white"/>
</svg>
