<svg width="600" height="600" viewBox="0 0 600 600" fill="none" xmlns="http://www.w3.org/2000/svg">
<path d="M370.613 190C372.059 190 373.392 190.78 374.1 192.041L408.508 253.275C408.768 253.737 409.258 254.023 409.788 254.023C410.316 254.023 410.804 253.74 411.065 253.281L445.896 192.023C446.607 190.772 447.935 190 449.373 190H506.392C509.495 190 511.416 193.381 509.828 196.047L449.146 297.913C448.382 299.195 448.396 300.796 449.182 302.066L512.22 403.895C513.87 406.559 511.953 410 508.819 410H450.226C448.79 410 447.464 409.23 446.752 407.982L411.067 345.432C410.804 344.971 410.315 344.688 409.786 344.688C409.256 344.688 408.767 344.971 408.505 345.432L372.82 407.982C372.108 409.23 370.782 410 369.346 410H311.133C308.009 410 306.091 406.579 307.72 403.914L369.986 302.053C370.758 300.79 370.769 299.203 370.015 297.929L309.714 196.037C308.136 193.371 310.058 190 313.157 190H370.613Z" fill="#F8DB46"/>
<path fill-rule="evenodd" clip-rule="evenodd" d="M315.342 190.435L377.307 295.182C379.076 298.173 379.05 301.898 377.238 304.863L313.262 409.565H371.514L408.435 344.821C409.637 342.714 411.876 341.413 414.301 341.413C416.727 341.413 418.966 342.714 420.167 344.821L457.088 409.565H515.725L450.959 304.902C449.115 301.922 449.083 298.163 450.876 295.152L513.23 190.435H456.2L420.169 253.829C418.969 255.939 416.73 257.242 414.304 257.242C411.865 257.242 409.617 255.926 408.422 253.799L372.832 190.435H315.342ZM305.434 194.174C301.731 187.914 306.241 180 313.513 180H373.442C376.835 180 379.964 181.832 381.626 184.791L414.323 243.003L447.433 184.749C449.101 181.813 452.217 180 455.593 180H515.065C522.349 180 526.858 187.938 523.13 194.198L460.161 299.948L525.579 405.665C529.451 411.922 524.953 420 517.598 420H456.482C453.111 420 449.999 418.192 448.329 415.262L414.301 355.593L380.274 415.262C378.604 418.192 375.491 420 372.12 420H311.402C304.071 420 299.569 411.969 303.393 405.711L368.011 299.956L305.434 194.174Z" fill="#05060F"/>
<path d="M218.903 183.172C218.903 180.868 220.766 179 223.064 179H279.839C282.137 179 284 180.868 284 183.172V332.869C284 351.164 279.629 366.997 270.887 380.366C262.223 393.658 250.124 403.939 234.592 411.21C219.059 418.403 201.028 422 180.5 422C159.816 422 141.707 418.403 126.174 411.21C110.641 403.939 98.543 393.658 89.879 380.366C81.293 366.997 77 351.164 77 332.869V183.172C77 180.868 78.8629 179 81.1608 179H137.936C140.234 179 142.097 180.868 142.097 183.172V327.239C142.097 334.667 143.736 341.313 147.015 347.177C150.293 352.962 154.82 357.497 160.596 360.781C166.45 364.065 173.085 365.707 180.5 365.707C187.993 365.707 194.628 364.065 200.404 360.781C206.18 357.497 210.707 352.962 213.985 347.177C217.264 341.313 218.903 334.667 218.903 327.239V183.172Z" fill="#664EFF"/>
<path d="M22 228C20.8954 228 20 227.104 20 226V205.46C20 199.324 21.2611 193.157 23.7834 186.959C26.3057 180.76 29.49 175.031 33.3365 169.772C36.8554 164.961 40.4008 160.988 43.9725 157.853C44.5718 157.327 45.4311 157.232 46.1428 157.592L64.6132 166.923C65.6511 167.447 66.0224 168.742 65.4497 169.754C62.6877 174.634 60.4959 179.712 58.8744 184.986C57.1088 190.934 56.2575 197.759 56.3206 205.46V226C56.3206 227.104 55.4251 228 54.3206 228H22ZM74.4643 228C73.3597 228 72.4643 227.104 72.4643 226V205.46C72.4643 199.324 73.7254 193.157 76.2477 186.959C78.7699 180.76 81.9543 175.031 85.8007 169.772C89.3197 164.961 92.865 160.988 96.4368 157.853C97.036 157.327 97.8953 157.232 98.607 157.592L117.077 166.923C118.115 167.447 118.487 168.742 117.914 169.754C115.152 174.634 112.96 179.712 111.339 184.986C109.573 190.934 108.722 197.759 108.785 205.46V226C108.785 227.104 107.889 228 106.785 228H74.4643Z" fill="white"/>
<path fill-rule="evenodd" clip-rule="evenodd" d="M45.7553 162.998C43.0035 165.62 40.2057 168.85 37.3723 172.724C33.7737 177.644 30.787 183.013 28.4146 188.843C26.1137 194.498 25 200.027 25 205.46V223H51.3206V205.48C51.2561 197.406 52.147 190.08 54.0811 183.564L54.088 183.541L54.0951 183.517C55.5253 178.865 57.3705 174.361 59.6273 170.006L45.7553 162.998ZM40.6744 154.095C42.8634 152.174 45.9317 151.884 48.3973 153.129L66.8677 162.46C70.5326 164.311 71.7354 168.799 69.8012 172.217C67.2185 176.781 65.1737 181.518 63.6608 186.432C62.0699 191.802 61.2606 198.11 61.3204 205.419L61.3206 205.44V226C61.3206 229.866 58.1866 233 54.3206 233H22C18.134 233 15 229.866 15 226V205.46C15 198.622 16.4085 191.817 19.1521 185.074C21.8243 178.507 25.2064 172.419 29.3007 166.821C32.9834 161.785 36.769 157.523 40.6744 154.095ZM98.2196 162.998C95.4677 165.62 92.67 168.85 89.8365 172.724C86.2379 177.644 83.2513 183.013 80.8789 188.843C78.578 194.498 77.4643 200.027 77.4643 205.46V223H103.785V205.48C103.72 197.406 104.611 190.08 106.545 183.564L106.552 183.541L106.559 183.517C107.99 178.865 109.835 174.361 112.092 170.006L98.2196 162.998ZM93.1387 154.095C95.3276 152.174 98.396 151.884 100.862 153.129L119.332 162.46C122.997 164.311 124.2 168.799 122.265 172.217C119.683 176.781 117.638 181.518 116.125 186.433C114.534 191.802 113.725 198.11 113.785 205.419L113.785 205.44V226C113.785 229.866 110.651 233 106.785 233H74.4643C70.5983 233 67.4643 229.866 67.4643 226V205.46C67.4643 198.622 68.8728 191.817 71.6164 185.074C74.2886 178.507 77.6706 172.419 81.7649 166.821C85.4477 161.785 89.2333 157.523 93.1387 154.095Z" fill="#05060F"/>
<path d="M526.947 157C528.052 157 528.947 157.895 528.947 159V179.54C528.947 185.675 527.702 191.811 525.212 197.947C522.784 204.02 519.671 209.687 515.873 214.946C512.454 219.702 508.931 223.75 505.303 227.09C504.699 227.646 503.813 227.754 503.082 227.38L484.877 218.066C483.857 217.544 483.485 216.275 484.03 215.267C486.232 211.193 488.223 206.578 490.004 201.422C492.059 195.474 493.086 188.18 493.086 179.54V159C493.086 157.895 493.981 157 495.086 157H526.947ZM578 157C579.105 157 580 157.895 580 159V179.54C580 185.675 578.755 191.811 576.264 197.947C573.836 204.02 570.723 209.687 566.926 214.946C563.507 219.702 559.983 223.75 556.356 227.09C555.752 227.646 554.865 227.754 554.134 227.38L535.93 218.066C534.909 217.544 534.537 216.275 535.082 215.267C537.284 211.193 539.276 206.578 541.057 201.422C543.111 195.474 544.139 188.18 544.139 179.54V159C544.139 157.895 545.034 157 546.139 157H578Z" fill="white"/>
<path fill-rule="evenodd" clip-rule="evenodd" d="M498.086 162V179.54C498.086 188.543 497.019 196.426 494.73 203.054C493.246 207.35 491.608 211.326 489.808 214.973L503.446 221.951C506.263 219.164 509.055 215.864 511.813 212.027L511.819 212.019C515.375 207.094 518.291 201.788 520.569 196.091L520.574 196.079L520.578 196.067C522.846 190.48 523.947 184.981 523.947 179.54V162H498.086ZM488.086 159C488.086 155.134 491.22 152 495.086 152H526.947C530.813 152 533.947 155.134 533.947 159V179.54C533.947 186.365 532.559 193.134 529.849 199.815C527.272 206.259 523.965 212.28 519.929 217.869C516.349 222.849 512.607 227.161 508.69 230.768C506.498 232.787 503.339 233.129 500.804 231.832L482.599 222.517C478.996 220.674 477.798 216.28 479.631 212.889C481.683 209.092 483.57 204.732 485.278 199.789C487.097 194.522 488.086 187.817 488.086 179.54V159ZM549.138 162V179.54C549.138 188.543 548.072 196.426 545.782 203.054C544.299 207.35 542.66 211.326 540.86 214.973L554.499 221.951C557.316 219.164 560.107 215.864 562.865 212.027L562.872 212.019C566.428 207.094 569.344 201.788 571.621 196.091L571.626 196.079L571.631 196.067C573.898 190.48 575 184.981 575 179.54V162H549.138ZM539.138 159C539.138 155.134 542.272 152 546.138 152H578C581.866 152 585 155.134 585 159V179.54C585 186.365 583.612 193.133 580.902 199.814C578.325 206.258 575.017 212.28 570.982 217.869C567.402 222.849 563.66 227.161 559.742 230.768C557.55 232.787 554.392 233.129 551.857 231.832L533.652 222.517C530.048 220.674 528.85 216.28 530.683 212.889C532.736 209.092 534.623 204.732 536.33 199.789C538.15 194.522 539.138 187.817 539.138 179.54V159Z" fill="#05060F"/>
</svg>
