<svg width="600" height="600" viewBox="0 0 600 600" fill="none" xmlns="http://www.w3.org/2000/svg">
<path d="M560 300C560 443.594 443.594 560 300 560C156.406 560 40 443.594 40 300C40 156.406 156.406 40 300 40C443.594 40 560 156.406 560 300Z" fill="white"/>
<path fill-rule="evenodd" clip-rule="evenodd" d="M300 550C438.071 550 550 438.071 550 300C550 161.929 438.071 50 300 50C161.929 50 50 161.929 50 300C50 438.071 161.929 550 300 550ZM300 560C443.594 560 560 443.594 560 300C560 156.406 443.594 40 300 40C156.406 40 40 156.406 40 300C40 443.594 156.406 560 300 560Z" fill="#05060F"/>
<path d="M303.371 552.133C301.466 555.562 296.534 555.562 294.629 552.133L83.1269 171.428C81.2754 168.096 83.6853 164 87.4977 164L510.503 164C514.315 164 516.725 168.096 514.873 171.428L303.371 552.133Z" fill="#664EFF"/>
<path fill-rule="evenodd" clip-rule="evenodd" d="M79 164L299 560L519 164L79 164ZM95.9951 174L299 539.409L502.005 174L95.9951 174Z" fill="#05060F"/>
</svg>
