<svg width="600" height="600" viewBox="0 0 600 600" fill="none" xmlns="http://www.w3.org/2000/svg">
<path d="M537 289.5C537 420.668 430.891 527 300 527C169.109 527 63 420.668 63 289.5C63 158.332 169.109 52 300 52C430.891 52 537 158.332 537 289.5Z" fill="white"/>
<path fill-rule="evenodd" clip-rule="evenodd" d="M300 517C425.349 517 527 415.165 527 289.5C527 163.835 425.349 62 300 62C174.651 62 73 163.835 73 289.5C73 415.165 174.651 517 300 517ZM300 527C430.891 527 537 420.668 537 289.5C537 158.332 430.891 52 300 52C169.109 52 63 158.332 63 289.5C63 420.668 169.109 527 300 527Z" fill="#05060F"/>
<path d="M312.393 192.366C312.393 185.536 306.856 180 300.025 180C293.194 180 287.657 185.536 287.657 192.366V277.554H202.368C195.537 277.554 190 283.09 190 289.92C190 296.75 195.537 302.286 202.368 302.286H287.657V387.634C287.657 394.464 293.194 400 300.025 400C306.856 400 312.393 394.464 312.393 387.634V302.286H397.632C404.463 302.286 410 296.75 410 289.92C410 283.09 404.463 277.554 397.632 277.554H312.393V192.366Z" fill="#664EFF"/>
<path d="M414.069 576.246C410.406 580.699 403.183 577.926 403.441 572.166L412.389 372.417C412.61 367.478 418.376 364.911 422.194 368.052L576.624 495.06C581.077 498.722 578.305 505.946 572.544 505.688L478.664 501.482C476.777 501.398 474.961 502.206 473.762 503.665L414.069 576.246Z" fill="#F8DB46"/>
<path fill-rule="evenodd" clip-rule="evenodd" d="M419.018 371.914C418.382 371.39 417.421 371.818 417.384 372.641L408.436 572.39C408.421 572.724 408.505 572.894 408.578 572.998C408.671 573.133 408.839 573.277 409.076 573.368C409.314 573.459 409.534 573.464 409.694 573.427C409.818 573.398 409.994 573.328 410.207 573.07L469.9 500.489C472.099 497.815 475.429 496.332 478.888 496.487L572.768 500.693C573.103 500.708 573.273 500.623 573.377 500.551C573.511 500.457 573.655 500.29 573.746 500.052C573.837 499.815 573.842 499.594 573.805 499.434C573.776 499.311 573.707 499.134 573.448 498.921L419.018 371.914ZM407.394 372.194C407.8 363.138 418.369 358.432 425.37 364.19L579.8 491.198C587.964 497.913 582.881 511.156 572.32 510.683L478.44 506.477C478.126 506.463 477.823 506.598 477.623 506.841L417.93 579.422C411.216 587.586 397.973 582.503 398.446 571.942L407.394 372.194Z" fill="#05060F"/>
</svg>
