<svg width="600" height="600" viewBox="0 0 600 600" fill="none" xmlns="http://www.w3.org/2000/svg">
<path fill-rule="evenodd" clip-rule="evenodd" d="M300 401.5C300 328.875 241.125 270 168.5 270C95.8745 270 37 328.875 37 401.5C37 474.125 95.8745 533 168.5 533C241.125 533 300 474.125 300 401.5Z" fill="white"/>
<path fill-rule="evenodd" clip-rule="evenodd" d="M290 401.5C290 334.397 235.603 280 168.5 280C101.397 280 47 334.397 47 401.5C47 468.603 101.397 523 168.5 523C235.603 523 290 468.603 290 401.5ZM168.5 270C241.125 270 300 328.875 300 401.5C300 474.125 241.125 533 168.5 533C95.8745 533 37 474.125 37 401.5C37 328.875 95.8745 270 168.5 270Z" fill="#05060F"/>
<path fill-rule="evenodd" clip-rule="evenodd" d="M563 401.5C563 328.875 504.125 270 431.5 270C358.875 270 300 328.875 300 401.5C300 474.125 358.875 533 431.5 533C504.125 533 563 474.125 563 401.5Z" fill="white"/>
<path fill-rule="evenodd" clip-rule="evenodd" d="M553 401.5C553 334.397 498.603 280 431.5 280C364.397 280 310 334.397 310 401.5C310 468.603 364.397 523 431.5 523C498.603 523 553 468.603 553 401.5ZM431.5 270C504.125 270 563 328.875 563 401.5C563 474.125 504.125 533 431.5 533C358.875 533 300 474.125 300 401.5C300 328.875 358.875 270 431.5 270Z" fill="#05060F"/>
<path fill-rule="evenodd" clip-rule="evenodd" d="M431 175.5C431 102.875 372.125 44 299.5 44C226.875 44 168 102.875 168 175.5C168 248.125 226.875 307 299.5 307C372.125 307 431 248.125 431 175.5Z" fill="white"/>
<path fill-rule="evenodd" clip-rule="evenodd" d="M421 175.5C421 108.397 366.603 54 299.5 54C232.397 54 178 108.397 178 175.5C178 242.603 232.397 297 299.5 297C366.603 297 421 242.603 421 175.5ZM299.5 44C372.125 44 431 102.875 431 175.5C431 248.125 372.125 307 299.5 307C226.875 307 168 248.125 168 175.5C168 102.875 226.875 44 299.5 44Z" fill="#05060F"/>
<path fill-rule="evenodd" clip-rule="evenodd" d="M358 176C358 143.967 332.033 118 300 118C267.967 118 242 143.967 242 176C242 208.033 267.967 234 300 234C332.033 234 358 208.033 358 176Z" fill="#664EFF"/>
<path fill-rule="evenodd" clip-rule="evenodd" d="M490 402C490 369.967 464.033 344 432 344C399.967 344 374 369.967 374 402C374 434.033 399.967 460 432 460C464.033 460 490 434.033 490 402Z" fill="#664EFF"/>
<path fill-rule="evenodd" clip-rule="evenodd" d="M227 402C227 369.967 201.033 344 169 344C136.967 344 111 369.967 111 402C111 434.033 136.967 460 169 460C201.033 460 227 434.033 227 402Z" fill="#664EFF"/>
<path d="M242 402C242 388.745 252.745 378 266 378H328C341.255 378 352 388.745 352 402C352 415.255 341.255 426 328 426H266C252.745 426 242 415.255 242 402Z" fill="#E93C3C"/>
<path fill-rule="evenodd" clip-rule="evenodd" d="M237 402C237 385.984 249.984 373 266 373H328C344.016 373 357 385.984 357 402C357 418.016 344.016 431 328 431H266C249.984 431 237 418.016 237 402ZM266 383C255.507 383 247 391.507 247 402C247 412.493 255.507 421 266 421H328C338.493 421 347 412.493 347 402C347 391.507 338.493 383 328 383H266Z" fill="#05060F"/>
<path d="M341.736 234.991C353.215 228.364 367.893 232.297 374.521 243.776L405.521 297.469C412.148 308.948 408.215 323.627 396.736 330.254C385.257 336.881 370.579 332.948 363.951 321.469L332.951 267.776C326.324 256.297 330.257 241.619 341.736 234.991Z" fill="#E93C3C"/>
<path fill-rule="evenodd" clip-rule="evenodd" d="M339.236 230.661C353.106 222.653 370.842 227.405 378.851 241.276L409.851 294.969C417.859 308.84 413.106 326.576 399.236 334.584C385.365 342.592 367.629 337.84 359.621 323.969L328.621 270.276C320.613 256.405 325.365 238.669 339.236 230.661ZM370.19 246.276C364.944 237.188 353.323 234.075 344.236 239.321C335.148 244.568 332.035 256.188 337.281 265.276L368.281 318.969C373.528 328.057 385.148 331.171 394.236 325.924C403.323 320.677 406.437 309.057 401.19 299.969L370.19 246.276Z" fill="#05060F"/>
<path d="M260.215 238.422C248.736 231.795 234.058 235.728 227.431 247.207L196.431 300.901C189.803 312.38 193.736 327.058 205.215 333.685C216.694 340.313 231.372 336.38 238 324.901L269 271.207C275.627 259.728 271.694 245.05 260.215 238.422Z" fill="#E93C3C"/>
<path fill-rule="evenodd" clip-rule="evenodd" d="M262.715 234.092C248.845 226.084 231.109 230.837 223.101 244.707L192.101 298.401C184.092 312.271 188.845 330.007 202.715 338.015C216.586 346.023 234.322 341.271 242.33 327.401L273.33 273.707C281.338 259.837 276.586 242.1 262.715 234.092ZM231.761 249.707C237.008 240.619 248.628 237.506 257.715 242.753C266.803 247.999 269.917 259.619 264.67 268.707L233.67 322.401C228.423 331.488 216.803 334.602 207.715 329.355C198.628 324.108 195.514 312.488 200.761 303.401L231.761 249.707Z" fill="#05060F"/>
</svg>
