<svg width="600" height="600" viewBox="0 0 600 600" fill="none" xmlns="http://www.w3.org/2000/svg">
<path d="M60 62.0426C60 52.0779 68.0398 44 77.9574 44H253.043C262.96 44 271 52.0779 271 62.0426V237.957C271 247.922 262.96 256 253.043 256H77.9574C68.0398 256 60 247.922 60 237.957V62.0426Z" fill="#664EFF"/>
<path d="M282.768 417.625L182.374 317.231C173.074 307.931 157.996 307.931 148.696 317.231L48.3022 417.625C39.0022 426.925 39.0022 442.003 48.3022 451.303L148.696 551.697C157.996 560.997 173.074 560.997 182.374 551.697L282.768 451.303C292.068 442.003 292.068 426.925 282.768 417.625Z" fill="#F8DB46" stroke="#05060F" stroke-width="10"/>
<path d="M344 62.0426C344 52.0779 352.078 44 362.043 44H537.957C547.922 44 556 52.0779 556 62.0426V237.957C556 247.922 547.922 256 537.957 256H362.043C352.078 256 344 247.922 344 237.957V62.0426Z" fill="#664EFF"/>
<path d="M344 346.957C344 337.04 352.078 329 362.043 329H537.957C547.922 329 556 337.04 556 346.957V522.043C556 531.96 547.922 540 537.957 540H362.043C352.078 540 344 531.96 344 522.043V346.957Z" fill="#664EFF"/>
</svg>
